<svg width="128" height="123" viewBox="0 0 128 123" fill="none" xmlns="http://www.w3.org/2000/svg">
    <path d="M123.181 8.28366C116.36 15.8294 109.2 23.0897 102.316 30.5946C99.5012 33.2186 97.2805 36.6675 93.8135 38.4803C77.5528 38.4712 61.3555 36.4001 45.1264 35.462C31.3854 34.2837 17.6172 33.5223 3.86719 32.3893C11.5534 23.5248 19.7337 15.0862 27.7417 6.52071C30.6603 3.49334 34.0004 -0.132248 38.5822 0.0037118C45.7428 0.271099 52.9305 0.456939 60.0366 1.33614L80.3218 2.55976L80.562 2.5779C92.6941 3.21238 104.822 4.05987 116.954 4.79405C119.088 5.45572 123.398 5.12487 123.185 8.28366H123.181Z" fill="#E3D5B7"/>
    <path d="M125.865 10.3691C116.221 19.0932 107.9 29.1679 98.809 38.4494C97.7622 39.8271 95.8678 41.0009 95.9312 42.9179C96.1714 67.8529 95.9448 92.7878 96.1714 117.723C104.809 110.009 112.799 101.612 121.057 93.4949C123.504 90.8708 126.803 88.206 126.79 84.2768C126.98 65.7682 126.762 47.2596 126.889 28.7645C127.066 22.6146 127.773 16.3287 125.865 10.3691Z" fill="#E3D5B7"/>
    <path d="M14.6148 117.165C38.2355 118.479 61.7973 120.6 85.4044 122.014C89.0662 122.594 93.2583 119.857 93.1541 115.905C93.358 93.5714 93.1541 71.2242 93.2175 48.8906C93.1178 46.8557 93.3807 44.132 91.3368 42.9673C86.5374 40.0396 80.6186 41.1636 75.289 40.5291C52.969 38.5985 30.6217 37.0939 8.26091 35.5666C6.36654 35.7297 3.96912 34.8958 2.45543 36.4005C0.334465 38.2586 -0.0190323 41.2225 0.0172236 43.8873C0.0308195 64.5169 0.0806714 85.1601 0.0172236 105.79C-0.109672 108.717 0.434183 111.863 2.66845 113.97C5.70942 117.251 10.5586 116.671 14.6102 117.165H14.6148ZM20.5471 67.7119C26.0535 66.4883 31.7094 66.1076 37.3155 65.5411C40.4471 60.8188 42.6179 55.5436 45.9262 50.9481C46.9595 49.3438 49.4975 48.5733 50.422 50.7578C53.5264 55.6206 55.4978 61.0726 58.1853 66.162C64.802 68.1425 71.8945 68.2966 78.2348 71.2514C75.7467 77.6642 68.414 80.1024 64.5346 85.5045C64.4077 90.9202 65.9622 96.2091 65.9758 101.616C66.0528 103.206 65.3594 104.33 63.882 105.01C57.9088 102.839 52.91 98.7334 47.1771 96.0731C41.4305 97.5778 36.4454 101.099 30.8529 103.066C29.2757 103.986 27.1548 102.146 27.5581 100.442C27.7983 94.999 29.5295 89.7601 30.1096 84.3715C26.8285 79.4362 21.3493 76.4043 18.1134 71.4417C16.9895 69.8148 18.9201 67.8796 20.5517 67.7165L20.5471 67.7119Z" fill="#E3D5B7"/>
</svg>
