<svg width="248" height="244" viewBox="0 0 248 244" fill="none" xmlns="http://www.w3.org/2000/svg">
    <path d="M97.5055 182.507C89.5171 192.721 92.1207 209.854 103.592 216.086C113.344 222.522 127.602 219.125 133.702 208.975C140.288 198.843 137.512 183.569 127.226 177.233C117.95 170.792 104.061 172.939 97.5055 182.507ZM115.738 206.069C109.109 206.931 103.73 199.021 106.523 192.877C108.804 186.412 117.954 184.822 122.235 190.043C127.584 195.49 123.059 205.814 115.738 206.069Z" fill="#7AABC4"/>
    <path d="M175.973 110.739C169.711 118.805 169.863 131.066 176.171 139.019C183.615 149.176 199.631 150.295 208.527 141.465C217.87 132.915 218.137 116.215 208.822 107.615C199.731 98.6 183.275 99.9134 175.969 110.742L175.973 110.739ZM195.12 134.155C188.297 135.724 182.107 127.594 185.028 121.111C187.288 114.58 196.451 112.928 200.745 118.205C205.787 123.451 202.066 133.195 195.12 134.155Z" fill="#7AABC4"/>
    <path d="M215.911 79.4199C212.943 78.8382 209.257 80.7496 207.085 77.7937C201.533 72.4026 194.186 68.7885 186.504 68.3104C176.976 67.6722 168.221 72.5021 160.205 77.1922C149.324 69.8042 137.349 62.8685 124.055 61.9842C111.287 61.1667 99.6321 68.5027 90.3115 76.7721L86.1243 71.9312L95.7463 63.1273C96.8034 62.16 96.9004 60.4996 95.9629 59.4158L92.7966 55.755C91.8592 54.6712 90.2445 54.5769 89.1873 55.5442L64.0535 78.5413C62.9963 79.5086 62.8994 81.169 63.8368 82.2528L67.0032 85.9136C67.9406 86.9974 69.5553 87.0917 70.6125 86.1244L79.9323 77.5968L84.173 82.4997C75.7778 90.6435 68.7624 101.217 67.8612 113.333C66.6684 127.288 72.7366 140.448 79.5724 152.049C72.6049 160.551 64.5526 169.675 63.8338 181.335C62.9865 190.677 67.5718 199.308 73.0191 206.398C71.9291 213.097 75.645 221.167 82.8328 221.734C88.2634 222.688 92.4523 218.412 95.9986 214.859C91.8036 209.063 88.6222 202.07 89.4776 194.655C90.3215 183.682 98.2165 173.333 108.808 170.822C118.228 168.213 128.456 172.143 134.846 179.468C148.061 167.29 161.33 155.168 174.601 143.055C168.393 135.293 165.816 124.202 169.855 114.756C173.399 105.159 182.824 98.3591 192.75 97.962C200.584 97.7826 208.076 101.467 213.48 107.173C217.794 103.312 223.362 99.6421 224.307 93.3532C225.896 87.3502 221.698 80.751 215.918 79.4138L215.911 79.4199ZM88.2189 144.661C82.7093 135.81 78.1082 125.653 78.6678 114.872C79.0962 105.303 84.1508 96.6469 90.6959 90.048L116.03 119.338C106.769 127.787 97.5959 136.353 88.2189 144.661ZM122.188 113.543C113.69 103.857 105.276 94.1075 96.9487 84.2651C103.765 78.0283 112.246 72.6533 121.666 72.7559C133.178 72.7618 143.558 78.8955 152.644 85.584C142.57 95.0051 132.309 104.19 122.189 113.536L122.188 113.543Z" fill="#7AABC4"/>
</svg>
