<svg width="286" height="280" viewBox="0 0 286 280" fill="none" xmlns="http://www.w3.org/2000/svg">
    <path d="M118.31 225.062C124.06 221.797 126.072 215.044 127.717 208.991C130.748 212.083 133.892 215.076 137.142 217.924C133.963 224.791 132.831 232.877 135.853 240.045C143.874 260.293 172.224 269.26 189.193 255.359C198.957 247.33 200.206 232.844 195.463 221.61C207.246 215.638 217.252 205.732 222.613 193.304C233.461 197.538 247.226 195.257 254.401 185.263C267.906 166.482 256.862 135.769 234.987 130.022C228.723 128.108 222.12 129.855 216.555 133.047C213.519 129.679 210.351 126.452 206.978 123.445C211.819 121.948 217.009 120.358 220.462 116.275C224.596 111.689 225.524 104.388 222.467 98.9452C218.648 91.3449 209.795 88.2199 201.917 88.6735C186.956 89.4826 172.25 95.0734 160.354 104.433C161.181 84.7086 150.429 64.9736 133.209 55.9965C136.049 47.9386 134.893 38.524 129.203 32.0368C121.042 21.5658 104.038 20.6562 95.0042 30.3909C88.4771 36.87 87.1565 47.0345 89.8127 55.6478C74.8351 62.7084 62.6725 75.4164 56.1249 90.9711C50.6732 90.5876 44.8763 89.5931 39.7771 92.3255C27.7924 97.5951 22.5054 114.121 29.1452 125.651C34.4896 136.515 48.3924 141.2 59.0787 136.201C68.4142 153.569 88.2684 163.449 107.291 161.721C99.5149 173.718 94.51 187.821 93.9139 202.28C93.5964 209.115 94.6384 216.469 99.1619 221.806C103.581 227.522 112.351 229.354 118.299 225.066L118.31 225.062ZM102.232 37.6857C107.765 31.9047 117.698 33.0772 122.387 39.3905C125.575 43.0358 125.516 48.1086 125.182 52.6843C116.378 50.2767 107.273 50.861 98.3939 52.3663C97.7041 47.2253 98.0928 41.2961 102.228 37.682L102.232 37.6857ZM216.274 149.171C219.013 142.187 227.13 137.606 234.257 140.039C249.099 144.604 256.093 165.451 247.591 178.666C243.571 184.599 235.402 186.691 229.078 183.665C217.068 177.827 211.304 161.706 216.274 149.171ZM111.057 85.111C112.215 80.8054 118.871 79.6525 120.886 83.8345C122.967 87.2236 120.736 92.2405 116.714 92.3404C112.957 92.957 109.797 88.6926 111.057 85.111ZM82.6429 115.692C83.2701 110.818 90.6751 110.087 92.6283 114.359C94.7276 117.751 92.1688 122.814 88.1238 122.515C84.5806 122.815 81.4583 119.28 82.6391 115.689L82.6429 115.692ZM100.315 136.731C96.53 128.435 98.3678 118.524 103.47 111.273C109.787 101.172 123.162 94.6461 134.461 99.5117C142.485 102.49 148.52 110.829 148.227 119.718C147.262 133.356 136.942 145.547 124.023 148.67C114.725 151.057 104.067 145.897 100.315 136.731ZM144.756 177.63C142.559 170.079 143.73 161.715 147.708 155.012C152.058 146.975 160.91 142.154 169.696 141.692C182.546 141.571 195.371 149.423 200.639 161.617C203.136 167.598 204.976 174.001 205.299 180.526C205.546 192.423 195.909 202.986 184.56 204.338C167.617 205.986 149.308 194.942 144.756 177.63ZM55.1238 127.835C51.1387 128.265 46.833 128.551 43.2594 126.309C34.9766 121.835 34.1259 108.049 41.8932 102.641C45.2115 100.148 49.4635 100.335 53.3524 100.668C51.9908 109.761 52.3181 119.037 55.1238 127.835ZM188.406 235.474C188.766 241.825 184.882 248.2 179.114 250.567C168.374 255.183 154.709 251.672 147.679 242.021C144.437 237.405 142.893 231.099 145.071 225.661C154.287 206.363 186.252 215.454 188.41 235.478L188.406 235.474Z" fill="#AD3831"/>
    <path d="M123.659 131.135C123.228 135.029 118.281 134.285 115.665 135.71C117.466 137.169 119.165 139.806 121.747 138.393C126.298 137.467 127.505 132.457 128.57 128.534C131.619 127.076 135.957 126.377 136.971 122.494C138.427 119.926 136.224 117.673 135.159 115.472C133.506 119.02 132.765 125.414 127.418 123.253C119.905 120.732 127.424 110.582 121.206 106.78C116.78 105.037 112.601 108.886 109.887 112.081C107.333 114.846 104.954 119.543 107.719 123.006C111.605 126.036 116.512 123.981 120.901 124.257C122.479 126.128 124.165 128.519 123.659 131.143L123.659 131.135Z" fill="#AD3831"/>
</svg>
