<svg width="298" height="266" viewBox="0 0 298 266" fill="none" xmlns="http://www.w3.org/2000/svg">
    <path d="M258.01 107.65C258.207 105.52 258.272 103.373 258.176 101.229C258.062 98.5835 257.676 95.846 256.246 93.6432C252.548 87.9184 245.049 90.8495 242.047 95.6664C240.364 98.3672 239.612 101.567 239.189 104.746C238.243 111.815 238.773 118.999 239.408 126.109C239.664 128.961 239.94 131.838 240.687 134.598C241.472 137.494 242.866 139.74 244.607 142.089C246.715 139.336 248.354 135.922 249.967 132.834C251.676 129.546 253.228 126.159 254.507 122.668C256.278 117.84 257.534 112.783 258.008 107.656L258.01 107.65Z" fill="#E3D5B7"/>
    <path d="M181.396 96.9417C178.836 95.8279 176.108 95.1504 173.319 95.0901C168.635 94.9907 162.472 94.6862 159.049 98.6414C157.841 100.038 157.163 101.821 156.561 103.584C155.468 106.786 154.559 110.059 153.844 113.368C169.371 114.902 184.923 116.203 200.487 117.271C197.218 111.551 193.608 105.914 188.691 101.621C186.52 99.7252 184.048 98.0978 181.396 96.9417Z" fill="#E3D5B7"/>
    <path d="M237.356 148.004C239.653 136.045 229.435 125.188 218.439 123.467C203.508 121.008 188.36 120.601 173.301 119.325C153.824 117.635 134.318 116.237 114.768 115.321C108.667 114.92 101.376 114.967 97.2732 109.422C89.9291 100.161 85.2695 88.6897 76.2726 80.8128C72.365 77.4922 66.8617 74.984 61.7948 76.7922C57.7985 78.286 56.4082 82.8874 55.311 86.6751C53.3482 94.5935 52.307 102.74 51.7984 110.898C55.2699 110.819 58.6022 110.87 61.7532 111.029C61.8428 111.036 61.9219 111.037 62.0166 111.047C64.3548 111.091 66.6933 111.279 68.9867 111.634C75.1341 112.375 80.1153 113.632 83.2671 115.323C87.3858 117.533 88.3423 120.405 88.427 122.427C88.5268 124.812 87.4541 126.822 85.5956 128.519C84.4228 130.057 82.7734 131.237 81.0008 131.9C72.3079 135.455 62.8941 136.237 53.7026 137.447C59.5125 148.407 69.8648 155.657 80.6134 160.816C89.7821 165.051 99.5515 169.322 109.585 170.096C116.833 163.557 122.085 154.777 130.158 149.221C136.972 146.839 144.37 147.211 151.466 147.353C163.726 148.42 176.507 148.302 187.991 153.452C192.118 155.003 196.577 160.185 193.233 164.627C186.199 172.396 177.242 178.018 168.95 184.244C187.787 185.256 208.444 189.391 225.705 179.211C237.028 173.525 235.437 158.811 237.348 148.006L237.356 148.004ZM126.775 142.455C125.083 143.181 123.071 143.203 120.954 142.067C115.831 139.319 116.429 133.239 119.576 130.011C120.712 128.794 122.213 127.959 123.964 127.838C129.528 126.741 133.943 134.04 131.015 138.856C130.182 140.679 128.583 141.893 126.775 142.455ZM156.477 143.546C154.084 146.283 150.59 146.185 147.984 144.493C147.007 143.901 146.26 143.185 145.72 142.39C145.709 142.384 145.704 142.368 145.702 142.359C145.187 141.591 144.856 140.75 144.694 139.877C144.629 139.623 144.557 139.373 144.527 139.104C143.706 134.444 147.941 129.741 152.496 130.134C158.7 130.659 162.128 139.76 156.482 143.548L156.477 143.546ZM171.789 145.791C163.473 141.33 170.222 128.067 178.522 132.521C186.822 136.974 180.089 150.245 171.789 145.791ZM193.92 148.359C185.604 143.897 192.353 130.635 200.653 135.088C208.953 139.541 202.22 152.812 193.92 148.359Z" fill="#E3D5B7"/>
    <path d="M239.543 167.249C242.677 165.949 245.575 163.866 247.443 160.971C249.311 158.075 250.052 154.322 248.979 151.024C247.958 147.899 245.003 144.351 242.143 142.898C240.806 146.359 240.928 151.177 240.547 154.904C240.414 156.214 240.255 166.947 239.533 167.243L239.543 167.249Z" fill="#E3D5B7"/>
    <path d="M226.829 214.76C227.097 216.579 227.594 218.351 228.488 219.931C229.914 222.454 232.529 224.431 235.367 224.354C237.28 224.306 239.092 223.343 240.522 222.032C244.103 218.749 245.395 213.568 245.857 208.66C246.477 202.025 245.911 195.342 244.747 188.802C243.69 182.84 242.729 174.891 239.899 169.578C235.542 174.769 232.627 183.517 230.341 189.935C227.887 196.831 226.298 204.116 226.552 211.493C226.586 212.579 226.668 213.676 226.832 214.755L226.829 214.76Z" fill="#E3D5B7"/>
    <path d="M190.855 160.662C188.411 157.196 184.24 156.217 180.491 155.06C168.289 151.98 155.632 151.514 143.127 151.377C138.114 151.545 132.181 151.221 128.573 155.528C120.151 164.46 112.323 173.977 103.836 182.854C100.769 186.2 97.2822 189.375 95.4039 193.667C94.3242 198.613 98.774 202.621 102.775 204.33C114.364 209.023 128.139 207.825 138.589 200.74C153.723 190.951 168.052 179.917 182.473 169.082C185.392 166.436 189.163 164.404 190.855 160.662Z" fill="#E3D5B7"/>
    <path d="M83.6291 122.634C83.8218 127.182 68.4386 131.552 49.2963 132.386C30.1355 133.232 14.4539 130.234 14.2664 125.688C14.0737 121.14 29.457 116.771 48.5992 115.936C67.7601 115.091 83.4417 118.089 83.6291 122.634Z" fill="#E3D5B7"/>
    <path d="M49.2963 132.386C30.1355 133.232 14.4539 130.234 14.2664 125.688C14.0737 121.14 29.457 116.771 48.5992 115.936C67.7601 115.091 83.4417 118.089 83.6291 122.634C83.8218 127.182 68.4386 131.552 49.2963 132.386Z" fill="#E3D5B7"/>
</svg>
