<svg width="242" height="239" viewBox="0 0 242 239" fill="none" xmlns="http://www.w3.org/2000/svg">
    <path d="M108.399 37.4754C114.329 47.9092 114.549 60.7007 112.013 72.2182C110.74 80.0912 106.89 87.9469 109.115 96.035C113.317 95.2851 119.056 95.4681 121.04 90.6951C128.164 72.8772 131.321 51.4118 122.639 33.535C117.643 22.9077 107.877 14.7915 96.4467 12.8652C97.0901 17.7059 97.664 22.5575 98.1175 27.4256C101.934 30.2941 106.066 33.081 108.394 37.4737L108.399 37.4754Z" fill="#AD3831"/>
    <path d="M86.3989 24.1741C89.1747 24.89 91.9698 25.5445 94.8012 26.1883C94.2963 21.9755 93.6523 17.7335 92.1212 13.7798C89.9126 17.0601 88.105 20.5862 86.3973 24.1793L86.3989 24.1741Z" fill="#AD3831"/>
    <path d="M157.329 161.707C156.268 158.253 159.085 155.802 160.871 153.325C165.082 147.985 167.686 141.287 168.109 134.426C168.154 127.09 163.929 120.843 159.62 115.387C156.547 117.376 153.082 118.477 149.74 119.811C145.604 123.193 142.908 128.521 137.753 130.526C129.226 134.437 118.546 129.641 114.922 120.965C112.127 115.225 113.169 108.581 111.533 102.609C107.753 99.2779 103.946 95.0623 104.807 89.4881C106.244 78.1096 111.01 67.1896 110.028 55.5184C109.695 43.7742 102.723 30.7013 90.5977 28.6972C81.2969 26.8149 72.9742 32.6697 65.0217 36.6582C67.4382 47.1713 69.0747 57.9291 68.8331 68.7711C71.2234 69.2971 73.6901 69.6846 75.9876 70.6997C78.1687 74.8236 75.2359 79.3105 74.2524 83.3808C69.4501 95.4867 67.6163 109.22 71.5358 121.864C61.6195 131.14 51.5243 140.216 41.7918 149.678C45.1342 154.989 49.7779 159.267 53.3569 164.419C63.5296 158.815 72.9597 151.881 82.7198 145.541C85.1397 144.218 87.7939 140.831 90.6966 143.002C102.564 149.531 115.728 152.71 128.703 155.809C133.429 169.353 138.752 182.671 143.528 196.214C150.043 195.253 156.49 193.93 162.971 192.782C161.174 182.395 159.01 172.095 157.335 161.703L157.329 161.707ZM79.6103 50.903C73.6314 48.923 76.6299 39.3838 82.5988 41.3605C88.5677 43.3373 85.5793 52.8798 79.6103 50.903Z" fill="#AD3831"/>
    <path d="M61.4728 38.6613C57.4459 40.3789 53.3717 42.335 50.3797 45.6779C45.8938 50.3172 45.2672 58.6869 49.7728 63.5466C53.704 67.8545 59.8094 68.5882 65.2747 68.6466C65.3333 58.5293 64.4401 48.3455 61.4728 38.6613ZM54.4602 55.8777C51.8864 55.0253 53.1772 50.9212 55.746 51.7719C58.3148 52.6227 57.029 56.7284 54.4602 55.8777Z" fill="#AD3831"/>
    <path d="M118.537 120.246C121.909 127.708 132.41 130.932 138.904 125.828C142.978 122.945 144.898 116.953 150.191 116.09C153.645 115.815 155.604 113.068 157.147 110.195C144.916 105.263 132.316 101.355 119.818 97.2783C117.722 96.1437 114.766 98.1085 115.485 100.55C116.067 107.15 115.489 114.169 118.532 120.245L118.537 120.246Z" fill="#AD3831"/>
    <path d="M199.291 131.243C193.531 119.86 179.2 116.357 167.943 120.246C169.176 123.694 170.056 127.29 171.261 130.758C172.978 133.293 176.983 133.314 178.167 136.463C180.668 142.897 178.53 150.059 180.436 156.64C182.09 163.483 188.501 168.188 195.054 169.194C199.338 169.777 203.445 168.103 207.364 166.502C200.224 156.018 204.789 142.319 199.286 131.241L199.291 131.243Z" fill="#AD3831"/>
    <path d="M188.39 186.96C185.157 187.652 182.256 189.301 179.274 190.647C168.965 195.404 157.853 197.956 146.714 199.556C106.127 204.658 63.8572 185.919 39.1022 152.554C34.4109 146.814 31.1256 140.093 27.3365 133.769C25.906 130.951 22.688 129.507 19.7288 130.148C15.2605 130.731 12.4439 136.251 14.9185 140.279C29.8404 171.128 57.0944 195.144 88.5474 206.753C120.732 218.937 157.59 217.374 188.711 202.57C191.477 201.124 195.002 199.693 195.682 196.189C197.07 191.614 192.951 186.628 188.39 186.96Z" fill="#AD3831"/>
</svg>
