<svg width="190" height="179" viewBox="0 0 190 179" fill="none" xmlns="http://www.w3.org/2000/svg">
    <path d="M152.673 52.8122C149.972 56.971 147.442 61.433 143.159 64.123C138.903 67.6854 133.246 66.3025 128.237 66.6922C118.415 66.8791 108.802 70.5396 100.921 76.5079C97.9582 78.692 95.6462 81.6671 92.6303 83.747C90.8263 84.8707 88.986 83.267 87.6415 82.1763C87.573 79.2071 88.2245 76.2966 88.3616 73.3396C88.8206 64.1219 85.8186 54.561 79.4788 47.8992C71.6496 39.3191 58.6497 36.4008 47.9986 40.6229C39.7671 43.9419 33.0421 51.196 30.401 59.8946C28.0571 67.1441 29.3381 75.0885 32.5189 81.8522C38.9765 82.245 45.6113 84.55 50.4735 89.0088C53.7553 92.8456 50.7322 97.7596 47.4446 100.256C49.6205 101.135 51.8214 101.989 54.023 102.866C52.0259 109.386 50.3461 116.22 51.2962 123.1C52.4283 134.9 59.2782 146.031 69.6024 151.512C80.5178 157.302 93.5616 156.692 105.114 153.39C119.736 148.964 133.666 142.401 146.85 134.586C155.011 129.678 162.715 123.295 167.151 114.535C177.001 95.7981 172.051 71.6595 159.136 55.8406C157.469 54.1818 155.231 51.2648 152.675 52.8067L152.673 52.8122ZM50.5317 70.4588C50.8012 74.0745 45.9327 76.4985 43.368 73.9311C41.1043 72.2122 41.3074 68.4833 43.5758 66.8837C46.1122 64.4849 50.9768 66.8997 50.528 70.4605L50.5317 70.4588ZM145.79 99.2234C149.904 103.641 147.879 110.105 144.903 114.516C138.214 124.31 127.352 130.359 116.249 133.233C107.83 135.221 97.7331 135.056 91.1906 128.473C84.3982 122.117 83.3296 109.903 90.0266 103.083C91.9021 101.263 94.9427 98.0128 97.479 100.639C95.1023 103.057 91.8806 104.667 90.2341 107.771C87.0959 113.571 88.1971 121.533 93.0481 125.996C96.144 129.253 100.464 131.063 104.881 131.257C117.448 131.998 129.824 126.217 138.809 117.376C142.538 113.507 146.026 108.264 144.884 102.528C142.965 102.426 141.062 102.381 139.169 102.308C144.936 97.3108 147.307 87.6901 141.558 81.6906C139.036 85.6538 136.519 90.032 132.06 91.9361C125.204 95.1686 117.236 96.3253 109.789 95.1301C110.174 94.6351 110.935 93.6674 111.32 93.1724C117.896 92.3022 124.864 92.7206 130.902 89.3456C135.405 87.5132 137.634 82.867 140.434 79.1488C142.331 79.783 144.729 80.0258 145.799 82.0562C148.802 87.2698 148.045 93.8784 145.79 99.2234Z" fill="#7AABC4"/>
    <path d="M48.9458 92.0255C45.0196 87.8072 38.9619 85.4562 33.4266 85.1681C28.1508 89.9705 21.9102 93.57 16.8279 98.5642C23.6029 103.371 32.4291 101.555 39.8579 99.6075C43.4011 98.2598 48.8903 96.7962 48.9442 92.0217L48.9458 92.0255Z" fill="#7AABC4"/>
</svg>
