<svg width="1440" height="880" viewBox="0 0 1440 880" fill="none" xmlns="http://www.w3.org/2000/svg">
    <path d="M1438 2V159.67C1438 556.21 1116.54 877.671 720 877.671C323.46 877.671 2 556.21 2 159.67V2H1438Z" fill="black" stroke="#E3D5B7" stroke-width="4"/>
    <path d="M1096.16 2V83.8613C1096.16 291.607 927.747 460.018 720.001 460.019C512.255 460.019 343.844 291.607 343.844 83.8613V2H1096.16Z" fill="black" stroke="#E3D5B7" stroke-width="4"/>
    <path d="M720 460.063V877.773" stroke="#E3D5B7" stroke-width="4"/>
    <path d="M662.77 324.509L771.37 148.709L786.97 134.009L769.57 136.709H690.07L694.57 114.509H813.67L812.17 122.609L687.37 324.509H662.77Z" fill="#E3D5B7"/>
    <path d="M282.214 589.464C282.214 575.664 286.714 562.964 295.714 551.364C304.914 539.564 317.814 530.164 334.414 523.164C331.214 520.564 328.114 517.964 325.114 515.364C322.314 512.564 319.714 509.464 317.314 506.064C315.114 502.464 313.314 498.364 311.914 493.764C310.514 489.164 309.814 483.564 309.814 476.964C309.814 467.764 311.514 459.664 314.914 452.664C318.514 445.464 323.214 439.464 329.014 434.664C335.014 429.664 341.914 425.964 349.714 423.564C357.514 420.964 365.614 419.664 374.014 419.664C380.614 419.664 386.814 420.664 392.614 422.664C398.414 424.464 403.414 427.264 407.614 431.064C411.814 434.664 415.114 439.264 417.514 444.864C419.914 450.264 421.114 456.564 421.114 463.764C421.114 469.764 419.914 475.764 417.514 481.764C415.314 487.564 412.114 493.064 407.914 498.264C403.914 503.464 399.114 508.364 393.514 512.964C388.114 517.364 382.114 521.364 375.514 524.964C379.114 527.964 382.514 531.164 385.714 534.564C389.114 537.764 392.014 541.364 394.414 545.364C396.814 549.164 398.714 553.464 400.114 558.264C401.714 562.864 402.514 568.064 402.514 573.864C402.514 582.264 401.114 590.264 398.314 597.864C395.714 605.464 391.514 612.164 385.714 617.964C380.114 623.764 372.814 628.364 363.814 631.764C355.014 635.164 344.314 636.864 331.714 636.864C323.514 636.864 316.314 635.664 310.114 633.264C304.114 630.664 299.014 627.264 294.814 623.064C290.614 618.864 287.414 613.864 285.214 608.064C283.214 602.264 282.214 596.064 282.214 589.464ZM379.114 578.364C379.114 572.764 378.314 567.864 376.714 563.664C375.314 559.264 373.414 555.364 371.014 551.964C368.614 548.364 365.514 545.064 361.714 542.064C357.914 539.064 353.814 536.164 349.414 533.364C336.214 539.564 325.614 547.164 317.614 556.164C309.614 565.164 305.614 575.364 305.614 586.764C305.614 590.364 306.114 593.964 307.114 597.564C308.114 601.164 309.714 604.364 311.914 607.164C314.314 609.764 317.514 611.864 321.514 613.464C325.714 615.064 330.814 615.864 336.814 615.864C342.414 615.864 347.714 615.164 352.714 613.764C357.914 612.164 362.514 609.764 366.514 606.564C370.514 603.364 373.614 599.464 375.814 594.864C378.014 590.064 379.114 584.564 379.114 578.364ZM333.214 475.764C333.214 485.364 335.614 493.164 340.414 499.164C345.214 504.964 351.814 510.464 360.214 515.664C365.214 512.464 370.014 508.964 374.614 505.164C379.214 501.164 383.114 497.164 386.314 493.164C389.714 488.964 392.414 484.764 394.414 480.564C396.614 476.364 397.714 472.164 397.714 467.964C397.714 458.564 395.414 451.664 390.814 447.264C386.214 442.864 379.714 440.664 371.314 440.664C366.114 440.664 361.214 441.464 356.614 443.064C352.014 444.464 348.014 446.664 344.614 449.664C341.214 452.664 338.414 456.364 336.214 460.764C334.214 465.164 333.214 470.164 333.214 475.764Z" fill="#E3D5B7"/>
    <path d="M1052.03 493.164C1052.03 481.564 1053.83 471.264 1057.43 462.264C1061.03 453.064 1066.03 445.364 1072.43 439.164C1079.03 432.764 1086.63 427.964 1095.23 424.764C1104.03 421.364 1113.53 419.664 1123.73 419.664C1131.13 419.664 1138.13 421.064 1144.73 423.864C1151.33 426.464 1157.13 430.464 1162.13 435.864C1167.13 441.264 1171.03 447.964 1173.83 455.964C1176.63 463.764 1178.03 472.864 1178.03 483.264C1178.03 506.264 1173.93 526.964 1165.73 545.364C1157.73 563.564 1147.43 579.264 1134.83 592.464C1122.23 605.464 1108.33 615.764 1093.13 623.364C1077.93 630.964 1063.33 635.464 1049.33 636.864L1048.13 617.664C1060.73 614.864 1072.33 610.764 1082.93 605.364C1093.73 599.964 1103.43 593.564 1112.03 586.164C1120.63 578.564 1128.03 570.164 1134.23 560.964C1140.43 551.564 1145.33 541.564 1148.93 530.964C1142.53 536.564 1135.53 540.864 1127.93 543.864C1120.33 546.664 1110.73 548.064 1099.13 548.064C1093.73 548.064 1088.23 547.064 1082.63 545.064C1077.23 543.064 1072.23 539.864 1067.63 535.464C1063.03 531.064 1059.23 525.364 1056.23 518.364C1053.43 511.364 1052.03 502.964 1052.03 493.164ZM1075.43 490.464C1075.43 497.664 1076.53 503.664 1078.73 508.464C1080.93 513.264 1083.53 517.064 1086.53 519.864C1089.73 522.664 1093.13 524.664 1096.73 525.864C1100.53 527.064 1104.23 527.664 1107.83 527.664C1117.03 527.664 1125.73 525.864 1133.93 522.264C1142.33 518.664 1148.73 514.264 1153.13 509.064C1153.33 507.864 1153.53 506.164 1153.73 503.964C1154.13 501.764 1154.43 499.564 1154.63 497.364C1155.03 495.164 1155.23 493.064 1155.23 491.064C1155.43 488.864 1155.53 487.264 1155.53 486.264C1155.53 472.264 1152.53 461.064 1146.53 452.664C1140.53 444.264 1131.63 440.064 1119.83 440.064C1114.03 440.064 1108.43 441.064 1103.03 443.064C1097.83 445.064 1093.23 448.164 1089.23 452.364C1085.23 456.564 1081.93 461.864 1079.33 468.264C1076.73 474.464 1075.43 481.864 1075.43 490.464Z" fill="#E3D5B7"/>
</svg>
