<svg width="1239" height="1222" viewBox="0 0 1239 1222" fill="none" xmlns="http://www.w3.org/2000/svg">
    <path d="M721.43 663.019C685.225 723.371 606.171 744.679 544.858 710.611" stroke="url(#paint0_linear_42_664)" stroke-width="3.94885"/>
    <path d="M518.24 696.373C465.658 645.461 465.658 562.917 518.24 512.005" stroke="url(#paint1_linear_42_664)" stroke-width="4.1134"/>
    <path d="M539.304 488.694C605.832 451.728 691.612 474.849 730.897 540.335" stroke="url(#paint2_linear_42_664)" stroke-width="4.28478"/>
    <path d="M747.224 565.906C768.764 641.983 723.572 719.554 646.284 739.165" stroke="url(#paint3_linear_42_664)" stroke-width="4.46331"/>
    <path d="M612.808 749.077C528.757 749.077 460.62 683.105 460.62 601.725" stroke="url(#paint4_linear_42_664)" stroke-width="4.64928"/>
    <path d="M459.023 568.799C482.388 486.248 569.315 436.57 653.18 457.842" stroke="url(#paint5_linear_42_664)" stroke-width="4.843"/>
    <path d="M690.265 466.687C768.596 510.207 794.603 607.991 748.353 685.094" stroke="url(#paint6_linear_42_664)" stroke-width="5.04478"/>
    <path d="M731.908 718.028C664.732 783.07 555.819 783.07 488.643 718.028" stroke="url(#paint7_linear_42_664)" stroke-width="5.25499"/>
    <path d="M460.443 691.993C410.262 608.328 438.486 502.226 523.484 455.008" stroke="url(#paint8_linear_42_664)" stroke-width="5.47396"/>
    <path d="M559.753 431.887C658.494 406.842 760.84 465.331 788.349 562.525" stroke="url(#paint9_linear_42_664)" stroke-width="5.70204"/>
    <path d="M801.462 601.042C801.462 705.008 714.415 789.289 607.037 789.289" stroke="url(#paint10_linear_42_664)" stroke-width="5.93961"/>
    <path d="M560.359 791.312C453.222 764.121 390.583 656.588 420.45 551.13" stroke="url(#paint11_linear_42_664)" stroke-width="6.1871"/>
    <path d="M428.867 508.156C487.957 409.656 616.981 374.88 717.049 430.481" stroke="url(#paint12_linear_42_664)" stroke-width="6.4449"/>
    <path d="M760.48 453.738C846.299 536.83 846.299 671.55 760.48 754.643" stroke="url(#paint13_linear_42_664)" stroke-width="6.71342"/>
    <path d="M726.124 792.665C617.543 852.997 477.543 815.262 413.426 708.382" stroke="url(#paint14_linear_42_664)" stroke-width="6.99316"/>
    <path d="M386.794 666.637C351.619 542.476 425.36 415.864 551.497 383.841" stroke="url(#paint15_linear_42_664)" stroke-width="7.28454"/>
    <path d="M606.149 367.699C743.328 367.699 854.534 475.372 854.534 608.192" stroke="url(#paint16_linear_42_664)" stroke-width="7.58807"/>
    <path d="M857.146 661.938C819.012 796.67 677.139 877.747 540.263 843.03" stroke="url(#paint17_linear_42_664)" stroke-width="7.90423"/>
    <path d="M479.748 828.572C351.904 757.543 309.459 597.95 384.944 472.109" stroke="url(#paint18_linear_42_664)" stroke-width="8.23359"/>
    <path d="M411.759 418.381C521.397 312.227 699.154 312.227 808.791 418.381" stroke="url(#paint19_linear_42_664)" stroke-width="8.57664"/>
    <path d="M854.813 460.868C936.72 597.414 890.663 770.584 751.944 847.655" stroke="url(#paint20_linear_42_664)" stroke-width="8.934"/>
    <path d="M692.714 885.396C531.56 926.271 364.521 830.811 319.624 672.181" stroke="url(#paint21_linear_42_664)" stroke-width="9.30626"/>
    <path d="M298.256 609.305C298.256 439.622 440.325 302.067 615.576 302.067" stroke="url(#paint22_linear_42_664)" stroke-width="9.69401"/>
    <path d="M691.765 298.745C866.618 343.139 968.833 518.653 920.07 690.765" stroke="url(#paint23_linear_42_664)" stroke-width="10.0979"/>
    <path d="M906.369 760.911C809.928 921.673 599.349 978.431 436.027 887.683" stroke="url(#paint24_linear_42_664)" stroke-width="10.5187"/>
    <path d="M365.109 849.744C225.044 714.128 225.044 494.252 365.109 358.637" stroke="url(#paint25_linear_42_664)" stroke-width="10.957"/>
    <path d="M421.208 296.565C598.423 198.098 826.916 259.684 931.562 434.122" stroke="url(#paint26_linear_42_664)" stroke-width="11.4135"/>
    <path d="M975.048 502.227C1032.44 704.874 912.073 911.509 706.201 963.759" stroke="url(#paint27_linear_42_664)" stroke-width="11.8891"/>
    <path d="M617.042 990.152C393.153 990.152 211.655 814.421 211.655 597.645" stroke="url(#paint28_linear_42_664)" stroke-width="12.3845"/>
    <path d="M207.38 509.936C269.618 290.04 501.168 157.713 724.563 214.375" stroke="url(#paint29_linear_42_664)" stroke-width="12.9005"/>
    <path d="M823.337 237.957C1031.99 353.882 1101.27 614.353 978.067 819.737" stroke="url(#paint30_linear_42_664)" stroke-width="13.438"/>
    <path d="M934.272 907.439C755.334 1080.69 465.217 1080.69 286.279 907.439" stroke="url(#paint31_linear_42_664)" stroke-width="13.9979"/>
    <path d="M475.733 145.224C738.753 78.5118 1011.37 234.31 1084.65 493.21" stroke="url(#paint32_linear_42_664)" stroke-width="15.1887"/>
    <path d="M518.147 1096.55C235.504 1012.01 78.7708 718.673 168.072 441.36" stroke="url(#paint33_linear_42_664)" stroke-width="16.4808"/>
    <path d="M34.2003 628.91C37.7049 628.709 41.0655 628.994 44.2819 629.764C47.4984 630.535 50.3378 631.729 52.8003 633.345C55.303 634.998 57.3111 637.023 58.8247 639.42C60.3785 641.854 61.243 644.594 61.418 647.641C61.523 649.47 61.3347 651.181 60.853 652.776C60.4094 654.369 59.6098 655.752 58.4543 656.927C57.339 658.137 55.8465 659.102 53.9769 659.821C52.1094 660.578 49.8043 661.035 47.0616 661.193C43.4808 661.399 40.0631 661.117 36.8086 660.348C33.5921 659.578 30.7347 658.404 28.2364 656.828C25.738 655.251 23.7152 653.304 22.1679 650.985C20.6609 648.702 19.8253 646.132 19.6613 643.275C19.4031 638.78 20.5046 635.334 22.9659 632.938C25.4653 630.539 29.2101 629.197 34.2003 628.91ZM34.5331 633.707C30.9524 633.912 28.2142 634.815 26.3187 636.414C24.4612 638.012 23.6156 640.258 23.7819 643.153C23.9044 645.286 24.6065 647.195 25.888 648.879C27.1717 650.602 28.8603 652.053 30.9536 653.232C33.0469 654.411 35.4466 655.267 38.1525 655.8C40.8606 656.37 43.7003 656.57 46.6716 656.4C48.881 656.273 50.6953 655.92 52.1144 655.342C53.5335 654.763 54.619 654.032 55.3708 653.148C56.1629 652.3 56.6807 651.334 56.9242 650.25C57.208 649.202 57.3192 648.144 57.258 647.078C57.1333 644.906 56.41 642.96 55.0882 641.24C53.8045 639.518 52.1159 638.067 50.0226 636.887C47.9314 635.746 45.5318 634.89 42.8237 634.32C40.1537 633.747 37.3902 633.543 34.5331 633.707ZM41.4919 674.326L41.1509 671.427L22.2792 669.728L21.7442 665.181L62.5236 668.912L63.0586 673.46L44.0599 671.661L45.1231 673.841L64.7772 688.068L65.4392 693.696L46.2466 679.472L44.1769 677.064L42.164 679.549L24.8605 691.669L24.2519 686.497L41.4919 674.326ZM46.8187 708.683L41.8573 709.887L41.8962 710.113L47.4548 711.361L70.0918 719.364L70.9478 724.327L42.7074 713.806C39.7718 712.725 37.3043 711.776 35.3049 710.959C33.3055 710.142 31.6763 709.339 30.4173 708.55C29.1648 707.798 28.213 706.994 27.5621 706.138C26.9552 705.313 26.5513 704.318 26.3503 703.153C26.1428 701.949 26.0902 700.971 26.1926 700.218C26.3326 699.458 26.5265 698.786 26.7741 698.201L31.0452 699.729C30.7729 700.396 30.6005 700.968 30.5279 701.445C30.4994 701.953 30.5305 702.47 30.6213 702.997C30.7899 703.975 31.5757 704.826 32.9786 705.552C34.3816 706.278 36.1359 707.021 38.2416 707.781L65.9093 695.111L66.7361 699.905L46.8187 708.683ZM54.8421 749.004L50.7259 731.275L31.9624 731.695L30.9269 727.235L71.8687 726.425L72.9042 730.885L55.0716 731.265L59.1749 748.938L77.0075 748.558L78.043 753.018L37.1013 753.828L36.0657 749.368L54.8421 749.004ZM73.2983 782.778L78.1335 782.761L78.0841 782.596L72.5085 780.744L40.1722 765.593L39.3329 762.797L80.1571 759.445L81.4737 763.83L53.7185 766.127L49.141 766.008L49.2068 766.227L54.6728 768.112L87.2996 783.236L88.1389 786.031L47.3312 789.438L46.0146 785.053L73.2983 782.778ZM60.3323 821.378C59.0628 820.461 58.0179 819.38 57.1977 818.136C56.3775 816.892 55.6401 815.374 54.9853 813.582C54.2126 811.468 53.9014 809.449 54.0516 807.525C54.2376 805.589 54.8021 803.798 55.7449 802.154C56.7235 800.496 58.0333 799.022 59.6743 797.732C61.3153 796.442 63.2468 795.391 65.4687 794.579C69.5185 793.099 73.2288 792.413 76.5998 792.522C80.0065 792.618 83.0311 793.28 85.6736 794.508C88.316 795.736 90.5419 797.38 92.3511 799.441C94.1734 801.538 95.5363 803.822 96.44 806.295C97.1864 808.338 97.652 810.057 97.8368 811.452C98.0215 812.847 98.0673 814.028 97.9743 814.997L93.3428 814.495C93.4751 813.635 93.4507 812.567 93.2694 811.293C93.137 810.041 92.7958 808.663 92.2458 807.158C91.5124 805.151 90.3573 803.379 88.7803 801.843C87.2523 800.329 85.4087 799.175 83.2494 798.38C81.0901 797.584 78.6771 797.207 76.0106 797.247C73.344 797.287 70.5414 797.844 67.6026 798.918C65.8824 799.546 64.3661 800.344 63.0539 801.311C61.7906 802.301 60.772 803.404 59.998 804.621C59.273 805.861 58.8285 807.202 58.6645 808.643C58.5494 810.107 58.78 811.627 59.3562 813.204C59.9717 814.888 60.6617 816.221 61.426 817.201C62.2262 818.168 63.0409 819.007 63.87 819.72L60.3323 821.378ZM101.09 819.584L102.879 823.799L87.2732 826.877C87.3829 827.038 87.5298 827.287 87.714 827.623C87.9482 827.98 88.1723 828.361 88.3863 828.768C88.6503 829.195 88.8866 829.654 89.0953 830.146C89.3391 830.622 89.5429 831.054 89.7069 831.44C90.3329 832.916 90.7535 834.395 90.9686 835.879C91.1837 837.363 91.121 838.778 90.7805 840.124C90.4751 841.456 89.852 842.674 88.9112 843.778C87.9703 844.882 86.6393 845.799 84.9182 846.529C82.5297 847.542 80.2785 848 78.1645 847.903C76.0506 847.805 74.0936 847.247 72.2936 846.228C70.5436 845.23 68.9628 843.849 67.5513 842.085C66.1748 840.307 64.9947 838.258 64.011 835.94C63.8173 835.484 63.5889 834.897 63.3259 834.179C63.0427 833.512 62.735 832.689 62.4029 831.711C62.1548 831.029 61.927 830.296 61.7193 829.514C61.5266 828.767 61.3839 828.04 61.2913 827.333L101.09 819.584ZM68.2293 835.332C68.8404 836.772 69.6047 838.085 70.5224 839.27C71.4751 840.441 72.554 841.372 73.759 842.062C74.9991 842.738 76.3429 843.121 77.7906 843.212C79.2882 843.322 80.8976 843.012 82.6187 842.282C84.7262 841.388 85.9661 840.012 86.3385 838.155C86.7258 836.332 86.4276 834.262 85.4439 831.944C85.3247 831.663 85.1506 831.301 84.9217 830.86C84.7077 830.453 84.4863 830.029 84.2574 829.587C84.0285 829.145 83.797 828.746 83.5628 828.39C83.3286 828.033 83.1567 827.775 83.047 827.614L66.7121 830.877C66.7856 831.343 66.9586 831.995 67.2312 832.833C67.5389 833.656 67.8716 834.489 68.2293 835.332ZM120.24 879.007C118.919 879.692 117.612 880.113 116.317 880.268C115.022 880.424 113.775 880.34 112.576 880.017C111.376 879.693 110.259 879.155 109.224 878.402C108.24 877.666 107.365 876.766 106.598 875.702L106.395 875.808C106.612 876.641 106.693 877.501 106.638 878.39C106.617 879.26 106.45 880.099 106.138 880.906C105.826 881.712 105.359 882.47 104.738 883.179C104.151 883.87 103.4 884.453 102.486 884.928C100.115 886.157 97.9043 886.702 95.8543 886.562C93.8558 886.438 92.0215 885.885 90.3516 884.903C88.6992 883.955 87.2211 882.68 85.9174 881.078C84.6652 879.492 83.5911 877.835 82.6951 876.108C82.414 875.566 82.0714 874.906 81.6673 874.127C81.2808 873.381 80.814 872.398 80.2669 871.178C79.416 869.04 78.9171 867.623 78.7703 866.925L117.624 856.186C118.494 857.368 119.41 858.719 120.372 860.241C121.35 861.797 122.323 863.506 123.289 865.369C123.939 866.622 124.393 867.912 124.652 869.24C124.945 870.549 124.989 871.795 124.784 872.975C124.597 874.19 124.128 875.314 123.375 876.349C122.64 877.418 121.595 878.304 120.24 879.007ZM86.9329 875.328C87.5478 876.514 88.2894 877.612 89.1577 878.623C90.0598 879.617 91.0529 880.413 92.137 881.011C93.221 881.609 94.3947 881.925 95.658 881.957C96.9389 882.023 98.2907 881.688 99.7133 880.95C100.763 880.405 101.495 879.703 101.909 878.844C102.357 877.967 102.573 877.016 102.558 875.993C102.543 874.969 102.331 873.897 101.922 872.777C101.564 871.673 101.113 870.596 100.568 869.546L98.7234 865.989L84.5743 869.911C84.6119 870.149 84.7192 870.48 84.8962 870.904C85.0907 871.362 85.294 871.837 85.5061 872.329C85.7357 872.855 85.9654 873.38 86.195 873.906C86.4761 874.448 86.7221 874.922 86.9329 875.328ZM103.944 867.601C104.243 868.177 104.594 868.854 104.998 869.634C105.436 870.395 105.829 871.029 106.178 871.536C106.752 872.227 107.419 872.934 108.181 873.657C108.942 874.379 109.779 874.955 110.689 875.386C111.652 875.832 112.671 876.056 113.746 876.057C114.872 876.075 116.079 875.749 117.366 875.082C118.315 874.59 119.015 874.033 119.466 873.412C119.969 872.808 120.258 872.121 120.332 871.352C120.457 870.599 120.402 869.789 120.168 868.922C119.933 868.055 119.57 867.148 119.078 866.199C118.515 865.115 117.955 864.117 117.395 863.204C116.869 862.273 116.432 861.597 116.085 861.175L102.547 864.908L103.944 867.601ZM142.393 923.431L148.413 921.693L148.29 921.5L141.934 921.755L119.298 919.91L118.559 918.752L130.261 903.472L134.43 899.792L134.307 899.599L129.044 902.416L103.243 912.098L100.902 908.432L139.259 894.06L140.953 896.713L127.687 914.011L124.386 917.137L124.417 917.185L129.693 916.94L155.275 919.145L157.462 922.57L119.104 936.942L116.64 933.083L142.393 923.431ZM162.961 952.045L167.507 950.396L167.405 950.258L161.531 950.398L125.978 947.053L124.244 944.705L161.54 927.766L164.26 931.45L138.91 942.983L134.56 944.415L134.696 944.599L140.478 944.528L176.295 947.749L178.029 950.097L140.767 967.081L138.047 963.398L162.961 952.045ZM182.313 955.685C183.501 956.583 184.65 957.614 185.76 958.776C186.869 959.938 187.923 961.121 188.92 962.327C190.038 963.68 190.925 965.051 191.579 966.441C192.258 967.86 192.626 969.264 192.684 970.651C192.742 972.039 192.452 973.394 191.811 974.715C191.225 976.042 190.226 977.289 188.815 978.456C186.58 980.304 184.372 981.436 182.192 981.853C180.036 982.299 177.955 982.238 175.949 981.668C173.997 981.104 172.149 980.157 170.405 978.826C168.661 977.496 167.096 975.992 165.71 974.316C165.588 974.169 165.394 973.934 165.126 973.611C164.883 973.317 164.616 972.993 164.324 972.64C164.062 972.263 163.811 971.901 163.573 971.553C163.335 971.205 163.17 970.945 163.078 970.774L149.303 978.006L146.385 974.478L182.313 955.685ZM185.124 964.203C184.565 963.527 183.988 962.89 183.394 962.292C182.854 961.698 182.37 961.232 181.941 960.894L166.881 968.817C166.92 968.983 167.034 969.211 167.223 969.5C167.466 969.794 167.695 970.1 167.909 970.419C168.147 970.766 168.387 971.087 168.63 971.381C168.874 971.675 169.056 971.896 169.178 972.043C170.223 973.307 171.365 974.418 172.602 975.376C173.839 976.333 175.146 976.985 176.522 977.332C177.923 977.709 179.357 977.736 180.824 977.414C182.315 977.122 183.84 976.332 185.398 975.043C186.457 974.167 187.178 973.274 187.563 972.362C187.947 971.449 188.061 970.539 187.903 969.629C187.799 968.725 187.492 967.815 186.982 966.9C186.473 965.984 185.853 965.086 185.124 964.203ZM188.241 1032.15L186.054 1029.88L191.881 1025.29L173.351 1006.1L166.371 1009.5L164.224 1007.28L174.251 1000.94L176.915 1003.7C177.482 1003.68 178.645 1003.51 180.404 1003.19C182.164 1002.87 184.497 1002.18 187.402 1001.13C190.335 1000.04 193.83 998.471 197.887 996.41C201.97 994.376 206.591 991.636 211.751 988.19L214.733 991.278L225.867 1002.8L194.808 1022.22L198.307 1025.84L188.241 1032.15ZM191.667 1018.97L219.043 1001.84L211.09 993.603C203.781 998.064 197.598 1001.36 192.542 1003.48C187.513 1005.63 183.497 1006.94 180.493 1007.4L191.667 1018.97ZM232.534 1008.94L247.68 1023L244.17 1025.52L232.296 1014.5L221.326 1022.2L232.192 1032.28L228.682 1034.8L217.815 1024.72L205.898 1033.1L217.981 1044.32L214.429 1046.8L202.346 1035.59L199.032 1032.51L232.534 1008.94ZM268.175 1045.63L259.12 1037.99L230.243 1060.5L226.743 1057.55L255.62 1035.03L246.652 1027.47L250.039 1024.78L271.563 1042.94L268.175 1045.63ZM262.685 1083.95C261.121 1083.86 259.659 1083.51 258.298 1082.9C256.937 1082.3 255.498 1081.41 253.982 1080.26C252.192 1078.89 250.843 1077.36 249.934 1075.65C249.048 1073.92 248.56 1072.11 248.469 1070.22C248.402 1068.29 248.712 1066.34 249.4 1064.37C250.089 1062.4 251.15 1060.48 252.586 1058.6C255.202 1055.17 257.96 1052.59 260.859 1050.87C263.782 1049.12 266.687 1048.05 269.575 1047.66C272.463 1047.27 275.224 1047.46 277.858 1048.22C280.522 1049.01 282.901 1050.2 284.994 1051.8C286.722 1053.12 288.04 1054.31 288.947 1055.39C289.853 1056.47 290.528 1057.44 290.971 1058.3L286.798 1060.38C286.446 1059.58 285.851 1058.69 285.012 1057.72C284.227 1056.73 283.197 1055.75 281.923 1054.78C280.225 1053.49 278.298 1052.61 276.142 1052.17C274.039 1051.72 271.864 1051.74 269.616 1052.23C267.368 1052.72 265.132 1053.7 262.906 1055.17C260.68 1056.64 258.618 1058.62 256.72 1061.1C255.609 1062.56 254.76 1064.05 254.175 1065.57C253.643 1067.08 253.379 1068.56 253.382 1070.01C253.438 1071.44 253.785 1072.81 254.423 1074.11C255.114 1075.41 256.127 1076.56 257.461 1077.58C258.887 1078.67 260.186 1079.42 261.357 1079.84C262.552 1080.22 263.691 1080.49 264.773 1080.64L262.685 1083.95ZM286.333 1079.87L283.922 1078.23L270.258 1091.35L266.475 1088.77L296.048 1060.45L299.83 1063.03L286.007 1076.19L288.35 1076.81L311.982 1071.32L316.663 1074.51L293.337 1079.66L290.162 1079.64L290.716 1082.79L288.51 1103.8L284.207 1100.87L286.333 1079.87ZM332.353 1099.14L335.915 1095.87L335.768 1095.78L330.399 1098.17L296.291 1108.74L293.788 1107.24L321.711 1077.27L325.637 1079.63L306.665 1100.02L303.2 1103.01L303.397 1103.13L308.707 1100.84L343.012 1090.05L345.515 1091.55L317.64 1121.55L313.714 1119.2L332.353 1099.14ZM347.81 1114.69L350.313 1093.9L354.723 1096.21L352.781 1110.51L351.874 1113.72L355.112 1111.73L371.094 1104.8L376.011 1107.38L352.857 1117.14L350.456 1139.22L346.047 1136.9L347.854 1121.63L348.74 1118.22L345.219 1120.25L328.206 1127.55L323.289 1124.97L347.81 1114.69ZM407.803 1130.25C407.219 1131.62 406.476 1132.77 405.575 1133.72C404.674 1134.66 403.657 1135.39 402.525 1135.9C401.393 1136.41 400.189 1136.71 398.911 1136.78C397.684 1136.84 396.436 1136.7 395.168 1136.36L395.078 1136.57C395.775 1137.08 396.384 1137.69 396.906 1138.41C397.443 1139.1 397.847 1139.85 398.118 1140.68C398.389 1141.5 398.51 1142.38 398.481 1143.32C398.467 1144.23 398.257 1145.15 397.852 1146.1C396.803 1148.56 395.441 1150.38 393.769 1151.58C392.147 1152.75 390.379 1153.49 388.465 1153.79C386.587 1154.11 384.635 1154.06 382.611 1153.65C380.636 1153.22 378.755 1152.63 376.965 1151.86C376.404 1151.62 375.72 1151.33 374.913 1150.98C374.141 1150.65 373.156 1150.19 371.958 1149.6C369.943 1148.49 368.657 1147.71 368.101 1147.26L391.286 1114.29C392.709 1114.65 394.275 1115.11 395.984 1115.67C397.728 1116.25 399.565 1116.96 401.495 1117.78C402.793 1118.34 403.963 1119.04 405.006 1119.9C406.064 1120.73 406.889 1121.66 407.481 1122.71C408.108 1123.76 408.46 1124.93 408.536 1126.21C408.648 1127.5 408.403 1128.85 407.803 1130.25ZM379.743 1148.57C380.971 1149.09 382.241 1149.47 383.554 1149.7C384.882 1149.89 386.155 1149.88 387.372 1149.65C388.589 1149.42 389.696 1148.92 390.692 1148.14C391.724 1147.38 392.554 1146.26 393.184 1144.79C393.649 1143.7 393.769 1142.7 393.542 1141.77C393.331 1140.81 392.894 1139.94 392.232 1139.15C391.57 1138.37 390.725 1137.68 389.698 1137.08C388.72 1136.45 387.688 1135.9 386.6 1135.44L382.916 1133.86L374.48 1145.88C374.66 1146.04 374.954 1146.23 375.36 1146.44C375.801 1146.67 376.259 1146.91 376.736 1147.16C377.247 1147.42 377.758 1147.68 378.269 1147.94C378.831 1148.18 379.322 1148.39 379.743 1148.57ZM387.972 1131.79C388.569 1132.05 389.27 1132.35 390.077 1132.69C390.899 1133 391.606 1133.24 392.197 1133.41C393.079 1133.58 394.044 1133.7 395.091 1133.78C396.138 1133.85 397.15 1133.77 398.127 1133.52C399.154 1133.25 400.083 1132.78 400.914 1132.1C401.795 1131.4 402.52 1130.38 403.09 1129.04C403.51 1128.06 403.697 1127.19 403.652 1126.42C403.656 1125.63 403.442 1124.92 403.011 1124.28C402.63 1123.62 402.073 1123.03 401.341 1122.51C400.609 1121.99 399.752 1121.52 398.769 1121.1C397.647 1120.62 396.579 1120.2 395.567 1119.85C394.57 1119.47 393.803 1119.22 393.267 1119.12L385.183 1130.6L387.972 1131.79ZM403.924 1146.73C405.117 1143.43 406.701 1140.45 408.674 1137.79C410.648 1135.14 412.862 1133 415.317 1131.37C417.821 1129.72 420.472 1128.67 423.271 1128.22C426.12 1127.75 428.979 1128.03 431.85 1129.07C433.572 1129.69 435.072 1130.54 436.349 1131.61C437.638 1132.64 438.596 1133.92 439.222 1135.45C439.896 1136.95 440.196 1138.7 440.122 1140.7C440.084 1142.72 439.597 1145.01 438.664 1147.6C437.445 1150.97 435.842 1154 433.855 1156.69C431.882 1159.35 429.679 1161.51 427.247 1163.19C424.815 1164.87 422.229 1165.96 419.489 1166.47C416.797 1166.96 414.105 1166.72 411.414 1165.74C407.18 1164.21 404.445 1161.85 403.209 1158.64C401.987 1155.4 402.225 1151.43 403.924 1146.73ZM408.465 1148.31C407.246 1151.68 406.999 1154.55 407.724 1156.93C408.462 1159.26 410.195 1160.92 412.922 1161.91C414.932 1162.63 416.963 1162.74 419.016 1162.22C421.104 1161.72 423.102 1160.74 425.01 1159.28C426.917 1157.82 428.648 1155.95 430.201 1153.67C431.791 1151.4 433.092 1148.87 434.103 1146.07C434.856 1143.99 435.245 1142.18 435.271 1140.65C435.297 1139.12 435.052 1137.83 434.535 1136.79C434.067 1135.73 433.382 1134.88 432.481 1134.23C431.629 1133.55 430.7 1133.04 429.696 1132.67C427.65 1131.93 425.577 1131.83 423.475 1132.37C421.387 1132.87 419.389 1133.86 417.481 1135.32C415.61 1136.79 413.879 1138.66 412.289 1140.93C410.713 1143.16 409.438 1145.62 408.465 1148.31ZM456.978 1178.06C455.484 1178.53 453.993 1178.72 452.505 1178.64C451.018 1178.55 449.36 1178.24 447.532 1177.69C445.374 1177.05 443.569 1176.09 442.117 1174.82C440.675 1173.51 439.576 1171.99 438.821 1170.25C438.076 1168.48 437.677 1166.55 437.623 1164.46C437.569 1162.37 437.88 1160.2 438.556 1157.93C439.789 1153.8 441.456 1150.41 443.558 1147.78C445.67 1145.1 448.008 1143.07 450.571 1141.69C453.135 1140.3 455.784 1139.5 458.517 1139.28C461.287 1139.07 463.933 1139.34 466.456 1140.1C468.54 1140.72 470.197 1141.37 471.426 1142.06C472.655 1142.74 473.63 1143.41 474.351 1144.06L471.181 1147.48C470.57 1146.86 469.7 1146.24 468.569 1145.62C467.487 1144.98 466.177 1144.43 464.642 1143.97C462.594 1143.36 460.483 1143.23 458.309 1143.58C456.183 1143.9 454.156 1144.69 452.228 1145.94C450.3 1147.2 448.555 1148.91 446.994 1151.07C445.433 1153.23 444.205 1155.81 443.311 1158.81C442.787 1160.57 442.521 1162.26 442.512 1163.89C442.551 1165.49 442.827 1166.97 443.341 1168.32C443.902 1169.64 444.711 1170.8 445.769 1171.79C446.874 1172.76 448.231 1173.48 449.84 1173.96C451.558 1174.47 453.039 1174.72 454.281 1174.69C455.535 1174.62 456.695 1174.47 457.762 1174.23L456.978 1178.06ZM499.388 1153.26L482.353 1149.2L466.687 1182.29L462.233 1181.23L479.829 1144.24L505.66 1150.4L488.12 1187.41L483.667 1186.34L499.388 1153.26ZM501.44 1175.3C502.047 1171.84 503.094 1168.63 504.582 1165.68C506.069 1162.72 507.881 1160.23 510.019 1158.21C512.201 1156.15 514.632 1154.66 517.313 1153.74C520.037 1152.78 522.903 1152.57 525.909 1153.09C527.713 1153.41 529.336 1153.99 530.778 1154.82C532.226 1155.62 533.39 1156.71 534.269 1158.11C535.191 1159.47 535.789 1161.14 536.06 1163.13C536.369 1165.12 536.286 1167.47 535.811 1170.17C535.191 1173.71 534.134 1176.97 532.64 1179.96C531.153 1182.92 529.356 1185.43 527.249 1187.5C525.142 1189.57 522.783 1191.09 520.171 1192.07C517.604 1193.01 514.91 1193.24 512.092 1192.74C507.657 1191.96 504.556 1190.1 502.787 1187.16C501.025 1184.17 500.576 1180.22 501.44 1175.3ZM506.185 1176.07C505.565 1179.6 505.816 1182.48 506.939 1184.69C508.068 1186.86 510.061 1188.2 512.917 1188.7C515.022 1189.07 517.041 1188.82 518.974 1187.96C520.945 1187.11 522.744 1185.8 524.371 1184.03C525.999 1182.26 527.382 1180.12 528.52 1177.61C529.696 1175.11 530.541 1172.39 531.056 1169.46C531.439 1167.28 531.511 1165.43 531.273 1163.92C531.035 1162.4 530.572 1161.18 529.884 1160.24C529.24 1159.28 528.418 1158.55 527.419 1158.07C526.463 1157.55 525.46 1157.2 524.407 1157.02C522.265 1156.64 520.205 1156.9 518.228 1157.79C516.257 1158.64 514.458 1159.96 512.83 1161.72C511.24 1163.5 509.858 1165.64 508.682 1168.14C507.512 1170.61 506.68 1173.25 506.185 1176.07ZM571.554 1172.73L573.964 1166.95L573.736 1166.92L569.959 1172.04L554.357 1188.55L552.992 1188.4L548.393 1169.71L548.13 1164.16L547.902 1164.13L546.807 1170L538.218 1196.18L533.893 1195.72L546.68 1156.8L549.81 1157.14L555.004 1178.31L555.377 1182.84L555.434 1182.85L558.544 1178.58L576.269 1160L580.31 1160.44L567.523 1199.35L562.971 1198.86L571.554 1172.73ZM606.806 1174.67L608.375 1170.1L608.204 1170.09L604.626 1174.75L579.711 1200.33L576.794 1200.21L587.012 1160.54L591.586 1160.73L584.657 1187.71L583.043 1191.99L583.272 1192L586.844 1187.46L611.829 1161.59L614.746 1161.72L604.585 1201.39L600.011 1201.19L606.806 1174.67ZM640.159 1182.81L621.961 1183.13L618.449 1201.56L613.871 1201.64L621.639 1161.44L626.217 1161.36L622.86 1178.87L641.001 1178.56L644.357 1161.04L648.936 1160.96L641.167 1201.16L636.589 1201.24L640.159 1182.81ZM670.381 1188.29L656.453 1189.3L651.093 1200.83L646.241 1201.18L666.351 1158.92L668.463 1158.76L677.18 1198.93L672.785 1199.25L670.381 1188.29ZM658.38 1185.03L669.625 1184.21L667.086 1172.18L666.532 1166.13L666.475 1166.14L664.354 1172.49L658.38 1185.03ZM706.198 1176.8L688.148 1179.14L686.707 1197.85L682.166 1198.44L685.416 1157.62L689.957 1157.03L688.569 1174.81L706.561 1172.48L707.95 1154.7L712.491 1154.11L709.241 1194.93L704.7 1195.52L706.198 1176.8ZM741.729 1161.85L742.205 1157.04L742.036 1157.07L739.626 1162.43L721.256 1193.05L718.389 1193.6L719.217 1152.65L723.714 1151.79L723.169 1179.63L722.583 1184.17L722.808 1184.13L725.24 1178.88L743.612 1147.97L746.479 1147.42L745.707 1188.36L741.21 1189.23L741.729 1161.85ZM776.147 1153.35L776.327 1148.52L776.16 1148.56L774.083 1154.06L757.629 1185.75L754.801 1186.48L753.113 1145.55L757.548 1144.41L758.714 1172.24L758.408 1176.81L758.63 1176.75L760.735 1171.36L777.175 1139.38L780.002 1138.66L781.746 1179.57L777.31 1180.7L776.147 1153.35ZM761.452 1133.37C761.803 1134.73 762.406 1135.7 763.26 1136.27C764.152 1136.83 765.208 1136.95 766.428 1136.64C767.98 1136.24 769.16 1135.55 769.969 1134.55C770.768 1133.52 771.205 1132.3 771.28 1130.91L775.569 1130.81C775.415 1132.98 774.621 1134.87 773.187 1136.5C771.744 1138.09 769.691 1139.23 767.03 1139.91C764.517 1140.56 762.513 1140.42 761.017 1139.5C759.512 1138.55 758.495 1137.2 757.967 1135.44L761.452 1133.37ZM802.104 1158.23C800.94 1154.92 800.282 1151.61 800.132 1148.31C799.981 1145 800.342 1141.95 801.213 1139.13C802.108 1136.27 803.497 1133.78 805.382 1131.66C807.289 1129.49 809.683 1127.9 812.563 1126.89C814.29 1126.28 815.987 1125.99 817.653 1126.01C819.306 1126 820.857 1126.38 822.306 1127.17C823.778 1127.9 825.118 1129.07 826.327 1130.67C827.572 1132.25 828.649 1134.34 829.561 1136.93C830.75 1140.32 831.426 1143.68 831.589 1147.02C831.74 1150.32 831.404 1153.39 830.581 1156.23C829.758 1159.07 828.447 1161.55 826.648 1163.68C824.871 1165.76 822.633 1167.27 819.934 1168.22C815.686 1169.72 812.07 1169.61 809.086 1167.91C806.089 1166.17 803.761 1162.95 802.104 1158.23ZM806.62 1156.58C807.81 1159.97 809.436 1162.35 811.497 1163.73C813.547 1165.07 815.939 1165.26 818.675 1164.3C820.691 1163.59 822.33 1162.39 823.594 1160.69C824.894 1158.98 825.82 1156.95 826.373 1154.61C826.926 1152.28 827.084 1149.73 826.846 1146.99C826.644 1144.23 826.05 1141.44 825.063 1138.63C824.329 1136.55 823.488 1134.9 822.539 1133.7C821.59 1132.49 820.587 1131.65 819.529 1131.18C818.495 1130.65 817.423 1130.42 816.314 1130.49C815.228 1130.5 814.181 1130.69 813.173 1131.04C811.121 1131.77 809.452 1133 808.165 1134.75C806.866 1136.46 805.939 1138.48 805.386 1140.82C804.869 1143.15 804.711 1145.69 804.913 1148.45C805.102 1151.17 805.671 1153.88 806.62 1156.58ZM843.752 1138.65L841.06 1139.78L844.63 1158.39L840.406 1160.16L832.75 1119.93L836.974 1118.16L840.483 1136.92L842.285 1135.3L850.542 1112.48L855.769 1110.29L847.388 1132.66L845.644 1135.32L848.587 1136.57L865.009 1149.86L860.205 1151.87L843.752 1138.65ZM875.348 1124.07L877.867 1128.51L878.073 1128.41L877.749 1122.73L879.239 1098.76L883.777 1096.58L881.402 1126.62C881.167 1129.74 880.931 1132.37 880.694 1134.52C880.457 1136.67 880.131 1138.45 879.717 1139.88C879.337 1141.29 878.825 1142.43 878.18 1143.29C877.554 1144.1 876.708 1144.76 875.642 1145.27C874.541 1145.8 873.615 1146.12 872.862 1146.23C872.093 1146.3 871.394 1146.3 870.763 1146.22L871.062 1141.7C871.778 1141.77 872.375 1141.78 872.854 1141.72C873.351 1141.61 873.839 1141.44 874.321 1141.21C875.215 1140.78 875.819 1139.79 876.132 1138.24C876.446 1136.69 876.679 1134.8 876.832 1132.57L857.062 1109.43L861.446 1107.32L875.348 1124.07ZM911.984 1105.33L896.046 1114.12L901.559 1132.06L897.549 1134.27L885.622 1095.1L889.632 1092.89L894.853 1109.94L910.741 1101.18L905.52 1084.13L909.53 1081.92L921.457 1121.09L917.447 1123.3L911.984 1105.33ZM939.55 1078.41L938.227 1073.75L938.082 1073.85L937.805 1079.71L931.948 1114.94L929.483 1116.5L915.232 1078.1L919.098 1075.65L928.805 1101.75L929.926 1106.19L930.119 1106.07L930.458 1100.3L936.21 1064.8L938.675 1063.24L952.975 1101.61L949.108 1104.06L939.55 1078.41ZM980.255 1080.51C979.711 1081.98 978.95 1083.28 977.971 1084.4C976.992 1085.52 975.728 1086.64 974.177 1087.75C972.347 1089.06 970.485 1089.9 968.591 1090.28C966.676 1090.61 964.799 1090.55 962.962 1090.08C961.103 1089.58 959.332 1088.72 957.649 1087.48C955.967 1086.25 954.436 1084.67 953.059 1082.74C950.548 1079.24 948.893 1075.85 948.095 1072.57C947.274 1069.26 947.101 1066.17 947.576 1063.3C948.051 1060.42 949.039 1057.84 950.54 1055.54C952.071 1053.23 953.907 1051.3 956.047 1049.77C957.815 1048.5 959.347 1047.59 960.641 1047.04C961.935 1046.49 963.062 1046.13 964.019 1045.96L964.778 1050.55C963.913 1050.66 962.891 1050.97 961.712 1051.48C960.541 1051.95 959.305 1052.64 958.002 1053.58C956.265 1054.82 954.868 1056.41 953.81 1058.34C952.762 1060.22 952.143 1062.3 951.956 1064.6C951.768 1066.89 952.051 1069.32 952.804 1071.87C953.557 1074.43 954.845 1076.98 956.667 1079.53C957.734 1081.02 958.909 1082.26 960.192 1083.27C961.484 1084.22 962.82 1084.9 964.2 1085.32C965.589 1085.69 966.999 1085.76 968.432 1085.53C969.873 1085.25 971.276 1084.62 972.641 1083.64C974.099 1082.6 975.197 1081.58 975.937 1080.58C976.654 1079.55 977.245 1078.54 977.709 1077.55L980.255 1080.51ZM967.665 1041.7L971.251 1038.85L978.375 1053.07C978.501 1052.93 978.701 1052.72 978.976 1052.45C979.258 1052.13 979.566 1051.81 979.901 1051.5C980.242 1051.13 980.621 1050.78 981.04 1050.45C981.434 1050.08 981.796 1049.77 982.125 1049.51C983.38 1048.52 984.694 1047.72 986.067 1047.11C987.44 1046.51 988.82 1046.19 990.209 1046.16C991.574 1046.1 992.914 1046.38 994.228 1046.99C995.543 1047.61 996.781 1048.64 997.944 1050.11C999.557 1052.14 1000.6 1054.19 1001.07 1056.25C1001.54 1058.32 1001.52 1060.35 1001.02 1062.36C1000.52 1064.31 999.612 1066.2 998.288 1068.03C996.94 1069.83 995.28 1071.51 993.308 1073.08C992.92 1073.39 992.415 1073.77 991.793 1074.21C991.225 1074.66 990.514 1075.18 989.66 1075.76C989.069 1076.18 988.423 1076.59 987.725 1077C987.056 1077.39 986.393 1077.72 985.737 1078L967.665 1041.7ZM991.598 1069.18C992.823 1068.2 993.885 1067.12 994.783 1065.92C995.658 1064.69 996.267 1063.4 996.612 1062.05C996.933 1060.68 996.944 1059.28 996.646 1057.86C996.353 1056.39 995.626 1054.92 994.463 1053.46C993.04 1051.66 991.383 1050.83 989.494 1050.97C987.634 1051.08 985.718 1051.92 983.746 1053.49C983.507 1053.68 983.205 1053.94 982.84 1054.28C982.505 1054.59 982.155 1054.92 981.79 1055.26C981.426 1055.6 981.103 1055.93 980.821 1056.25C980.54 1056.57 980.337 1056.8 980.211 1056.95L987.708 1071.83C988.138 1071.63 988.72 1071.29 989.455 1070.8C990.166 1070.29 990.88 1069.75 991.598 1069.18ZM1019.92 1007.42C1020.93 1008.51 1021.68 1009.66 1022.18 1010.87C1022.67 1012.08 1022.92 1013.3 1022.93 1014.54C1022.93 1015.79 1022.71 1017.01 1022.26 1018.2C1021.81 1019.35 1021.17 1020.43 1020.35 1021.45L1020.5 1021.62C1021.25 1021.19 1022.06 1020.88 1022.93 1020.7C1023.77 1020.49 1024.63 1020.43 1025.49 1020.52C1026.35 1020.6 1027.2 1020.85 1028.05 1021.26C1028.87 1021.65 1029.63 1022.22 1030.33 1022.97C1032.15 1024.93 1033.26 1026.92 1033.66 1028.94C1034.07 1030.9 1034.03 1032.81 1033.52 1034.68C1033.04 1036.53 1032.21 1038.29 1031.01 1039.97C1029.81 1041.6 1028.5 1043.07 1027.07 1044.39C1026.62 1044.81 1026.07 1045.31 1025.43 1045.91C1024.81 1046.48 1023.99 1047.19 1022.96 1048.04C1021.12 1049.43 1019.89 1050.28 1019.25 1050.61L998.609 1015.99C999.518 1014.83 1000.58 1013.59 1001.79 1012.26C1003.03 1010.91 1004.42 1009.52 1005.96 1008.09C1007 1007.13 1008.12 1006.35 1009.34 1005.75C1010.52 1005.12 1011.71 1004.75 1012.9 1004.64C1014.12 1004.49 1015.33 1004.65 1016.53 1005.1C1017.76 1005.53 1018.89 1006.3 1019.92 1007.42ZM1025.19 1040.51C1026.17 1039.61 1027.04 1038.6 1027.78 1037.5C1028.5 1036.36 1029.01 1035.19 1029.3 1033.99C1029.59 1032.79 1029.58 1031.57 1029.28 1030.34C1029 1029.09 1028.32 1027.88 1027.23 1026.7C1026.43 1025.83 1025.56 1025.31 1024.62 1025.14C1023.65 1024.94 1022.68 1024.98 1021.7 1025.27C1020.71 1025.56 1019.74 1026.04 1018.76 1026.73C1017.79 1027.37 1016.88 1028.09 1016.01 1028.9L1013.07 1031.62L1020.59 1044.22C1020.81 1044.12 1021.11 1043.93 1021.47 1043.65C1021.86 1043.34 1022.26 1043.02 1022.68 1042.68C1023.13 1042.32 1023.57 1041.96 1024.02 1041.6C1024.47 1041.19 1024.86 1040.82 1025.19 1040.51ZM1013.24 1026.16C1013.71 1025.71 1014.28 1025.2 1014.92 1024.6C1015.54 1023.98 1016.05 1023.43 1016.44 1022.96C1016.96 1022.22 1017.46 1021.39 1017.96 1020.47C1018.45 1019.54 1018.79 1018.58 1018.96 1017.59C1019.14 1016.54 1019.08 1015.5 1018.8 1014.46C1018.52 1013.37 1017.88 1012.3 1016.9 1011.23C1016.17 1010.45 1015.45 1009.92 1014.73 1009.65C1014.02 1009.32 1013.28 1009.23 1012.52 1009.36C1011.76 1009.44 1010.99 1009.7 1010.22 1010.16C1009.44 1010.62 1008.66 1011.21 1007.88 1011.93C1006.98 1012.76 1006.17 1013.57 1005.44 1014.35C1004.68 1015.1 1004.14 1015.7 1003.83 1016.15L1011.01 1028.21L1013.24 1026.16ZM1057 974.321L1053.74 968.97L1053.59 969.14L1055.5 975.205L1059.67 997.53L1058.75 998.547L1040.93 991.274L1036.28 988.219L1036.13 988.389L1040.23 992.726L1056.36 1015.07L1053.44 1018.3L1029.49 985.067L1031.6 982.735L1051.78 990.987L1055.66 993.35L1055.7 993.307L1054.08 988.281L1049.48 963.02L1052.21 960.009L1076.16 993.239L1073.08 996.631L1057 974.321ZM1079.23 946.953L1076.44 942.999L1076.34 943.134L1078.01 948.765L1084.11 983.951L1082.3 986.24L1056.17 954.692L1059.01 951.102L1076.79 972.54L1079.31 976.361L1079.45 976.181L1077.87 970.621L1071.58 935.213L1073.4 932.924L1099.56 964.427L1096.72 968.017L1079.23 946.953ZM1077.65 927.332C1078.21 925.949 1078.9 924.57 1079.73 923.194C1080.56 921.819 1081.43 920.492 1082.33 919.213C1083.34 917.779 1084.43 916.563 1085.6 915.567C1086.79 914.54 1088.05 913.816 1089.37 913.395C1090.7 912.974 1092.08 912.899 1093.52 913.17C1094.96 913.387 1096.42 914.024 1097.92 915.079C1100.29 916.75 1101.96 918.583 1102.94 920.578C1103.93 922.541 1104.42 924.565 1104.4 926.65C1104.36 928.682 1103.94 930.714 1103.11 932.746C1102.28 934.778 1101.24 936.683 1099.99 938.46C1099.88 938.616 1099.71 938.866 1099.46 939.209C1099.24 939.521 1099 939.864 1098.74 940.238C1098.44 940.59 1098.16 940.927 1097.89 941.248C1097.61 941.569 1097.41 941.796 1097.26 941.93L1107.86 953.323L1105.22 957.065L1077.65 927.332ZM1085.14 922.383C1084.63 923.1 1084.17 923.824 1083.75 924.554C1083.31 925.231 1082.99 925.82 1082.78 926.323L1094.38 938.774C1094.53 938.693 1094.72 938.524 1094.95 938.265C1095.17 937.953 1095.4 937.652 1095.65 937.362C1095.93 937.041 1096.17 936.725 1096.39 936.413C1096.61 936.101 1096.78 935.867 1096.89 935.711C1097.83 934.37 1098.6 932.977 1099.2 931.532C1099.8 930.087 1100.09 928.655 1100.06 927.235C1100.06 925.785 1099.71 924.394 1099.01 923.063C1098.34 921.701 1097.18 920.438 1095.52 919.272C1094.4 918.481 1093.35 918.019 1092.37 917.888C1091.39 917.756 1090.48 917.886 1089.64 918.277C1088.8 918.615 1088 919.15 1087.25 919.882C1086.5 920.614 1085.8 921.448 1085.14 922.383ZM1149.85 901.515L1148.25 904.221L1142.28 899.809L1128.65 922.736L1133.77 928.574L1132.19 931.231L1123.43 923.228L1125.39 919.932C1125.22 919.389 1124.76 918.312 1123.98 916.698C1123.21 915.085 1121.93 913.016 1120.15 910.491C1118.33 907.946 1115.9 904.989 1112.84 901.618C1109.8 898.215 1105.94 894.478 1101.26 890.407L1103.45 886.718L1111.64 872.942L1138.55 897.792L1141.12 893.463L1149.85 901.515ZM1136.24 901.679L1112.5 879.78L1106.66 889.62C1112.88 895.496 1117.69 900.594 1121.07 904.912C1124.47 909.197 1126.79 912.728 1128.02 915.504L1136.24 901.679ZM1115.78 864.929L1125.32 846.607L1128.68 849.326L1121.2 863.689L1131.52 872.234L1138.38 859.089L1141.73 861.807L1134.88 874.953L1146.12 884.23L1153.74 869.612L1157.07 872.382L1149.45 886.999L1147.36 891.009L1115.78 864.929ZM1141.66 820.883L1136.7 831.644L1166.09 853.497L1164.17 857.655L1134.79 835.803L1129.88 846.459L1126.39 843.908L1138.17 818.332L1141.66 820.883ZM1180.03 815.978C1180.36 817.509 1180.42 819.011 1180.2 820.485C1179.97 821.958 1179.51 823.58 1178.8 825.351C1177.96 827.44 1176.84 829.15 1175.44 830.48C1174.01 831.797 1172.39 832.751 1170.59 833.345C1168.76 833.923 1166.8 834.144 1164.72 834.007C1162.63 833.87 1160.49 833.361 1158.3 832.48C1154.3 830.874 1151.08 828.905 1148.64 826.571C1146.17 824.223 1144.37 821.709 1143.22 819.029C1142.08 816.35 1141.52 813.639 1141.55 810.897C1141.6 808.119 1142.11 805.509 1143.09 803.066C1143.9 801.047 1144.7 799.457 1145.5 798.296C1146.29 797.135 1147.05 796.226 1147.76 795.567L1150.88 799.036C1150.2 799.588 1149.51 800.398 1148.79 801.467C1148.05 802.487 1147.38 803.74 1146.79 805.227C1145.99 807.21 1145.67 809.3 1145.81 811.497C1145.94 813.644 1146.54 815.735 1147.61 817.769C1148.69 819.804 1150.23 821.698 1152.24 823.45C1154.25 825.203 1156.71 826.661 1159.61 827.827C1161.31 828.509 1162.97 828.929 1164.59 829.086C1166.2 829.195 1167.69 829.055 1169.08 828.666C1170.45 828.229 1171.67 827.529 1172.76 826.566C1173.82 825.554 1174.67 824.269 1175.29 822.711C1175.96 821.047 1176.34 819.595 1176.42 818.355C1176.48 817.101 1176.43 815.932 1176.29 814.847L1180.03 815.978ZM1169.75 794.304L1168.81 797.069L1185.13 806.697L1183.67 811.035L1148.43 790.175L1149.89 785.837L1166.29 795.61L1166.26 793.185L1154.61 771.903L1156.42 766.536L1167.66 787.616L1168.5 790.679L1171.38 789.298L1192.21 785.77L1190.54 790.703L1169.75 794.304ZM1175.85 744.833L1171.74 742.289L1171.7 742.455L1175.45 746.976L1194.86 776.945L1194.1 779.761L1157.68 761.001L1158.89 756.583L1183.65 769.322L1187.47 771.846L1187.53 771.626L1183.89 767.134L1164.21 737.035L1164.98 734.219L1201.41 752.923L1200.21 757.341L1175.85 744.833ZM1186.59 725.778L1165.9 729.046L1166.92 724.173L1181.21 722.137L1184.54 722.133L1181.75 719.56L1170.72 706.079L1171.85 700.645L1187.57 720.253L1209.46 716.535L1208.44 721.409L1193.25 723.841L1189.73 723.921L1192.64 726.754L1204.31 741.127L1203.17 746.561L1186.59 725.778ZM1185.06 663.879C1186.54 664.064 1187.85 664.46 1189.01 665.067C1190.16 665.673 1191.14 666.45 1191.95 667.397C1192.75 668.344 1193.36 669.421 1193.79 670.628C1194.18 671.792 1194.39 673.03 1194.42 674.341L1194.65 674.37C1194.94 673.56 1195.36 672.806 1195.91 672.106C1196.42 671.401 1197.04 670.805 1197.75 670.318C1198.47 669.831 1199.28 669.472 1200.19 669.24C1201.07 669.004 1202.02 668.95 1203.04 669.079C1205.69 669.411 1207.82 670.217 1209.43 671.496C1211 672.732 1212.2 674.228 1213.02 675.985C1213.84 677.703 1214.33 679.592 1214.5 681.65C1214.63 683.667 1214.57 685.64 1214.33 687.571C1214.26 688.177 1214.16 688.915 1214.05 689.786C1213.95 690.619 1213.78 691.693 1213.53 693.008C1213.02 695.251 1212.63 696.702 1212.35 697.359L1174.27 684.155C1174.22 682.687 1174.23 681.055 1174.31 679.256C1174.38 677.42 1174.55 675.461 1174.81 673.378C1174.99 671.978 1175.35 670.657 1175.89 669.418C1176.39 668.173 1177.06 667.123 1177.9 666.267C1178.74 665.373 1179.77 664.713 1180.97 664.288C1182.18 663.825 1183.55 663.689 1185.06 663.879ZM1210.4 685.808C1210.57 684.483 1210.58 683.158 1210.44 681.833C1210.26 680.503 1209.89 679.284 1209.34 678.176C1208.79 677.068 1208 676.143 1206.98 675.399C1205.96 674.617 1204.66 674.127 1203.07 673.927C1201.89 673.78 1200.89 673.943 1200.06 674.415C1199.2 674.883 1198.48 675.543 1197.91 676.395C1197.34 677.246 1196.91 678.249 1196.61 679.404C1196.28 680.516 1196.04 681.659 1195.89 682.832L1195.39 686.808L1209.27 691.607C1209.37 691.39 1209.47 691.056 1209.57 690.607C1209.67 690.119 1209.77 689.613 1209.87 689.088C1209.98 688.524 1210.09 687.961 1210.2 687.398C1210.28 686.792 1210.34 686.262 1210.4 685.808ZM1192.01 682.518C1192.09 681.874 1192.18 681.117 1192.29 680.246C1192.37 679.371 1192.4 678.625 1192.4 678.01C1192.32 677.116 1192.17 676.155 1191.96 675.128C1191.74 674.101 1191.38 673.151 1190.87 672.28C1190.33 671.367 1189.62 670.604 1188.74 669.993C1187.82 669.34 1186.64 668.922 1185.2 668.742C1184.14 668.609 1183.25 668.67 1182.53 668.925C1181.77 669.137 1181.14 669.539 1180.64 670.13C1180.11 670.679 1179.7 671.377 1179.4 672.224C1179.1 673.071 1178.88 674.024 1178.75 675.085C1178.6 676.296 1178.49 677.437 1178.44 678.506C1178.34 679.571 1178.32 680.375 1178.37 680.92L1191.63 685.528L1192.01 682.518ZM1201.96 663.091C1198.46 662.859 1195.16 662.162 1192.06 661.001C1188.97 659.84 1186.3 658.305 1184.05 656.397C1181.77 654.449 1180.03 652.192 1178.82 649.626C1177.58 647.02 1177.06 644.194 1177.26 641.148C1177.38 639.321 1177.78 637.646 1178.46 636.122C1179.09 634.597 1180.06 633.322 1181.35 632.299C1182.6 631.235 1184.2 630.462 1186.15 629.979C1188.09 629.458 1190.44 629.288 1193.18 629.47C1196.76 629.707 1200.11 630.407 1203.25 631.571C1206.35 632.733 1209.04 634.249 1211.32 636.122C1213.61 637.994 1215.37 640.176 1216.62 642.668C1217.84 645.119 1218.35 647.773 1218.16 650.628C1217.86 655.121 1216.35 658.405 1213.61 660.479C1210.83 662.551 1206.95 663.422 1201.96 663.091ZM1202.22 658.29C1205.8 658.528 1208.63 657.97 1210.71 656.616C1212.75 655.26 1213.87 653.135 1214.06 650.242C1214.2 648.109 1213.74 646.129 1212.67 644.299C1211.61 642.431 1210.11 640.783 1208.18 639.355C1206.25 637.927 1203.97 636.782 1201.36 635.92C1198.74 635.02 1195.94 634.471 1192.98 634.274C1190.77 634.128 1188.92 634.254 1187.44 634.653C1185.96 635.052 1184.8 635.644 1183.94 636.429C1183.05 637.173 1182.42 638.068 1182.04 639.114C1181.63 640.119 1181.39 641.154 1181.32 642.22C1181.18 644.391 1181.65 646.411 1182.75 648.281C1183.82 650.149 1185.31 651.797 1187.24 653.225C1189.18 654.615 1191.46 655.76 1194.07 656.66C1196.65 657.558 1199.37 658.101 1202.22 658.29ZM1217.35 603.438C1218.21 604.743 1218.81 606.121 1219.14 607.574C1219.48 609.027 1219.63 610.707 1219.62 612.615C1219.6 614.866 1219.18 616.866 1218.37 618.614C1217.51 620.362 1216.36 621.841 1214.9 623.05C1213.4 624.259 1211.65 625.179 1209.66 625.811C1207.67 626.443 1205.5 626.75 1203.13 626.73C1198.82 626.695 1195.11 626.034 1191.99 624.75C1188.83 623.464 1186.23 621.783 1184.19 619.706C1182.14 617.628 1180.64 615.307 1179.67 612.743C1178.7 610.14 1178.22 607.522 1178.24 604.89C1178.26 602.715 1178.43 600.942 1178.74 599.571C1179.06 598.2 1179.43 597.077 1179.86 596.203L1184.02 598.298C1183.59 599.057 1183.24 600.066 1182.97 601.323C1182.65 602.541 1182.49 603.952 1182.47 605.554C1182.45 607.691 1182.91 609.755 1183.85 611.747C1184.75 613.7 1186.07 615.428 1187.82 616.931C1189.56 618.433 1191.69 619.634 1194.2 620.532C1196.71 621.431 1199.53 621.893 1202.66 621.919C1204.49 621.934 1206.19 621.719 1207.76 621.274C1209.29 620.79 1210.63 620.115 1211.78 619.247C1212.89 618.34 1213.78 617.241 1214.44 615.949C1215.06 614.618 1215.38 613.114 1215.39 611.435C1215.41 609.642 1215.23 608.152 1214.86 606.966C1214.45 605.78 1213.98 604.708 1213.45 603.749L1217.35 603.438ZM1181.71 569.619L1182.56 587.112L1218.71 592.936L1218.93 597.51L1178.5 590.918L1177.22 564.392L1217.65 570.926L1217.87 575.5L1181.71 569.619ZM1202.3 561.537C1198.81 561.925 1195.44 561.819 1192.19 561.22C1188.94 560.622 1186.04 559.581 1183.49 558.097C1180.9 556.58 1178.79 554.665 1177.15 552.351C1175.47 550.004 1174.46 547.314 1174.13 544.28C1173.92 542.459 1174.02 540.74 1174.42 539.122C1174.78 537.509 1175.5 536.084 1176.59 534.85C1177.64 533.582 1179.08 532.539 1180.91 531.722C1182.73 530.866 1185.01 530.287 1187.74 529.984C1191.31 529.588 1194.73 529.688 1198.03 530.282C1201.28 530.881 1204.19 531.901 1206.77 533.342C1209.35 534.784 1211.47 536.621 1213.14 538.854C1214.77 541.054 1215.74 543.576 1216.06 546.42C1216.55 550.895 1215.64 554.395 1213.31 556.918C1210.94 559.446 1207.27 560.986 1202.3 561.537ZM1201.71 556.765C1205.28 556.37 1207.96 555.323 1209.77 553.625C1211.54 551.931 1212.27 549.643 1211.95 546.761C1211.71 544.637 1210.91 542.769 1209.54 541.155C1208.17 539.503 1206.4 538.144 1204.25 537.077C1202.1 536.011 1199.66 535.284 1196.92 534.896C1194.19 534.47 1191.34 534.422 1188.39 534.75C1186.19 534.994 1184.39 535.443 1183.01 536.096C1181.62 536.749 1180.58 537.536 1179.87 538.459C1179.13 539.348 1178.66 540.34 1178.47 541.436C1178.25 542.498 1178.19 543.56 1178.31 544.622C1178.55 546.783 1179.38 548.688 1180.79 550.335C1182.16 551.987 1183.92 553.346 1186.08 554.413C1188.23 555.441 1190.67 556.168 1193.4 556.594C1196.1 557.024 1198.87 557.081 1201.71 556.765ZM1180.08 495.056L1173.85 494.383L1173.89 494.609L1179.87 496.781L1200.12 507.067L1200.36 508.419L1183.74 518.124L1178.49 519.95L1178.53 520.175L1184.47 519.563L1212.01 520.381L1212.79 524.661L1171.85 523.424L1171.29 520.327L1190.12 509.347L1194.36 507.705L1194.35 507.649L1189.37 505.876L1166.53 494.14L1165.81 490.142L1206.75 491.379L1207.57 495.884L1180.08 495.056ZM1171.86 460.826L1167.03 460.635L1167.07 460.802L1172.56 462.891L1204.21 479.419L1204.93 482.248L1164 483.842L1162.88 479.404L1190.7 478.303L1195.27 478.619L1195.22 478.397L1189.84 476.279L1157.89 459.767L1157.17 456.937L1198.09 455.288L1199.21 459.726L1171.86 460.826ZM1170 426.639L1175.59 443.96L1194.25 441.966L1195.66 446.323L1154.93 450.569L1153.53 446.211L1171.26 444.335L1165.69 427.069L1147.95 428.945L1146.55 424.588L1187.28 420.342L1188.68 424.7L1170 426.639ZM1166.4 396.203L1171.47 409.216L1184.06 410.947L1185.82 415.481L1139.51 408.701L1138.74 406.727L1174.57 386.574L1176.17 390.681L1166.4 396.203ZM1166.82 408.632L1162.73 398.125L1151.97 404.096L1146.36 406.404L1146.38 406.457L1153.07 406.614L1166.82 408.632ZM1144.83 365.416L1152.42 381.962L1170.72 377.793L1172.62 381.956L1132.67 390.947L1130.77 386.785L1148.16 382.842L1140.6 366.348L1123.21 370.291L1121.3 366.129L1161.25 357.137L1163.16 361.3L1144.83 365.416ZM1120 335.997L1115.26 336.979L1115.35 337.13L1121.18 337.832L1155.89 346.223L1157.27 348.795L1117.94 360.229L1115.77 356.195L1142.51 348.404L1147.02 347.607L1146.91 347.406L1141.18 346.65L1106.19 338.343L1104.81 335.771L1144.11 324.287L1146.28 328.321L1120 335.997ZM1101.59 305.747L1096.93 307.025L1097.02 307.171L1102.89 307.504L1138.06 313.693L1139.59 316.173L1101.06 330.061L1098.64 326.171L1124.84 316.712L1129.29 315.633L1129.17 315.439L1123.4 315.045L1087.96 308.958L1086.42 306.478L1124.92 292.542L1127.34 296.432L1101.59 305.747ZM1086.94 325.76C1088.14 325.016 1088.88 324.15 1089.16 323.164C1089.43 322.146 1089.23 321.102 1088.57 320.032C1087.72 318.67 1086.7 317.753 1085.51 317.281C1084.29 316.828 1083 316.776 1081.64 317.124L1080.26 313.061C1082.38 312.557 1084.42 312.745 1086.41 313.625C1088.36 314.525 1090.06 316.141 1091.51 318.475C1092.88 320.68 1093.35 322.633 1092.92 324.334C1092.46 326.056 1091.48 327.432 1089.96 328.463L1086.94 325.76ZM1098.46 279.553C1095.66 281.663 1092.7 283.287 1089.6 284.428C1086.49 285.568 1083.47 286.147 1080.52 286.166C1077.52 286.176 1074.73 285.603 1072.14 284.446C1069.5 283.281 1067.26 281.479 1065.43 279.038C1064.33 277.574 1063.53 276.045 1063.05 274.451C1062.54 272.879 1062.44 271.284 1062.75 269.666C1063.01 268.04 1063.72 266.41 1064.87 264.776C1066.01 263.111 1067.67 261.454 1069.87 259.803C1072.74 257.648 1075.74 255.989 1078.87 254.826C1081.98 253.685 1085.01 253.079 1087.96 253.008C1090.91 252.936 1093.68 253.437 1096.25 254.51C1098.77 255.576 1100.89 257.252 1102.61 259.54C1105.31 263.139 1106.31 266.618 1105.58 269.976C1104.83 273.358 1102.46 276.55 1098.46 279.553ZM1095.53 275.745C1098.4 273.59 1100.18 271.321 1100.87 268.94C1101.53 266.581 1100.99 264.242 1099.25 261.924C1097.96 260.216 1096.32 259.016 1094.32 258.324C1092.3 257.601 1090.09 257.328 1087.69 257.506C1085.3 257.684 1082.82 258.301 1080.28 259.357C1077.71 260.382 1075.23 261.789 1072.85 263.577C1071.08 264.907 1069.77 266.206 1068.91 267.473C1068.05 268.741 1067.55 269.951 1067.41 271.104C1067.22 272.249 1067.32 273.34 1067.72 274.377C1068.07 275.407 1068.56 276.349 1069.2 277.203C1070.51 278.942 1072.19 280.161 1074.24 280.861C1076.27 281.584 1078.48 281.856 1080.87 281.678C1083.24 281.469 1085.72 280.853 1088.29 279.827C1090.83 278.825 1093.24 277.464 1095.53 275.745ZM1067.23 245.757L1069.12 247.984L1085.78 238.963L1088.74 242.455L1052.7 261.898L1049.74 258.405L1066.56 249.398L1064.47 248.169L1040.23 247.185L1036.57 242.862L1060.42 244.099L1063.48 244.96L1063.78 241.777L1071.5 222.109L1074.86 226.083L1067.23 245.757ZM1043.79 220.042L1047.26 216.3L1047.11 216.134L1041.78 218.16L1018.49 223.979L1015.04 220.313L1044.39 213.501C1047.44 212.783 1050.02 212.213 1052.14 211.79C1054.25 211.368 1056.06 211.139 1057.54 211.102C1059 211.038 1060.24 211.183 1061.25 211.538C1062.22 211.89 1063.1 212.497 1063.91 213.359C1064.75 214.247 1065.33 215.034 1065.66 215.719C1065.97 216.43 1066.18 217.098 1066.29 217.722L1061.89 218.804C1061.75 218.098 1061.57 217.526 1061.37 217.088C1061.11 216.649 1060.8 216.234 1060.44 215.846C1059.76 215.123 1058.63 214.847 1057.06 215.015C1055.49 215.184 1053.62 215.533 1051.44 216.061L1035.36 241.896L1032.03 238.355L1043.79 220.042ZM1014.86 190.799L1028.06 203.33L1043.49 192.646L1046.81 195.799L1013.08 219.023L1009.76 215.87L1024.43 205.732L1011.28 193.24L996.601 203.378L993.28 200.226L1027.01 177.002L1030.33 180.155L1014.86 190.799ZM980.849 172.683L976.817 175.351L976.948 175.462L982.625 173.949L1017.97 168.864L1020.21 170.74L987.923 195.951L984.416 193.008L1006.35 175.853L1010.25 173.44L1010.07 173.293L1004.47 174.718L968.894 179.986L966.658 178.11L998.898 152.862L1002.41 155.805L980.849 172.683ZM970.529 133.253C972.093 133.326 973.559 133.659 974.926 134.252C976.294 134.844 977.742 135.711 979.27 136.852C981.074 138.199 982.439 139.719 983.366 141.411C984.27 143.134 984.778 144.942 984.888 146.834C984.976 148.757 984.687 150.707 984.019 152.685C983.352 154.663 982.31 156.6 980.895 158.495C978.315 161.95 975.585 164.554 972.704 166.307C969.8 168.092 966.906 169.193 964.022 169.611C961.138 170.029 958.376 169.87 955.734 169.136C953.061 168.378 950.67 167.212 948.561 165.636C946.818 164.335 945.488 163.151 944.57 162.085C943.652 161.018 942.967 160.054 942.515 159.193L946.666 157.078C947.026 157.871 947.631 158.751 948.48 159.718C949.275 160.694 950.315 161.661 951.599 162.62C953.311 163.898 955.248 164.749 957.408 165.172C959.515 165.602 961.69 165.56 963.933 165.044C966.175 164.528 968.401 163.523 970.611 162.031C972.821 160.538 974.862 158.538 976.734 156.031C977.83 154.564 978.663 153.066 979.232 151.539C979.748 150.019 979.997 148.538 979.978 147.096C979.907 145.661 979.545 144.296 978.894 143C978.189 141.712 977.164 140.566 975.819 139.561C974.382 138.488 973.076 137.75 971.899 137.348C970.701 136.977 969.559 136.72 968.475 136.577L970.529 133.253ZM937.348 157.002L933.549 154.446L944.946 143.351C944.766 143.276 944.508 143.148 944.17 142.967C943.779 142.796 943.383 142.598 942.982 142.374C942.528 142.161 942.079 141.905 941.636 141.607C941.171 141.34 940.765 141.09 940.417 140.855C939.087 139.961 937.927 138.95 936.937 137.824C935.947 136.698 935.227 135.478 934.778 134.164C934.307 132.882 934.165 131.521 934.351 130.083C934.537 128.644 935.152 127.149 936.195 125.598C937.644 123.445 939.28 121.833 941.105 120.762C942.93 119.69 944.874 119.09 946.938 118.961C948.95 118.842 951.028 119.137 953.173 119.844C955.297 120.584 957.404 121.656 959.493 123.062C959.905 123.339 960.417 123.706 961.028 124.164C961.63 124.568 962.337 125.09 963.149 125.728C963.729 126.165 964.32 126.654 964.921 127.196C965.49 127.717 966.006 128.249 966.469 128.79L937.348 157.002ZM956.291 125.874C954.993 125.001 953.636 124.318 952.22 123.825C950.782 123.364 949.37 123.172 947.984 123.251C946.576 123.362 945.241 123.774 943.978 124.488C942.663 125.213 941.483 126.351 940.44 127.902C939.162 129.802 938.874 131.631 939.575 133.391C940.245 135.129 941.625 136.701 943.714 138.107C943.967 138.278 944.31 138.485 944.743 138.731C945.144 138.955 945.562 139.189 945.994 139.434C946.427 139.68 946.839 139.888 947.23 140.059C947.621 140.23 947.906 140.353 948.086 140.427L959.993 128.779C959.677 128.428 959.176 127.976 958.491 127.423C957.784 126.901 957.05 126.385 956.291 125.874ZM888.854 117.544C889.59 116.251 890.459 115.187 891.461 114.352C892.463 113.517 893.555 112.909 894.737 112.529C895.92 112.148 897.15 111.992 898.428 112.061C899.654 112.144 900.878 112.423 902.1 112.899L902.213 112.7C901.578 112.119 901.042 111.441 900.605 110.666C900.149 109.923 899.833 109.129 899.657 108.282C899.48 107.435 899.46 106.545 899.595 105.613C899.712 104.713 900.025 103.816 900.535 102.921C901.856 100.599 903.415 98.9402 905.211 97.9432C906.956 96.9605 908.796 96.4272 910.732 96.3433C912.634 96.2406 914.568 96.507 916.533 97.1425C918.446 97.7922 920.248 98.5984 921.94 99.5609C922.47 99.8628 923.117 100.231 923.88 100.665C924.609 101.08 925.535 101.651 926.658 102.378C928.535 103.709 929.724 104.628 930.227 105.133L903.459 135.273C902.086 134.755 900.582 134.119 898.948 133.364C897.281 132.591 895.535 131.685 893.711 130.647C892.484 129.949 891.401 129.113 890.463 128.14C889.505 127.2 888.791 126.179 888.32 125.077C887.817 123.956 887.599 122.757 887.668 121.479C887.704 120.182 888.099 118.87 888.854 117.544ZM918.807 102.52C917.646 101.859 916.427 101.341 915.148 100.964C913.851 100.621 912.585 100.493 911.35 100.58C910.114 100.668 908.958 101.041 907.88 101.701C906.769 102.342 905.817 103.359 905.024 104.752C904.439 105.78 904.207 106.767 904.327 107.713C904.428 108.693 904.763 109.608 905.333 110.459C905.902 111.31 906.663 112.094 907.616 112.812C908.516 113.544 909.48 114.202 910.508 114.787L913.99 116.769L923.732 105.784C923.571 105.604 923.301 105.384 922.922 105.125C922.51 104.846 922.081 104.558 921.635 104.261C921.157 103.945 920.678 103.628 920.2 103.312C919.669 103.01 919.205 102.746 918.807 102.52ZM908.733 118.255C908.169 117.934 907.506 117.556 906.743 117.122C905.961 116.721 905.286 116.403 904.718 116.167C903.861 115.899 902.916 115.669 901.884 115.477C900.852 115.284 899.837 115.255 898.839 115.39C897.788 115.538 896.811 115.904 895.909 116.488C894.954 117.086 894.118 118.015 893.4 119.275C892.872 120.204 892.587 121.051 892.546 121.818C892.453 122.599 892.584 123.333 892.94 124.018C893.244 124.718 893.73 125.368 894.399 125.968C895.067 126.568 895.866 127.132 896.794 127.66C897.855 128.264 898.869 128.797 899.835 129.259C900.783 129.755 901.517 130.085 902.038 130.249L911.369 119.755L908.733 118.255ZM846.094 92.2122L841.979 96.937L842.187 97.0324L847.389 93.3717L867.409 82.649L868.658 83.221L867.11 102.405L865.603 107.758L865.811 107.853L868.706 102.632L885.136 80.5073L889.09 82.3187L864.653 115.192L861.791 113.881L863.559 92.154L864.638 87.7377L864.586 87.7139L860.285 90.7803L837.594 102.798L833.9 101.106L858.337 68.2323L862.5 70.1391L846.094 92.2122ZM813.284 79.2841L810.355 83.1312L810.516 83.1922L815.378 79.8952L847.081 63.4591L849.81 64.4946L827.624 98.9273L823.343 97.3029L838.412 73.8822L841.293 70.3229L841.079 70.2417L836.257 73.4317L804.399 90.115L801.67 89.0795L823.803 54.6265L828.084 56.2509L813.284 79.2841ZM795.016 86.6829C793.53 86.5698 792.006 86.3245 790.445 85.9469C788.883 85.5693 787.357 85.1429 785.866 84.6679C784.194 84.1349 782.707 83.4606 781.405 82.6452C780.067 81.8182 778.998 80.8367 778.198 79.7009C777.399 78.5651 776.911 77.2683 776.735 75.8105C776.511 74.3775 776.677 72.7884 777.233 71.0434C778.114 68.2805 779.359 66.1342 780.968 64.6046C782.54 63.0634 784.324 61.99 786.319 61.3844C788.266 60.8036 790.333 60.6014 792.52 60.7776C794.706 60.9539 796.835 61.3723 798.908 62.0327C799.089 62.0907 799.38 62.1834 799.78 62.3108C800.144 62.4267 800.544 62.5541 800.98 62.6932C801.404 62.8686 801.811 63.0382 802.199 63.202C802.588 63.3658 802.867 63.4949 803.037 63.5892L810.714 50.0571L815.077 51.4475L795.016 86.6829ZM788.045 81.0371C788.881 81.3036 789.71 81.5279 790.533 81.7101C791.308 81.9171 791.968 82.0472 792.512 82.1003L800.896 67.2919C800.773 67.1728 800.555 67.043 800.239 66.9023C799.875 66.7865 799.518 66.6524 799.166 66.5002C798.777 66.3364 798.401 66.1965 798.038 66.0807C797.674 65.9648 797.402 65.8779 797.22 65.82C795.657 65.3217 794.096 65.0044 792.537 64.8681C790.979 64.7318 789.527 64.8898 788.181 65.342C786.799 65.7826 785.579 66.5348 784.519 67.5986C783.422 68.6509 782.567 70.1404 781.953 72.0672C781.536 73.3759 781.412 74.5179 781.582 75.4931C781.752 76.4683 782.149 77.2957 782.773 77.9753C783.35 78.6796 784.1 79.2791 785.023 79.7737C785.947 80.2683 786.954 80.6895 788.045 81.0371ZM748.688 25.5609L751.752 26.2841L749.331 33.2989L775.289 39.4261L779.325 32.7926L782.333 33.5026L777.324 44.2582L773.592 43.3773C773.124 43.6981 772.237 44.4687 770.929 45.6891C769.622 46.9095 768.031 48.7491 766.157 51.2078C764.274 53.7037 762.183 56.915 759.884 60.8417C757.548 64.7596 755.14 69.5623 752.661 75.2498L748.483 74.2637L732.886 70.5821L748.526 37.4604L743.624 36.3034L748.688 25.5609ZM752.926 38.4992L739.151 67.7092L750.292 70.3389C754.031 62.6357 757.453 56.5239 760.559 52.0035C763.628 47.4744 766.301 44.2045 768.579 42.1939L752.926 38.4992ZM723.945 69.014L703.608 65.3656L705.201 61.3485L721.143 64.2085L726.218 51.803L711.627 49.1855L713.22 45.1683L727.811 47.7858L733.313 34.294L717.089 31.3834L718.738 27.3763L734.962 30.287L739.413 31.0854L723.945 69.014ZM674.118 57.3671L685.864 58.9123L698.028 24.3751L702.568 24.9723L690.404 59.5095L702.037 61.0399L700.633 65.1271L672.715 61.4543L674.118 57.3671ZM658.063 22.1237C659.429 21.3562 660.848 20.8612 662.321 20.6386C663.795 20.4161 665.482 20.3835 667.383 20.541C669.627 20.7269 671.59 21.2915 673.273 22.2349C674.953 23.2164 676.342 24.48 677.439 26.0258C678.533 27.6096 679.321 29.417 679.804 31.4479C680.286 33.4788 680.43 35.673 680.235 38.0306C679.879 42.3276 678.944 45.9832 677.431 48.9973C675.915 52.0496 674.045 54.5173 671.822 56.4006C669.598 58.284 667.172 59.6144 664.542 60.3921C661.874 61.1666 659.229 61.4451 656.605 61.2278C654.437 61.0483 652.682 60.7497 651.338 60.3321C649.994 59.9145 648.902 59.4603 648.062 58.9696L650.461 54.9758C651.187 55.4571 652.166 55.8828 653.399 56.253C654.59 56.658 655.985 56.9266 657.582 57.0589C659.711 57.2353 661.804 56.93 663.86 56.1432C665.875 55.3912 667.696 54.202 669.324 52.5757C670.952 50.9493 672.307 48.9175 673.39 46.4802C674.472 44.043 675.143 41.2653 675.401 38.1471C675.552 36.3219 675.464 34.6108 675.137 33.014C674.769 31.452 674.195 30.0644 673.414 28.8511C672.593 27.6728 671.563 26.7068 670.324 25.9533C669.043 25.2346 667.566 24.806 665.893 24.6674C664.106 24.5194 662.607 24.5867 661.397 24.8693C660.183 25.1899 659.079 25.5771 658.084 26.0307L658.063 22.1237ZM640.316 38.2843L643.234 38.3736L647.691 19.9575L652.268 20.0976L642.575 59.8837L637.998 59.7436L642.574 41.2165L640.261 41.9473L623.296 59.2934L617.633 59.12L634.526 42.2299L637.212 40.537L635.051 38.1804L625.609 19.2814L630.815 19.4408L640.316 38.2843ZM591.114 46.7469L589.862 51.4171L590.033 51.4126L593.284 46.5187L616.393 19.2942L619.311 19.2182L611.828 59.4906L607.251 59.6098L612.321 32.225L613.638 27.8394L613.409 27.8454L610.155 32.6249L586.997 60.137L584.079 60.2129L591.504 19.942L596.081 19.8229L591.114 46.7469ZM569.701 41.9026L578.723 60.8L573.761 61.2087L567.742 48.094L566.79 44.899L565.118 48.3101L555.337 62.7261L549.804 63.1818L564.125 42.5341L554.33 22.6093L559.292 22.2006L565.947 36.067L567.028 39.4237L568.914 35.8227L579.371 20.547L584.904 20.0913L569.701 41.9026ZM510.641 60.8398C510.405 59.3706 510.416 57.9969 510.674 56.7187C510.932 55.4404 511.403 54.2826 512.086 53.2451C512.769 52.2076 513.631 51.3155 514.67 50.5685C515.678 49.8654 516.807 49.3165 518.057 48.9221L518.021 48.6961C517.162 48.6411 516.319 48.4481 515.493 48.1173C514.673 47.8241 513.929 47.4028 513.261 46.8533C512.592 46.3038 512.019 45.6231 511.541 44.8112C511.068 44.037 510.75 43.1413 510.587 42.1242C510.162 39.4871 510.338 37.2173 511.114 35.3147C511.859 33.4558 512.959 31.8875 514.415 30.6097C515.834 29.338 517.508 28.3343 519.438 27.5987C521.336 26.9068 523.246 26.4063 525.167 26.0972C525.77 26.0002 526.505 25.882 527.371 25.7426C528.2 25.6092 529.279 25.4742 530.61 25.3374C532.907 25.1997 534.409 25.1705 535.118 25.2498L533.132 65.5109C531.737 65.9673 530.166 66.4133 528.42 66.8488C526.636 67.2905 524.708 67.678 522.636 68.0113C521.242 68.2356 519.874 68.2624 518.533 68.0918C517.197 67.9588 516.001 67.6102 514.944 67.046C513.85 66.4878 512.929 65.6891 512.182 64.6499C511.397 63.6167 510.884 62.3467 510.641 60.8398ZM524.579 30.3657C523.26 30.5779 521.985 30.9377 520.752 31.4451C519.526 31.9903 518.459 32.6837 517.551 33.5254C516.643 34.3672 515.975 35.3828 515.548 36.5723C515.084 37.7678 514.979 39.1566 515.233 40.7389C515.421 41.9067 515.858 42.8219 516.545 43.4844C517.237 44.1846 518.072 44.6879 519.048 44.9945C520.025 45.3011 521.11 45.4358 522.302 45.3986C523.462 45.4051 524.626 45.3144 525.794 45.1265L529.75 44.4901L530.463 29.8248C530.224 29.7858 529.876 29.7839 529.418 29.8189C528.922 29.8601 528.408 29.9042 527.874 29.9514C527.303 30.0047 526.732 30.0579 526.161 30.1112C525.558 30.2081 525.031 30.293 524.579 30.3657ZM526.582 48.9418C525.942 49.0448 525.188 49.166 524.322 49.3055C523.461 49.4825 522.736 49.6572 522.145 49.8296C521.309 50.1573 520.428 50.5695 519.504 51.0662C518.579 51.5628 517.769 52.1761 517.075 52.9062C516.349 53.6799 515.817 54.5771 515.479 55.5977C515.109 56.662 515.04 57.91 515.27 59.3415C515.44 60.3963 515.749 61.2355 516.197 61.859C516.613 62.5263 517.175 63.0156 517.882 63.3269C518.558 63.682 519.344 63.884 520.24 63.933C521.137 63.9819 522.113 63.9216 523.168 63.7518C524.373 63.5579 525.497 63.3384 526.54 63.0933C527.589 62.8859 528.368 62.6833 528.877 62.4854L529.577 48.4599L526.582 48.9418ZM505.119 44.8384C505.874 48.2666 506.127 51.6297 505.877 54.9277C505.627 58.2258 504.899 61.2188 503.694 63.9067C502.46 66.6401 500.779 68.9443 498.653 70.8193C496.497 72.7399 493.929 74.0285 490.948 74.6852C489.159 75.0793 487.44 75.1651 485.789 74.9428C484.146 74.7577 482.653 74.188 481.31 73.2336C479.937 72.3248 478.748 71.0044 477.741 69.2727C476.697 67.5491 475.88 65.3458 475.289 62.6629C474.517 59.1602 474.252 55.7412 474.494 52.4059C474.744 49.1079 475.449 46.1004 476.609 43.3834C477.768 40.6665 479.37 38.36 481.414 36.4641C483.429 34.6137 485.833 33.3806 488.628 32.7649C493.025 31.7962 496.602 32.3366 499.359 34.3862C502.124 36.4729 504.044 39.957 505.119 44.8384ZM500.436 45.9287C499.665 42.426 498.339 39.8659 496.459 38.2484C494.587 36.6682 492.235 36.19 489.403 36.8139C487.316 37.2737 485.543 38.2699 484.083 39.8027C482.587 41.3436 481.422 43.2412 480.59 45.4952C479.759 47.7492 479.295 50.2543 479.199 53.0105C479.065 55.7748 479.319 58.6103 479.959 61.5168C480.435 63.678 481.071 65.4132 481.868 66.7225C482.664 68.0318 483.558 68.9874 484.551 69.5893C485.514 70.2367 486.55 70.5945 487.659 70.6627C488.739 70.7764 489.8 70.7183 490.844 70.4885C492.968 70.0206 494.774 68.9975 496.263 67.4192C497.76 65.8782 498.924 63.9807 499.756 61.7267C500.55 59.4809 501.014 56.9758 501.148 54.2114C501.289 51.4843 501.052 48.7234 500.436 45.9287ZM443.534 46.6986C444.546 45.503 445.703 44.544 447.007 43.8214C448.31 43.0989 449.88 42.4797 451.716 41.964C453.884 41.3555 455.921 41.1997 457.827 41.4967C459.744 41.8305 461.486 42.5303 463.054 43.5962C464.631 44.6989 466.001 46.1177 467.162 47.8526C468.322 49.5875 469.223 51.5938 469.862 53.8714C471.027 58.0225 471.427 61.7745 471.06 65.1272C470.704 68.5166 469.813 71.4817 468.386 74.0224C466.959 76.5631 465.149 78.6565 462.956 80.3027C460.726 81.9591 458.344 83.1432 455.809 83.8549C453.715 84.4428 451.966 84.7754 450.561 84.8529C449.156 84.9303 447.974 84.8856 447.016 84.7187L447.87 80.1392C448.718 80.337 449.784 80.3943 451.069 80.3111C452.327 80.2749 453.727 80.0402 455.27 79.607C457.328 79.0294 459.182 78.0133 460.835 76.5586C462.461 75.1509 463.753 73.401 464.711 71.3089C465.669 69.2168 466.231 66.8399 466.395 64.1781C466.559 61.5163 466.218 58.6792 465.373 55.6669C464.877 53.9036 464.198 52.3307 463.334 50.9483C462.444 49.613 461.422 48.5129 460.268 47.648C459.087 46.8302 457.784 46.2844 456.36 46.0106C454.909 45.7838 453.376 45.8973 451.759 46.3511C450.033 46.8359 448.652 47.4218 447.616 48.1089C446.59 48.8327 445.691 49.5807 444.917 50.3529L443.534 46.6986ZM420.924 90.318L437.497 84.6567L433.065 48.3093L437.398 46.8292L442.279 87.4991L417.148 96.0835L412.213 55.4322L416.546 53.9521L420.924 90.318ZM407.429 72.7828C408.764 76.0293 409.593 79.2984 409.916 82.5902C410.238 85.8819 410.038 88.9555 409.314 91.8111C408.57 94.7164 407.312 97.2759 405.541 99.4897C403.749 101.753 401.442 103.466 398.619 104.627C396.925 105.324 395.246 105.705 393.581 105.771C391.931 105.872 390.362 105.568 388.875 104.86C387.366 104.201 385.967 103.106 384.676 101.574C383.351 100.056 382.165 98.0269 381.12 95.4862C379.756 92.1692 378.905 88.8471 378.568 85.5201C378.246 82.2283 378.421 79.1443 379.095 76.268C379.768 73.3917 380.948 70.8436 382.634 68.6235C384.3 66.4532 386.455 64.8238 389.102 63.7352C393.266 62.0225 396.882 61.9378 399.951 63.481C403.035 65.0595 405.527 68.1601 407.429 72.7828ZM403.004 74.6646C401.64 71.3475 399.892 69.0545 397.761 67.7856C395.645 66.552 393.246 66.4868 390.564 67.5899C388.588 68.4027 387.013 69.6899 385.84 71.4515C384.631 73.2276 383.812 75.2975 383.381 77.6612C382.95 80.025 382.926 82.5726 383.306 85.304C383.652 88.0499 384.391 90.7991 385.523 93.5515C386.365 95.5982 387.291 97.1977 388.301 98.3499C389.311 99.5022 390.357 100.289 391.438 100.711C392.499 101.182 393.581 101.356 394.685 101.232C395.769 101.158 396.804 100.917 397.792 100.511C399.804 99.6837 401.406 98.3643 402.601 96.5529C403.809 94.7768 404.629 92.7069 405.059 90.3431C405.454 87.9939 405.479 85.4463 405.134 82.7004C404.803 79.9898 404.093 77.3112 403.004 74.6646ZM349.573 112.446L350.633 118.622L350.838 118.521L351.29 112.176L355.637 89.8848L356.869 89.2787L370.756 102.605L373.951 107.157L374.156 107.056L371.941 101.512L365.182 74.7953L369.086 72.876L379.111 112.592L376.286 113.981L360.568 98.8765L357.828 95.2491L357.776 95.2743L357.434 100.545L352.403 125.724L348.756 127.517L338.731 87.801L342.84 85.7807L349.573 112.446ZM318.816 129.697L319.945 134.399L320.094 134.313L320.613 128.461L327.918 93.5057L330.445 92.0456L343.101 131.003L339.136 133.293L330.514 106.811L329.578 102.329L329.379 102.444L328.803 108.197L321.592 143.428L319.065 144.888L306.359 105.959L310.324 103.669L318.816 129.697ZM286.344 140.739L301.518 130.689L294.57 113.254L298.387 110.726L313.448 148.806L309.631 151.334L303.045 134.757L287.919 144.776L294.504 161.352L290.687 163.881L275.626 125.801L279.443 123.273L286.344 140.739ZM257.948 152.379L269.135 144.019L267.441 131.425L271.338 128.513L277.173 174.952L275.477 176.219L246.488 147.081L250.018 144.443L257.948 152.379ZM269.814 148.657L260.782 155.406L269.409 164.178L273.132 168.969L273.178 168.935L271.541 162.442L269.814 148.657ZM233.99 181.369L247.927 169.663L239.047 153.128L242.554 150.184L261.834 186.311L258.328 189.255L249.906 173.532L236.013 185.201L244.435 200.924L240.928 203.869L221.648 167.742L225.154 164.797L233.99 181.369ZM212.164 213.121L214.362 217.427L214.486 217.309L213.622 211.498L212.545 175.804L214.661 173.793L236.08 208.709L232.761 211.863L218.183 188.133L216.224 183.995L216.058 184.152L216.843 189.881L218.075 225.821L215.959 227.832L194.499 192.956L197.818 189.802L212.164 213.121ZM187.814 238.863L190.276 243.025L190.392 242.899L189.169 237.153L185.879 201.595L187.865 199.457L211.411 232.975L208.294 236.329L192.271 213.55L190.058 209.541L189.902 209.709L191.042 215.377L194.503 251.172L192.516 253.31L168.932 219.834L172.048 216.48L187.814 238.863ZM210.981 247.732C209.947 246.771 208.916 246.282 207.89 246.266C206.837 246.278 205.882 246.745 205.025 247.667C203.935 248.841 203.318 250.065 203.176 251.34C203.062 252.64 203.351 253.898 204.043 255.114L200.487 257.513C199.445 255.607 199.087 253.582 199.413 251.437C199.767 249.318 200.879 247.253 202.749 245.24C204.515 243.339 206.275 242.37 208.029 242.333C209.81 242.321 211.398 242.911 212.792 244.102L210.981 247.732ZM163.352 248.787C166.123 250.942 168.466 253.368 170.381 256.065C172.295 258.762 173.648 261.529 174.438 264.367C175.235 267.258 175.414 270.104 174.976 272.905C174.545 275.76 173.392 278.392 171.519 280.802C170.394 282.248 169.126 283.413 167.714 284.296C166.332 285.203 164.82 285.719 163.176 285.843C161.54 286.021 159.781 285.765 157.901 285.076C155.996 284.417 153.96 283.244 151.791 281.558C148.96 279.356 146.572 276.895 144.627 274.175C142.712 271.477 141.333 268.713 140.489 265.882C139.646 263.051 139.404 260.254 139.765 257.489C140.133 254.779 141.195 252.294 142.952 250.035C145.716 246.48 148.813 244.611 152.243 244.426C155.703 244.265 159.406 245.719 163.352 248.787ZM160.446 252.617C157.615 250.416 154.959 249.293 152.479 249.25C150.03 249.23 147.915 250.365 146.135 252.654C144.823 254.341 144.096 256.241 143.952 258.352C143.785 260.494 144.102 262.698 144.902 264.963C145.702 267.229 146.945 269.452 148.632 271.634C150.296 273.846 152.302 275.865 154.652 277.692C156.399 279.05 157.997 279.979 159.446 280.477C160.895 280.976 162.194 281.14 163.341 280.969C164.496 280.851 165.522 280.465 166.418 279.809C167.322 279.206 168.102 278.483 168.757 277.64C170.092 275.923 170.828 273.982 170.965 271.817C171.132 269.675 170.816 267.471 170.016 265.206C169.192 262.97 167.949 260.747 166.285 258.535C164.652 256.347 162.705 254.374 160.446 252.617ZM138.935 287.787L140.588 285.382L127.509 271.672L130.103 267.898L158.324 297.57L155.731 301.344L142.623 287.474L141.986 289.815L147.4 313.466L144.191 318.136L139.122 294.791L139.151 291.616L136 292.16L114.997 289.879L117.947 285.587L138.935 287.787ZM120.301 317.147L115.776 314.783L115.656 314.979L119.014 319.581L130.766 340.518L128.139 344.815L113.832 318.291C112.337 315.543 111.106 313.203 110.141 311.271C109.175 309.339 108.479 307.662 108.053 306.238C107.606 304.847 107.42 303.615 107.495 302.543C107.582 301.523 107.934 300.508 108.551 299.499C109.188 298.457 109.793 297.687 110.366 297.187C110.972 296.708 111.561 296.33 112.133 296.054L114.338 300.018C113.694 300.34 113.187 300.656 112.818 300.967C112.462 301.331 112.144 301.74 111.866 302.196C111.348 303.043 111.378 304.201 111.954 305.672C112.531 307.142 113.361 308.857 114.444 310.816L143.604 319.521L141.066 323.671L120.301 317.147ZM99.7363 352.764L108.337 336.723L93.9568 324.662L96.1204 320.627L127.427 347.024L125.263 351.059L111.609 339.582L103.036 355.572L116.69 367.049L114.526 371.084L83.22 344.688L85.3836 340.652L99.7363 352.764ZM91.3051 390.331L94.9488 393.509L95.0202 393.353L92.0542 388.282L77.7644 355.556L78.9793 352.901L111.859 377.33L109.953 381.494L87.5875 364.899L84.2279 361.787L84.1326 361.995L86.9946 367.019L101.521 399.916L100.306 402.571L67.4022 378.194L69.3079 374.03L91.3051 390.331ZM56.0761 410.765C55.7285 409.238 55.6574 407.737 55.863 406.261C56.0686 404.785 56.5172 403.158 57.2088 401.38C58.0249 399.282 59.1244 397.56 60.5075 396.215C61.9261 394.883 63.5324 393.912 65.3263 393.299C67.1558 392.701 69.1127 392.459 71.197 392.574C73.2813 392.688 75.4259 393.174 77.6307 394.032C81.649 395.595 84.888 397.53 87.3475 399.838C89.8426 402.16 91.6768 404.654 92.8502 407.321C94.0235 409.989 94.6091 412.693 94.607 415.436C94.591 418.213 94.1058 420.829 93.1514 423.283C92.3629 425.31 91.5775 426.908 90.7951 428.077C90.0126 429.247 89.2667 430.165 88.5574 430.83L85.4105 427.395C86.0783 426.836 86.7649 426.019 87.4702 424.942C88.1974 423.915 88.8514 422.654 89.4323 421.161C90.2069 419.169 90.5093 417.076 90.3396 414.881C90.1916 412.735 89.5694 410.651 88.473 408.628C87.3767 406.605 85.8141 404.728 83.7852 402.997C81.7563 401.266 79.2839 399.834 76.3679 398.699C74.661 398.036 72.9955 397.633 71.3715 397.493C69.7693 397.402 68.2757 397.558 66.8907 397.961C65.5275 398.413 64.3084 399.126 63.2336 400.1C62.1805 401.124 61.3497 402.418 60.7411 403.982C60.091 405.654 59.7293 407.11 59.6561 408.35C59.6185 409.605 59.6757 410.774 59.8278 411.856L56.0761 410.765ZM87.8767 436.318L86.438 440.665L72.6837 432.677C72.66 432.87 72.6063 433.154 72.5226 433.528C72.4632 433.95 72.3797 434.385 72.272 434.831C72.1886 435.326 72.063 435.827 71.8952 436.334C71.7636 436.854 71.6318 437.312 71.4999 437.711C70.9964 439.232 70.3358 440.621 69.5179 441.878C68.7001 443.135 67.7189 444.156 66.5743 444.943C65.466 445.742 64.1941 446.245 62.7586 446.453C61.3232 446.662 59.718 446.472 57.9431 445.884C55.4798 445.069 53.4865 443.927 51.963 442.458C50.4395 440.99 49.3379 439.279 48.658 437.325C48.0024 435.42 47.7264 433.339 47.8302 431.083C47.9702 428.838 48.4358 426.521 49.2271 424.13C49.3829 423.659 49.5988 423.067 49.8748 422.355C50.1026 421.666 50.4146 420.845 50.8107 419.891C51.0747 419.215 51.387 418.514 51.7474 417.79C52.0958 417.101 52.4685 416.461 52.8654 415.869L87.8767 436.318ZM52.7976 426.457C52.306 427.942 52.0136 429.433 51.9203 430.929C51.8632 432.438 52.0592 433.849 52.5085 435.163C52.994 436.49 53.7506 437.664 54.7784 438.688C55.8305 439.759 57.244 440.589 59.0189 441.176C61.1924 441.896 63.032 441.681 64.5378 440.531C66.0316 439.418 67.1741 437.666 67.9654 435.275C68.0613 434.985 68.1691 434.599 68.2887 434.116C68.3963 433.669 68.51 433.205 68.6296 432.722C68.7492 432.239 68.8388 431.786 68.8982 431.364C68.9576 430.941 68.9992 430.633 69.0229 430.44L54.5982 422.109C54.3457 422.508 54.0453 423.112 53.6971 423.921C53.3851 424.742 53.0853 425.588 52.7976 426.457ZM63.0648 493.583C61.62 493.227 60.3597 492.68 59.2838 491.943C58.208 491.207 57.326 490.321 56.6378 489.287C55.9497 488.252 55.4648 487.111 55.1832 485.863C54.9295 484.66 54.8653 483.407 54.9907 482.101L54.7684 482.047C54.3822 482.816 53.8754 483.516 53.2482 484.148C52.6579 484.788 51.9794 485.308 51.2126 485.709C50.4458 486.109 49.5952 486.371 48.6609 486.494C47.7637 486.627 46.8149 486.57 45.8147 486.323C43.2214 485.683 41.2006 484.635 39.7523 483.177C38.3318 481.766 37.3179 480.141 36.7105 478.301C36.0939 476.498 35.824 474.565 35.9007 472.501C36.0052 470.483 36.2905 468.53 36.7564 466.64C36.9026 466.048 37.0807 465.325 37.2908 464.473C37.4918 463.658 37.7892 462.611 38.1831 461.333C38.9535 459.165 39.5135 457.771 39.8632 457.149L76.15 474.704C76.0252 476.167 75.8221 477.787 75.541 479.565C75.2506 481.379 74.8542 483.306 74.3518 485.343C74.0138 486.714 73.5042 487.983 72.8232 489.152C72.1791 490.329 71.391 491.294 70.4587 492.046C69.5173 492.836 68.4224 493.372 67.174 493.653C65.9164 493.972 64.5467 493.949 63.0648 493.583ZM40.456 468.85C40.1362 470.146 39.9692 471.461 39.955 472.793C39.9778 474.135 40.1993 475.389 40.6195 476.553C41.0396 477.718 41.7138 478.729 42.642 479.587C43.561 480.481 44.7985 481.121 46.3545 481.504C47.5029 481.788 48.5161 481.743 49.3941 481.37C50.3091 481.006 51.0985 480.434 51.7623 479.655C52.4261 478.875 52.9737 477.93 53.4051 476.818C53.8644 475.752 54.2357 474.645 54.5189 473.496L55.4781 469.607L42.2564 463.222C42.1275 463.426 41.9897 463.745 41.843 464.181C41.6872 464.653 41.5268 465.144 41.3619 465.654C41.1878 466.2 41.0137 466.747 40.8396 467.294C40.6935 467.886 40.5656 468.405 40.456 468.85ZM58.3387 474.261C58.1834 474.891 58.0007 475.632 57.7906 476.484C57.6175 477.345 57.4949 478.082 57.4229 478.693C57.398 479.59 57.4335 480.562 57.5294 481.607C57.6253 482.653 57.8737 483.638 58.2746 484.562C58.7034 485.532 59.3215 486.372 60.1289 487.082C60.9642 487.838 62.0857 488.39 63.4935 488.737C64.5308 488.993 65.424 489.036 66.173 488.867C66.95 488.745 67.6199 488.419 68.1827 487.889C68.7734 487.406 69.2665 486.761 69.6618 485.955C70.0572 485.149 70.3827 484.227 70.6385 483.189C70.9309 482.004 71.1679 480.883 71.3496 479.828C71.5683 478.781 71.6861 477.985 71.7029 477.439L59.065 471.316L58.3387 474.261ZM50.4489 541.568L56.1226 544.228L56.1571 544.002L51.2083 540.005L35.3985 523.701L35.6055 522.343L54.4769 518.561L60.038 518.54L60.0725 518.314L54.2571 516.964L28.4699 507.244L29.1254 502.944L67.447 517.412L66.9726 520.524L45.5955 524.792L41.0528 524.968L41.0442 525.024L45.174 528.317L62.9623 546.834L62.35 550.851L24.0284 536.383L24.7183 531.857L50.4489 541.568ZM47.0928 576.624L51.5998 578.375L51.6139 578.204L47.101 574.442L22.5404 548.519L22.781 545.61L62.0057 557.412L61.6282 561.975L34.9539 553.968L30.7369 552.184L30.718 552.412L35.1169 556.164L59.9579 582.167L59.7173 585.076L20.4879 573.332L20.8654 568.769L47.0928 576.624ZM59.2742 592.068C59.5787 593.526 59.7668 595.058 59.8385 596.663C59.9101 598.268 59.925 599.853 59.8832 601.416C59.8363 603.171 59.6023 604.787 59.1812 606.264C58.759 607.78 58.1135 609.079 57.2448 610.163C56.3761 611.247 55.2662 612.076 53.9149 612.651C52.6007 613.264 51.0282 613.547 49.1973 613.498C46.2985 613.421 43.8907 612.822 41.974 611.702C40.0562 610.62 38.529 609.205 37.3925 607.457C36.293 605.748 35.5239 603.819 35.0851 601.67C34.6463 599.521 34.456 597.359 34.5141 595.185C34.5192 594.994 34.5273 594.689 34.5385 594.27C34.5487 593.888 34.5599 593.469 34.5721 593.011C34.6225 592.554 34.6724 592.116 34.7217 591.698C34.7711 591.279 34.8174 590.975 34.8606 590.786L19.7273 587.175L19.8496 582.598L59.2742 592.068ZM55.7898 600.334C55.8132 599.456 55.798 598.597 55.7442 597.756C55.7274 596.954 55.669 596.285 55.5688 595.747L39.0128 591.813C38.9324 591.963 38.8686 592.21 38.8213 592.552C38.8111 592.933 38.7818 593.314 38.7335 593.695C38.6841 594.113 38.6544 594.513 38.6442 594.894C38.634 595.276 38.6263 595.562 38.6212 595.753C38.5774 597.393 38.7068 598.98 39.0093 600.515C39.3118 602.05 39.8674 603.401 40.6759 604.568C41.4835 605.772 42.5456 606.736 43.8622 607.458C45.1779 608.219 46.8465 608.626 48.868 608.68C50.2411 608.716 51.3725 608.518 52.262 608.083C53.1515 607.649 53.8358 607.038 54.3149 606.249C54.8311 605.499 55.1984 604.612 55.4166 603.587C55.6348 602.563 55.7592 601.478 55.7898 600.334Z" fill="#E3D5B7"/>
    <defs>
        <linearGradient id="paint0_linear_42_664" x1="547.772" y1="705.754" x2="721.635" y2="663.867" gradientUnits="userSpaceOnUse">
            <stop stop-color="white" stop-opacity="0"/>
            <stop offset="1" stop-color="#E3D5B7"/>
        </linearGradient>
        <linearGradient id="paint1_linear_42_664" x1="522.472" y1="516.102" x2="518.505" y2="696.379" gradientUnits="userSpaceOnUse">
            <stop stop-color="white" stop-opacity="0"/>
            <stop offset="1" stop-color="#E3D5B7"/>
        </linearGradient>
        <linearGradient id="paint2_linear_42_664" x1="725.543" y1="543.31" x2="539.202" y2="489.042" gradientUnits="userSpaceOnUse">
            <stop stop-color="white" stop-opacity="0"/>
            <stop offset="1" stop-color="#E3D5B7"/>
        </linearGradient>
        <linearGradient id="paint3_linear_42_664" x1="644.55" y1="733.042" x2="745.598" y2="564.928" gradientUnits="userSpaceOnUse">
            <stop stop-color="white" stop-opacity="0"/>
            <stop offset="1" stop-color="#E3D5B7"/>
        </linearGradient>
        <linearGradient id="paint4_linear_42_664" x1="467.384" y1="601.725" x2="607.908" y2="753.61" gradientUnits="userSpaceOnUse">
            <stop stop-color="white" stop-opacity="0"/>
            <stop offset="1" stop-color="#E3D5B7"/>
        </linearGradient>
        <linearGradient id="paint5_linear_42_664" x1="651.3" y1="464.485" x2="459.782" y2="570.175" gradientUnits="userSpaceOnUse">
            <stop stop-color="white" stop-opacity="0"/>
            <stop offset="1" stop-color="#E3D5B7"/>
        </linearGradient>
        <linearGradient id="paint6_linear_42_664" x1="742.049" y1="681.592" x2="689.218" y2="466.945" gradientUnits="userSpaceOnUse">
            <stop stop-color="white" stop-opacity="0"/>
            <stop offset="1" stop-color="#7AABC4"/>
        </linearGradient>
        <linearGradient id="paint7_linear_42_664" x1="494.049" y1="712.794" x2="731.9" y2="718.377" gradientUnits="userSpaceOnUse">
            <stop stop-color="white" stop-opacity="0"/>
            <stop offset="1" stop-color="#E3D5B7"/>
        </linearGradient>
        <linearGradient id="paint8_linear_42_664" x1="527.522" y1="461.741" x2="460.015" y2="691.867" gradientUnits="userSpaceOnUse">
            <stop stop-color="white" stop-opacity="0"/>
            <stop offset="1" stop-color="#E3D5B7"/>
        </linearGradient>
        <linearGradient id="paint9_linear_42_664" x1="780.403" y1="564.541" x2="561.057" y2="429.765" gradientUnits="userSpaceOnUse">
            <stop stop-color="white" stop-opacity="0"/>
            <stop offset="1" stop-color="#E3D5B7"/>
        </linearGradient>
        <linearGradient id="paint10_linear_42_664" x1="607.037" y1="780.922" x2="795.463" y2="594.963" gradientUnits="userSpaceOnUse">
            <stop stop-color="white" stop-opacity="0"/>
            <stop offset="1" stop-color="#E3D5B7"/>
        </linearGradient>
        <linearGradient id="paint11_linear_42_664" x1="429.072" y1="553.318" x2="558.644" y2="792.242" gradientUnits="userSpaceOnUse">
            <stop stop-color="white" stop-opacity="0"/>
            <stop offset="1" stop-color="#7AABC4"/>
        </linearGradient>
        <linearGradient id="paint12_linear_42_664" x1="712.294" y1="438.408" x2="428.533" y2="506.771" gradientUnits="userSpaceOnUse">
            <stop stop-color="white" stop-opacity="0"/>
            <stop offset="1" stop-color="#E3D5B7"/>
        </linearGradient>
        <linearGradient id="paint13_linear_42_664" x1="753.574" y1="747.956" x2="760.048" y2="453.728" gradientUnits="userSpaceOnUse">
            <stop stop-color="white" stop-opacity="0"/>
            <stop offset="1" stop-color="#E3D5B7"/>
        </linearGradient>
        <linearGradient id="paint14_linear_42_664" x1="422.164" y1="703.527" x2="726.289" y2="792.098" gradientUnits="userSpaceOnUse">
            <stop stop-color="white" stop-opacity="0"/>
            <stop offset="1" stop-color="#E3D5B7"/>
        </linearGradient>
        <linearGradient id="paint15_linear_42_664" x1="554.328" y1="393.833" x2="389.446" y2="668.23" gradientUnits="userSpaceOnUse">
            <stop stop-color="white" stop-opacity="0"/>
            <stop offset="1" stop-color="#E3D5B7"/>
        </linearGradient>
        <linearGradient id="paint16_linear_42_664" x1="843.494" y1="608.192" x2="614.146" y2="360.301" gradientUnits="userSpaceOnUse">
            <stop stop-color="white" stop-opacity="0"/>
            <stop offset="1" stop-color="#E3D5B7"/>
        </linearGradient>
        <linearGradient id="paint17_linear_42_664" x1="543.332" y1="832.188" x2="855.907" y2="659.693" gradientUnits="userSpaceOnUse">
            <stop stop-color="white" stop-opacity="0"/>
            <stop offset="1" stop-color="#7AABC4"/>
        </linearGradient>
        <linearGradient id="paint18_linear_42_664" x1="395.232" y1="477.825" x2="481.457" y2="828.151" gradientUnits="userSpaceOnUse">
            <stop stop-color="white" stop-opacity="0"/>
            <stop offset="1" stop-color="#E3D5B7"/>
        </linearGradient>
        <linearGradient id="paint19_linear_42_664" x1="799.968" y1="426.924" x2="411.773" y2="417.812" gradientUnits="userSpaceOnUse">
            <stop stop-color="white" stop-opacity="0"/>
            <stop offset="1" stop-color="#E3D5B7"/>
        </linearGradient>
        <linearGradient id="paint20_linear_42_664" x1="745.352" y1="836.666" x2="855.513" y2="461.073" gradientUnits="userSpaceOnUse">
            <stop stop-color="white" stop-opacity="0"/>
            <stop offset="1" stop-color="#7AABC4"/>
        </linearGradient>
        <linearGradient id="paint21_linear_42_664" x1="332.593" y1="668.891" x2="690.587" y2="888.858" gradientUnits="userSpaceOnUse">
            <stop stop-color="white" stop-opacity="0"/>
            <stop offset="1" stop-color="#AD3831"/>
        </linearGradient>
        <linearGradient id="paint22_linear_42_664" x1="615.576" y1="315.722" x2="308.047" y2="619.225" gradientUnits="userSpaceOnUse">
            <stop stop-color="white" stop-opacity="0"/>
            <stop offset="1" stop-color="#E3D5B7"/>
        </linearGradient>
        <linearGradient id="paint23_linear_42_664" x1="905.999" y1="687.193" x2="694.561" y2="297.229" gradientUnits="userSpaceOnUse">
            <stop stop-color="white" stop-opacity="0"/>
            <stop offset="1" stop-color="#E3D5B7"/>
        </linearGradient>
        <linearGradient id="paint24_linear_42_664" x1="443.788" y1="874.746" x2="906.913" y2="763.171" gradientUnits="userSpaceOnUse">
            <stop stop-color="white" stop-opacity="0"/>
            <stop offset="1" stop-color="#E3D5B7"/>
        </linearGradient>
        <linearGradient id="paint25_linear_42_664" x1="376.381" y1="369.55" x2="365.814" y2="849.759" gradientUnits="userSpaceOnUse">
            <stop stop-color="white" stop-opacity="0"/>
            <stop offset="1" stop-color="#E3D5B7"/>
        </linearGradient>
        <linearGradient id="paint26_linear_42_664" x1="917.301" y1="442.046" x2="420.939" y2="297.491" gradientUnits="userSpaceOnUse">
            <stop stop-color="white" stop-opacity="0"/>
            <stop offset="1" stop-color="#7AABC4"/>
        </linearGradient>
        <linearGradient id="paint27_linear_42_664" x1="701.583" y1="947.451" x2="970.718" y2="499.625" gradientUnits="userSpaceOnUse">
            <stop stop-color="white" stop-opacity="0"/>
            <stop offset="1" stop-color="#AD3831"/>
        </linearGradient>
        <linearGradient id="paint28_linear_42_664" x1="229.673" y1="597.645" x2="603.991" y2="1002.23" gradientUnits="userSpaceOnUse">
            <stop stop-color="white" stop-opacity="0"/>
            <stop offset="1" stop-color="#7AABC4"/>
        </linearGradient>
        <linearGradient id="paint29_linear_42_664" x1="719.554" y1="232.071" x2="209.402" y2="513.599" gradientUnits="userSpaceOnUse">
            <stop stop-color="white" stop-opacity="0"/>
            <stop offset="1" stop-color="#E3D5B7"/>
        </linearGradient>
        <linearGradient id="paint30_linear_42_664" x1="961.276" y1="810.408" x2="820.547" y2="238.644" gradientUnits="userSpaceOnUse">
            <stop stop-color="white" stop-opacity="0"/>
            <stop offset="1" stop-color="#7AABC4"/>
        </linearGradient>
        <linearGradient id="paint31_linear_42_664" x1="300.679" y1="893.496" x2="934.25" y2="908.368" gradientUnits="userSpaceOnUse">
            <stop stop-color="white" stop-opacity="0"/>
            <stop offset="1" stop-color="#E3D5B7"/>
        </linearGradient>
        <linearGradient id="paint32_linear_42_664" x1="1063.49" y1="498.578" x2="479.206" y2="139.573" gradientUnits="userSpaceOnUse">
            <stop stop-color="white" stop-opacity="0"/>
            <stop offset="1" stop-color="#AD3831"/>
        </linearGradient>
        <linearGradient id="paint33_linear_42_664" x1="190.817" y1="448.163" x2="510.596" y2="1100.25" gradientUnits="userSpaceOnUse">
            <stop stop-color="white" stop-opacity="0"/>
            <stop offset="1" stop-color="#AD3831"/>
        </linearGradient>
    </defs>
</svg>
