<svg width="1409" height="1409" viewBox="0 0 1409 1409" fill="none" xmlns="http://www.w3.org/2000/svg">
    <g clip-path="url(#clip0_2151_11489)">
        <path d="M820.867 773.534C781.612 839.539 695.388 862.553 628.281 824.938" stroke="url(#paint0_linear_2151_11489)" stroke-width="4.57829"/>
        <path d="M599.242 809.728C541.891 753.855 541.891 663.267 599.242 607.393" stroke="url(#paint1_linear_2151_11489)" stroke-width="4.76906"/>
        <path d="M622.234 582.263C695.049 541.447 788.608 566.419 831.202 638.039" stroke="url(#paint2_linear_2151_11489)" stroke-width="4.96776"/>
        <path d="M849.515 666.544C872.707 749.749 822.932 834.874 738.338 856.676" stroke="url(#paint3_linear_2151_11489)" stroke-width="5.17475"/>
        <path d="M702.387 867.566C610.714 867.566 536.398 795.166 536.398 705.856" stroke="url(#paint4_linear_2151_11489)" stroke-width="5.39036"/>
        <path d="M534.646 669.155C559.811 578.872 654.621 524.862 746.411 548.519" stroke="url(#paint5_linear_2151_11489)" stroke-width="5.61496"/>
        <path d="M786.325 557.655C872.056 605.71 900.901 713.024 850.751 797.347" stroke="url(#paint6_linear_2151_11489)" stroke-width="5.84891"/>
        <path d="M832.28 833.494C759.012 904.874 640.222 904.874 566.954 833.494" stroke="url(#paint7_linear_2151_11489)" stroke-width="6.09262"/>
        <path d="M535.615 804.912C481.199 713.415 512.497 596.972 605.521 544.828" stroke="url(#paint8_linear_2151_11489)" stroke-width="6.34649"/>
        <path d="M644.547 520.13C752.618 492.276 864.245 555.867 893.874 662.164" stroke="url(#paint9_linear_2151_11489)" stroke-width="6.61093"/>
        <path d="M908.133 705.106C908.133 819.203 813.192 911.697 696.077 911.697" stroke="url(#paint10_linear_2151_11489)" stroke-width="6.88637"/>
        <path d="M645.912 913.886C528.647 883.663 459.648 765.661 491.797 650.322" stroke="url(#paint11_linear_2151_11489)" stroke-width="7.1733"/>
        <path d="M501.69 602.502C565.758 494.776 706.483 457.214 816.007 518.607" stroke="url(#paint12_linear_2151_11489)" stroke-width="7.47219"/>
        <path d="M863.433 543.449C957.035 634.639 957.035 782.486 863.433 873.676" stroke="url(#paint13_linear_2151_11489)" stroke-width="7.78352"/>
        <path d="M825.964 914.68C707.122 981.295 554.426 940.538 484.908 823.648" stroke="url(#paint14_linear_2151_11489)" stroke-width="8.10785"/>
        <path d="M454.934 777.106C417.083 641.308 498.321 502.376 636.386 466.792" stroke="url(#paint15_linear_2151_11489)" stroke-width="8.44567"/>
        <path d="M695.098 449.026C844.718 449.026 966.008 567.191 966.008 712.954" stroke="url(#paint16_linear_2151_11489)" stroke-width="8.79758"/>
        <path d="M968.835 772.856C927.764 920.206 773.025 1008.36 623.215 969.744" stroke="url(#paint17_linear_2151_11489)" stroke-width="9.16415"/>
        <path d="M558.108 954.818C418.187 876.387 371.11 701.24 452.959 563.616" stroke="url(#paint18_linear_2151_11489)" stroke-width="9.546"/>
        <path d="M483.098 504.644C602.678 388.145 796.556 388.145 916.136 504.644" stroke="url(#paint19_linear_2151_11489)" stroke-width="9.94374"/>
        <path d="M967.247 551.279C1056.06 700.611 1004.98 890.657 853.152 975.76" stroke="url(#paint20_linear_2151_11489)" stroke-width="10.3581"/>
        <path d="M789.516 1016.08C613.134 1061.54 430.948 957.752 382.592 784.265" stroke="url(#paint21_linear_2151_11489)" stroke-width="10.7897"/>
        <path d="M359.273 714.177C359.273 527.959 514.226 377 705.37 377" stroke="url(#paint22_linear_2151_11489)" stroke-width="11.2392"/>
        <path d="M787.253 373.436C978.64 422.763 1091.25 615.354 1038.78 803.599" stroke="url(#paint23_linear_2151_11489)" stroke-width="11.7075"/>
        <path d="M1022.6 881.651C918.04 1057.47 688.364 1118.77 509.609 1018.58" stroke="url(#paint24_linear_2151_11489)" stroke-width="12.1953"/>
        <path d="M432.212 978.044C279.444 829.213 279.444 587.912 432.212 439.081" stroke="url(#paint25_linear_2151_11489)" stroke-width="12.7035"/>
        <path d="M493.396 372.15C687.357 263.428 936.571 329.947 1050.03 520.724" stroke="url(#paint26_linear_2151_11489)" stroke-width="13.2328"/>
        <path d="M1098.95 596.642C1160.72 818.277 1028.14 1045.03 802.801 1103.1" stroke="url(#paint27_linear_2151_11489)" stroke-width="13.7842"/>
        <path d="M706.986 1132.13C462.793 1132.13 264.836 939.275 264.836 701.376" stroke="url(#paint28_linear_2151_11489)" stroke-width="14.3585"/>
        <path d="M260.151 603.607C327.183 363.117 579.732 219.247 824.235 282.264" stroke="url(#paint29_linear_2151_11489)" stroke-width="14.9568"/>
        <path d="M930.563 306.623C1158.93 434.629 1235.76 720.486 1102.18 945.102" stroke="url(#paint30_linear_2151_11489)" stroke-width="15.58"/>
        <path d="M1053 1041.36C857.83 1231.49 541.404 1231.49 346.238 1041.36" stroke="url(#paint31_linear_2151_11489)" stroke-width="16.2291"/>
        <path d="M262.79 965.219C117.84 721.495 201.211 411.321 449.004 272.425" stroke="url(#paint32_linear_2151_11489)" stroke-width="16.9053"/>
        <path d="M552.903 206.65C840.775 132.455 1138.12 301.844 1217.04 584.99" stroke="url(#paint33_linear_2151_11489)" stroke-width="17.6097"/>
        <path d="M1255.05 699.374C1255.05 1003.3 1002.16 1249.68 690.192 1249.68" stroke="url(#paint34_linear_2151_11489)" stroke-width="18.3435"/>
        <path d="M556.571 1255.49C244.211 1174.99 60.414 860.663 146.05 553.43" stroke="url(#paint35_linear_2151_11489)" stroke-width="19.1078"/>
        <path d="M172.533 426.052C343.192 139.097 718.045 39.0436 1009.79 202.576" stroke="url(#paint36_linear_2151_11489)" stroke-width="19.9039"/>
        <path d="M1136.02 268.743C1385.35 511.649 1385.35 905.476 1136.02 1148.38" stroke="url(#paint37_linear_2151_11489)" stroke-width="20.7333"/>
        <path d="M1036.15 1257.57C719.586 1435.02 312.845 1326.45 127.667 1015.09" stroke="url(#paint38_linear_2151_11489)" stroke-width="21.5972"/>
        <path d="M47.8503 891.189C-52.9755 529.46 163.422 159.381 531.189 64.5952" stroke="url(#paint39_linear_2151_11489)" stroke-width="22.497"/>
        <path d="M687.58 17.2344C1086.13 17.2344 1409.21 331.993 1409.21 720.267" stroke="url(#paint40_linear_2151_11489)" stroke-width="23.4344"/>
    </g>
    <defs>
        <linearGradient id="paint0_linear_2151_11489" x1="631.44" y1="819.626" x2="820.84" y2="773.424" gradientUnits="userSpaceOnUse">
            <stop stop-color="white" stop-opacity="0"/>
            <stop offset="1" stop-color="#E3D5B7"/>
        </linearGradient>
        <linearGradient id="paint1_linear_2151_11489" x1="603.857" y1="611.89" x2="599.477" y2="809.733" gradientUnits="userSpaceOnUse">
            <stop stop-color="white" stop-opacity="0"/>
            <stop offset="1" stop-color="#7AA9C1"/>
        </linearGradient>
        <linearGradient id="paint2_linear_2151_11489" x1="825.342" y1="641.324" x2="622.407" y2="581.672" gradientUnits="userSpaceOnUse">
            <stop stop-color="white" stop-opacity="0"/>
            <stop offset="1" stop-color="#E3D5B7"/>
        </linearGradient>
        <linearGradient id="paint3_linear_2151_11489" x1="736.472" y1="849.981" x2="847.265" y2="665.195" gradientUnits="userSpaceOnUse">
            <stop stop-color="white" stop-opacity="0"/>
            <stop offset="1" stop-color="#E3D5B7"/>
        </linearGradient>
        <linearGradient id="paint4_linear_2151_11489" x1="543.776" y1="705.856" x2="698.064" y2="871.591" gradientUnits="userSpaceOnUse">
            <stop stop-color="white" stop-opacity="0"/>
            <stop offset="1" stop-color="#E3D5B7"/>
        </linearGradient>
        <linearGradient id="paint5_linear_2151_11489" x1="744.386" y1="555.784" x2="535.848" y2="671.324" gradientUnits="userSpaceOnUse">
            <stop stop-color="white" stop-opacity="0"/>
            <stop offset="1" stop-color="#E3D5B7"/>
        </linearGradient>
        <linearGradient id="paint6_linear_2151_11489" x1="843.852" y1="793.48" x2="786.462" y2="557.621" gradientUnits="userSpaceOnUse">
            <stop stop-color="white" stop-opacity="0"/>
            <stop offset="1" stop-color="#7AABC4"/>
        </linearGradient>
        <linearGradient id="paint7_linear_2151_11489" x1="572.85" y1="827.75" x2="832.273" y2="833.802" gradientUnits="userSpaceOnUse">
            <stop stop-color="white" stop-opacity="0"/>
            <stop offset="1" stop-color="#E3D5B7"/>
        </linearGradient>
        <linearGradient id="paint8_linear_2151_11489" x1="609.901" y1="552.191" x2="536.351" y2="805.126" gradientUnits="userSpaceOnUse">
            <stop stop-color="white" stop-opacity="0"/>
            <stop offset="1" stop-color="#E3D5B7"/>
        </linearGradient>
        <linearGradient id="paint9_linear_2151_11489" x1="885.177" y1="664.405" x2="646.339" y2="517.221" gradientUnits="userSpaceOnUse">
            <stop stop-color="white" stop-opacity="0"/>
            <stop offset="1" stop-color="#AC3A33"/>
        </linearGradient>
        <linearGradient id="paint10_linear_2151_11489" x1="696.077" y1="902.515" x2="902.842" y2="699.712" gradientUnits="userSpaceOnUse">
            <stop stop-color="white" stop-opacity="0"/>
            <stop offset="1" stop-color="#7AA9C1"/>
        </linearGradient>
        <linearGradient id="paint11_linear_2151_11489" x1="501.233" y1="652.754" x2="643.181" y2="915.362" gradientUnits="userSpaceOnUse">
            <stop stop-color="white" stop-opacity="0"/>
            <stop offset="1" stop-color="#7AABC4"/>
        </linearGradient>
        <linearGradient id="paint12_linear_2151_11489" x1="810.851" y1="527.276" x2="501.734" y2="602.682" gradientUnits="userSpaceOnUse">
            <stop stop-color="white" stop-opacity="0"/>
            <stop offset="1" stop-color="#E3D5B7"/>
        </linearGradient>
        <linearGradient id="paint13_linear_2151_11489" x1="855.9" y1="866.338" x2="863.05" y2="543.441" gradientUnits="userSpaceOnUse">
            <stop stop-color="white" stop-opacity="0"/>
            <stop offset="1" stop-color="#E3D5B7"/>
        </linearGradient>
        <linearGradient id="paint14_linear_2151_11489" x1="494.472" y1="818.287" x2="825.68" y2="915.644" gradientUnits="userSpaceOnUse">
            <stop stop-color="white" stop-opacity="0"/>
            <stop offset="1" stop-color="#AC3A33"/>
        </linearGradient>
        <linearGradient id="paint15_linear_2151_11489" x1="639.432" y1="477.72" x2="458.607" y2="779.308" gradientUnits="userSpaceOnUse">
            <stop stop-color="white" stop-opacity="0"/>
            <stop offset="1" stop-color="#AC3A33"/>
        </linearGradient>
        <linearGradient id="paint16_linear_2151_11489" x1="953.967" y1="712.954" x2="702.155" y2="442.457" gradientUnits="userSpaceOnUse">
            <stop stop-color="white" stop-opacity="0"/>
            <stop offset="1" stop-color="#E3D5B7"/>
        </linearGradient>
        <linearGradient id="paint17_linear_2151_11489" x1="626.52" y1="957.887" x2="966.874" y2="769.316" gradientUnits="userSpaceOnUse">
            <stop stop-color="white" stop-opacity="0"/>
            <stop offset="1" stop-color="#7AABC4"/>
        </linearGradient>
        <linearGradient id="paint18_linear_2151_11489" x1="464.219" y1="569.927" x2="557.885" y2="954.872" gradientUnits="userSpaceOnUse">
            <stop stop-color="white" stop-opacity="0"/>
            <stop offset="1" stop-color="#E3D5B7"/>
        </linearGradient>
        <linearGradient id="paint19_linear_2151_11489" x1="906.513" y1="514.019" x2="483.11" y2="504.141" gradientUnits="userSpaceOnUse">
            <stop stop-color="white" stop-opacity="0"/>
            <stop offset="1" stop-color="#E3D5B7"/>
        </linearGradient>
        <linearGradient id="paint20_linear_2151_11489" x1="846.005" y1="963.743" x2="966.045" y2="550.929" gradientUnits="userSpaceOnUse">
            <stop stop-color="white" stop-opacity="0"/>
            <stop offset="1" stop-color="#7AABC4"/>
        </linearGradient>
        <linearGradient id="paint21_linear_2151_11489" x1="396.786" y1="780.607" x2="786.591" y2="1020.83" gradientUnits="userSpaceOnUse">
            <stop stop-color="white" stop-opacity="0"/>
            <stop offset="1" stop-color="#AD3831"/>
        </linearGradient>
        <linearGradient id="paint22_linear_2151_11489" x1="705.37" y1="391.986" x2="367.908" y2="722.98" gradientUnits="userSpaceOnUse">
            <stop stop-color="white" stop-opacity="0"/>
            <stop offset="1" stop-color="#AD3932"/>
        </linearGradient>
        <linearGradient id="paint23_linear_2151_11489" x1="1023.38" y1="799.629" x2="791.71" y2="371.027" gradientUnits="userSpaceOnUse">
            <stop stop-color="white" stop-opacity="0"/>
            <stop offset="1" stop-color="#E3D5B7"/>
        </linearGradient>
        <linearGradient id="paint24_linear_2151_11489" x1="518.024" y1="1004.43" x2="1022.53" y2="881.358" gradientUnits="userSpaceOnUse">
            <stop stop-color="white" stop-opacity="0"/>
            <stop offset="1" stop-color="#E3D5B7"/>
        </linearGradient>
        <linearGradient id="paint25_linear_2151_11489" x1="444.506" y1="451.058" x2="432.837" y2="978.058" gradientUnits="userSpaceOnUse">
            <stop stop-color="white" stop-opacity="0"/>
            <stop offset="1" stop-color="#7AA9C1"/>
        </linearGradient>
        <linearGradient id="paint26_linear_2151_11489" x1="1034.42" y1="529.473" x2="493.858" y2="370.577" gradientUnits="userSpaceOnUse">
            <stop stop-color="white" stop-opacity="0"/>
            <stop offset="1" stop-color="#7AABC4"/>
        </linearGradient>
        <linearGradient id="paint27_linear_2151_11489" x1="797.83" y1="1085.27" x2="1092.95" y2="593.047" gradientUnits="userSpaceOnUse">
            <stop stop-color="white" stop-opacity="0"/>
            <stop offset="1" stop-color="#AD3831"/>
        </linearGradient>
        <linearGradient id="paint28_linear_2151_11489" x1="284.487" y1="701.376" x2="695.47" y2="1142.85" gradientUnits="userSpaceOnUse">
            <stop stop-color="white" stop-opacity="0"/>
            <stop offset="1" stop-color="#7AABC4"/>
        </linearGradient>
        <linearGradient id="paint29_linear_2151_11489" x1="818.841" y1="301.617" x2="263.351" y2="609.383" gradientUnits="userSpaceOnUse">
            <stop stop-color="white" stop-opacity="0"/>
            <stop offset="1" stop-color="#E3D5B7"/>
        </linearGradient>
        <linearGradient id="paint30_linear_2151_11489" x1="1083.8" y1="934.8" x2="930.927" y2="306.534" gradientUnits="userSpaceOnUse">
            <stop stop-color="white" stop-opacity="0"/>
            <stop offset="1" stop-color="#7AABC4"/>
        </linearGradient>
        <linearGradient id="paint31_linear_2151_11489" x1="361.944" y1="1026.05" x2="1052.98" y2="1042.18" gradientUnits="userSpaceOnUse">
            <stop stop-color="white" stop-opacity="0"/>
            <stop offset="1" stop-color="#E3D5B7"/>
        </linearGradient>
        <linearGradient id="paint32_linear_2151_11489" x1="460.668" y1="292.039" x2="264.751" y2="965.789" gradientUnits="userSpaceOnUse">
            <stop stop-color="white" stop-opacity="0"/>
            <stop offset="1" stop-color="#7AAAC2"/>
        </linearGradient>
        <linearGradient id="paint33_linear_2151_11489" x1="1193.88" y1="590.961" x2="557.678" y2="198.902" gradientUnits="userSpaceOnUse">
            <stop stop-color="white" stop-opacity="0"/>
            <stop offset="1" stop-color="#AD3831"/>
        </linearGradient>
        <linearGradient id="paint34_linear_2151_11489" x1="690.193" y1="1225.22" x2="1240.96" y2="685.006" gradientUnits="userSpaceOnUse">
            <stop stop-color="white" stop-opacity="0"/>
            <stop offset="1" stop-color="#7AAAC2"/>
        </linearGradient>
        <linearGradient id="paint35_linear_2151_11489" x1="171.187" y1="559.909" x2="549.297" y2="1259.43" gradientUnits="userSpaceOnUse">
            <stop stop-color="white" stop-opacity="0"/>
            <stop offset="1" stop-color="#AD3831"/>
        </linearGradient>
        <linearGradient id="paint36_linear_2151_11489" x1="996.056" y1="225.668" x2="172.649" y2="426.53" gradientUnits="userSpaceOnUse">
            <stop stop-color="white" stop-opacity="0"/>
            <stop offset="1" stop-color="#E3D5B7"/>
        </linearGradient>
        <linearGradient id="paint37_linear_2151_11489" x1="1115.96" y1="1128.83" x2="1135" y2="268.721" gradientUnits="userSpaceOnUse">
            <stop stop-color="white" stop-opacity="0"/>
            <stop offset="1" stop-color="#E3D5B7"/>
        </linearGradient>
        <linearGradient id="paint38_linear_2151_11489" x1="153.142" y1="1000.81" x2="1035.39" y2="1260.14" gradientUnits="userSpaceOnUse">
            <stop stop-color="white" stop-opacity="0"/>
            <stop offset="1" stop-color="#7AA9C0"/>
        </linearGradient>
        <linearGradient id="paint39_linear_2151_11489" x1="539.303" y1="93.705" x2="57.6343" y2="897.055" gradientUnits="userSpaceOnUse">
            <stop stop-color="white" stop-opacity="0"/>
            <stop offset="1" stop-color="#AD3932"/>
        </linearGradient>
        <linearGradient id="paint40_linear_2151_11489" x1="1377.14" y1="720.267" x2="706.376" y2="-0.26351" gradientUnits="userSpaceOnUse">
            <stop stop-color="white" stop-opacity="0"/>
            <stop offset="1" stop-color="#E3D5B7"/>
        </linearGradient>
        <clipPath id="clip0_2151_11489">
            <rect width="1409" height="1409" fill="white"/>
        </clipPath>
    </defs>
</svg>
