<svg width="720" height="685" viewBox="0 0 720 685" fill="none" xmlns="http://www.w3.org/2000/svg">
    <mask id="mask0_2049_684" style="mask-type:luminance" maskUnits="userSpaceOnUse" x="-116" y="-23" width="1258" height="708">
        <path d="M1141.35 -22.0195H-115.57V685H1141.35V-22.0195Z" fill="white"/>
    </mask>
    <g mask="url(#mask0_2049_684)">
        <path d="M1141.35 -22.0195H-115.57V685H1141.35V-22.0195Z" fill="#E3D5B7"/>
        <path d="M1053.56 -22.0188C1053.57 -20.2971 1053.31 -19.8912 1051.61 -19.852C1051.39 -20.068 1051.17 -20.284 1050.96 -20.5001V-22.0188H943.301C939.183 -18.1171 935.072 -14.222 930.954 -10.3203C918.627 -0.382736 907.066 11.9639 897.162 24.3368C892.9 29.2466 888.638 34.1565 884.383 39.0663C871.598 55.9628 859.087 73.3764 847.991 91.9226C826.512 127.83 809 167.24 787.122 203.042C775.371 222.276 763.194 241.058 750.082 258.93C742.789 268.101 735.496 277.273 728.204 286.438C721.873 294.935 715.058 302.555 708.492 310.699C704.518 314.817 700.551 318.928 696.578 323.046C690.659 329.108 684.735 335.177 678.817 341.239C666.542 352.283 654.268 363.333 641.993 374.377C629.142 384.485 616.285 394.592 603.434 404.7H602.57C599.179 391.921 595.781 379.136 592.39 366.357C590.655 360.728 587.395 353.598 587.408 347.294C607.192 329.894 626.975 312.493 646.759 295.092C650.346 292.219 665.096 282.039 663.871 276.029C662.438 268.998 647.597 269.849 640.474 268.448C615.421 264.403 590.361 260.363 565.307 256.318C565.236 256.174 565.164 256.03 565.091 255.886C604.089 219.212 645.122 185.23 678.378 142.815C697.762 118.095 716.413 92.3808 733.395 65.2653C743.647 48.6569 753.898 32.0485 764.157 15.4466C769.793 7.4403 775.836 -0.199436 781.917 -7.72788C786.539 -12.4217 791.161 -17.1155 795.783 -21.8094C742.141 -21.8814 688.48 -21.9534 634.838 -22.0254C632.802 -16.1794 626.923 -10.9422 623.355 -6.21565C614.4 5.64657 605.005 16.9392 595.847 28.4414C575.9 53.4817 552.136 74.8952 526.749 94.5084C516.202 102.652 505.46 111.353 494.043 118.554C464.983 136.871 434.483 154.009 406.745 173.793C387.08 187.815 364.795 206.957 349.778 225.562C344.004 231.84 338.223 238.125 332.449 244.41C309.131 274.15 284.149 305.678 254.684 329.108C244.026 337.579 233.656 346.869 221.978 354.233C196.682 370.181 170.706 384.282 146.595 401.237C103.434 431.6 61.962 463.16 20.7454 495.245C-10.7694 519.774 -39.8881 547.171 -70.8791 572.139C-74.3422 575.53 -77.8118 578.928 -81.2749 582.319C-88.548 588.185 -95.5004 594.293 -102.937 600.08C-107.343 603.51 -112.397 609.192 -117.883 611.13V684.994H-95.7885C-95.7885 683.233 -95.3564 682.382 -94.2697 681.747C-93.9816 681.603 -93.6936 681.459 -93.4055 681.315C-93.1175 681.531 -92.8294 681.747 -92.5414 681.963C-91.3499 682.631 -91.4809 683.462 -91.6773 684.994H17.4918C17.6358 684.49 17.7798 683.986 17.9239 683.475C20.9549 679.502 23.9924 675.534 27.0235 671.561C34.8203 661.597 42.6172 651.633 50.4206 641.67C60.6003 629.467 70.7801 617.264 80.9599 605.062C86.0138 599.648 91.0677 594.234 96.1215 588.813C104.416 578.535 114.439 568.081 124.717 559.786C132.71 553.338 139.747 545.325 147.891 538.995C170.784 521.188 196.715 505.863 225.002 493.503C263.999 476.469 304.47 462.113 338.721 440.647C361.954 426.088 381.594 408.674 402.837 392.34C409.469 387.241 415.662 381.552 422.332 376.308C424.493 374.606 426.673 371.549 429.481 370.678C424.571 388.223 419.661 405.774 414.752 423.312C413.423 427.888 408.971 439.351 412.153 443.455C416.336 448.85 433.213 437.531 437.062 435.442C460.957 422.448 484.864 409.446 508.759 396.452C513.283 396.812 520.661 402.494 524.353 404.681C538.866 412.693 553.38 420.713 567.893 428.726C567.965 428.942 568.037 429.158 568.109 429.374C565.222 431.253 562.335 433.132 559.442 435.004C550.139 440.869 540.909 446.787 531.286 452.548C502.429 469.825 472.348 486.073 440.309 500.2C394.772 520.278 347.185 540.736 306.663 566.267C291.789 575.635 278.408 586.588 264.857 597.245C259.875 601.867 254.893 606.489 249.911 611.111C233.303 624.511 216.917 645.781 203.988 663.096C201.107 666.952 188.06 681.06 187.523 684.974H384.638C384.343 683.135 382.851 681.957 381.607 681.073V680.209C383.414 680.065 385.214 679.921 387.021 679.777C387.872 678.349 388.16 676.13 388.756 674.363H389.404C390.052 676.097 390.706 677.826 391.355 679.561C393.515 680.104 395.898 679.757 398.287 679.561C397.613 681.845 395.629 682.461 394.824 684.542V684.758C424.355 684.831 453.893 684.902 483.418 684.974C486.095 683.567 488.792 680.785 491.431 679.129C498.507 674.867 505.584 670.605 512.661 666.35C537.171 651.941 563.782 640.773 587.611 625.84C601.837 616.924 615.316 606.823 628.337 596.597C633.175 592.335 638.013 588.074 642.851 583.818C654.988 574.13 667.125 562.758 676.859 550.68C679.891 547.577 682.928 544.467 685.959 541.364C693.37 532.154 701.736 523.82 709.134 514.504C733.467 483.88 758.173 453.17 781.047 420.929C798.984 395.646 815.291 369.33 833.248 343.818C851.657 317.18 870.072 290.53 888.487 263.885C899.171 249.804 909.862 235.723 920.546 221.648C933.756 206.126 946.974 190.598 960.185 175.076C964.59 170.454 968.996 165.832 973.395 161.211C981.179 151.548 992.773 139.745 1002.42 131.967C1006.1 128.432 1009.79 124.891 1013.47 121.356C1021.2 114.927 1028.92 108.505 1036.65 102.076C1054.75 88.0012 1074.45 76.9901 1094.92 65.0362C1105.49 58.8629 1117.04 54.0512 1128.71 49.0039C1133.1 47.1054 1138.57 43.4721 1143.66 42.9418V-22.0188H1053.54H1053.56ZM631.813 105.781C631.669 105.709 631.525 105.637 631.381 105.565C631.047 103.844 630.615 102.881 630.078 101.664C630.727 100.944 631.381 100.217 632.029 99.4969C633.253 99.7849 634.484 100.073 635.708 100.361C636.088 101.598 635.669 102.98 636.14 104.479C635.42 105.323 633.234 105.736 631.807 105.781H631.813ZM649.79 131.123C646.608 131.856 645.299 131.123 643.505 133.506H642.425C641.384 130.357 641.587 129.584 638.962 128.092V127.444C640.893 125.892 641.09 124.936 642.209 122.462C642.929 123.11 643.656 123.765 644.376 124.413C645.895 124.197 647.407 123.981 648.926 123.765C649.135 126.449 647.302 128.177 649.79 130.481V131.129V131.123ZM648.926 86.7181C647.243 88.0013 644.795 87.3597 644.376 84.9833C645.24 83.9752 646.111 82.9605 646.975 81.9523H647.623C648.592 82.6593 649.266 83.3794 649.79 84.5512C649.502 85.2714 649.214 85.998 648.926 86.7181ZM659.321 107.732C657.646 107.529 656.598 106.469 656.29 104.917C656.939 104.269 657.593 103.615 658.241 102.966H659.105C659.734 104.086 660.605 104.001 661.056 105.349C660.539 106.397 660.087 106.979 659.321 107.732ZM711.091 34.9486C710.502 35.7735 707.759 35.9698 706.541 36.0288C706.397 35.9568 706.253 35.8847 706.109 35.8127C705.919 34.3594 705.507 33.4233 705.245 31.911C706.207 30.8374 707.124 30.5101 707.844 29.0961C708.996 29.8882 710.155 30.6868 711.307 31.479C711.778 32.4544 711.674 33.8292 711.091 34.9421V34.9486ZM710.011 -6.42514C710.731 -8.08794 711.458 -9.7442 712.178 -11.407C713.435 -10.7327 713.978 -8.10758 714.345 -6.64117C715.772 -5.78358 717.893 -5.68538 720.407 -5.77703C719.785 -3.90474 717.998 -3.74108 717.16 -2.09137C716.512 -0.566038 717.336 1.84961 717.808 3.10653V3.97067C714.148 2.76612 712.787 1.13604 708.924 3.32257H707.844C708.06 1.58775 708.276 -0.140518 708.492 -1.87533C707.412 -2.9555 706.325 -4.04222 705.245 -5.12239C705.173 -5.33842 705.101 -5.55445 705.029 -5.77049C706.554 -6.13709 708.466 -6.01271 710.011 -6.41859V-6.42514ZM692.25 6.13755C692.61 6.20956 692.97 6.28158 693.33 6.35359C693.965 7.19808 694.319 7.21772 694.411 8.7365C693.402 9.09656 692.388 9.45662 691.38 9.81667C691.092 9.67265 690.803 9.52863 690.515 9.38461C690.443 8.88053 690.371 8.37645 690.299 7.86582C690.948 7.28973 691.602 6.71364 692.25 6.13101V6.13755ZM680.768 34.7326C681.056 34.8046 681.344 34.8766 681.632 34.9486C682.136 35.3807 682.64 35.8127 683.151 36.2514C683.066 38.1236 682.195 38.7848 680.336 38.8503C679.904 38.4902 679.472 38.1302 679.033 37.7701C678.961 37.4101 678.889 37.05 678.817 36.69C679.465 36.0419 680.12 35.3872 680.768 34.7391V34.7326ZM679.249 57.259H680.113C680.473 58.3392 680.833 59.4259 681.193 60.506C682.522 61.4356 684.12 61.6844 686.607 61.5862C686.679 61.8022 686.751 62.0183 686.823 62.2343C684.643 64.7023 683.779 64.5256 684.224 68.951C684.152 69.023 684.08 69.095 684.008 69.167C682.476 68.9052 681.573 67.6024 679.674 68.0869C678.594 68.5909 677.508 69.095 676.427 69.6057C675.838 68.244 676.565 66.6466 676.211 65.0558C675.661 63.9495 674.391 63.3079 673.396 62.6729C673.324 62.4569 673.252 62.2409 673.18 62.0248C673.252 61.9528 673.324 61.8808 673.396 61.8088C674.549 61.6648 675.707 61.5208 676.859 61.3767C678.326 60.6959 678.876 58.9938 679.242 57.259H679.249ZM661.704 -12.0551C663.079 -12.1991 664.447 -12.3432 665.822 -12.4872C666.47 -13.7899 667.125 -15.0861 667.773 -16.3889C668.493 -15.2367 669.22 -14.078 669.94 -12.9258H674.922C674.994 -12.7818 675.066 -12.6377 675.138 -12.4937C674.202 -11.2695 673.259 -10.0388 672.323 -8.8146C671.773 -7.5184 672.519 -5.94724 672.971 -4.9129V-4.04876C671.891 -4.55284 670.804 -5.05692 669.724 -5.56755C667.374 -6.08472 666.326 -4.31717 664.31 -4.04876C664.454 -5.63956 664.598 -7.22381 664.742 -8.8146C663.734 -9.82276 662.719 -10.8375 661.711 -11.8456V-12.0617L661.704 -12.0551ZM645.672 22.6019C647.407 18.3402 649.135 14.0784 650.87 9.82322C652.088 10.8117 654.287 19.8393 654.772 21.9538C657.24 23.4072 663.852 23.0798 667.118 22.818C667.19 22.89 667.262 22.962 667.334 23.034C665.456 26.2156 661.187 29.3121 658.235 31.479C658.425 36.2448 660.336 39.8126 660.834 44.0417H660.618C657.299 41.9468 653.973 39.8519 650.654 37.757C646.111 38.1498 642.923 41.9468 639.171 43.603C639.099 43.531 639.027 43.459 638.955 43.387C640.036 39.3413 641.122 35.3021 642.203 31.2564C640.023 28.4545 635.067 25.5675 633.974 22.1568C637.875 22.3008 641.77 22.4448 645.672 22.5889V22.6019ZM630.078 62.6729C631.924 62.686 632.422 63.2752 632.677 64.8398C632.245 65.3439 631.813 65.848 631.375 66.3586C631.087 66.2866 630.798 66.2146 630.51 66.1426C630.078 65.7105 629.646 65.2784 629.208 64.8398C628.776 63.7007 629.404 63.3014 630.072 62.6729H630.078ZM72.744 498.714C71.821 499.277 70.1124 499.559 68.8424 499.794H68.6263C68.1943 498.642 67.7622 497.483 67.3236 496.331C68.1157 495.467 68.9144 494.596 69.7065 493.732C70.4266 494.02 71.1533 494.308 71.8734 494.596C72.8619 495.912 72.9274 496.482 72.7375 498.714H72.744ZM68.1943 466.656C68.6263 466.728 69.0584 466.8 69.497 466.872C70.0011 467.592 70.5052 468.319 71.0158 469.039V470.119C69.713 470.407 68.4168 470.695 67.1141 470.983C66.754 470.263 66.394 469.536 66.0339 468.816C66.754 468.096 67.4807 467.37 68.2008 466.65L68.1943 466.656ZM29.4195 506.511L31.1543 504.776C31.4423 504.848 31.7304 504.92 32.0184 504.992C32.6665 505.64 33.3212 506.295 33.9693 506.943C33.8972 507.303 33.8252 507.663 33.7532 508.023C32.6731 508.239 31.5863 508.455 30.5062 508.671C30.0741 508.239 29.642 507.807 29.2034 507.369C29.2754 507.081 29.3475 506.792 29.4195 506.504V506.511ZM14.0418 556.114C14.7619 555.394 15.4886 554.667 16.2087 553.947C17.3609 554.451 18.5196 554.955 19.6718 555.466V556.114C19.0237 557.05 18.369 557.992 17.7209 558.929C15.9861 558.785 15.2005 558.254 14.0418 557.626V556.107V556.114ZM-45.7406 615.896C-44.2939 616.328 -42.8536 616.76 -41.4069 617.199C-41.2956 619.281 -42.69 620.276 -44.4379 621.101C-46.4149 621.042 -47.4493 620.06 -47.6849 618.286C-47.0368 617.493 -46.3822 616.695 -45.7341 615.903L-45.7406 615.896ZM-46.1727 679.364C-46.2447 679.508 -46.3167 679.652 -46.3887 679.796C-50.1399 677.773 -53.8975 675.751 -57.6552 673.734C-62.4865 674.343 -64.673 679.253 -69.1377 680.451C-68.1296 676.261 -67.1149 672.078 -66.1067 667.888C-68.5355 664.425 -73.1769 662.409 -74.9903 658.573C-70.8726 658.645 -66.7614 658.717 -62.6436 658.789C-61.0528 654.383 -59.4686 649.977 -57.8778 645.578C-56.0186 646.717 -54.1921 655.6 -53.112 658.14H-40.9813C-43.7243 661.315 -46.4673 664.497 -49.2103 667.672C-49.8846 670.494 -47.1547 676.51 -46.1793 679.371L-46.1727 679.364ZM-25.3811 652.072C-25.7412 652 -26.1012 651.928 -26.4613 651.856C-27.0374 651.352 -27.6134 650.848 -28.1961 650.337C-27.9604 648.753 -27.4301 648.714 -26.4613 647.954C-26.1732 648.026 -25.8852 648.098 -25.5971 648.17C-24.4777 648.661 -24.1045 649.146 -24.0783 650.769C-24.5104 651.201 -24.9425 651.633 -25.3811 652.072ZM-17.1522 633.009C-17.0081 633.801 -16.8641 634.599 -16.7201 635.391V636.472C-17.0802 636.4 -17.4402 636.328 -17.8003 636.256C-20.9491 635.365 -21.558 636.452 -24.517 636.904H-24.733C-24.661 635.601 -24.589 634.305 -24.517 633.002C-25.3811 631.994 -26.2518 630.979 -27.1159 629.971C-24.5759 628.007 -22.4417 627.961 -21.2699 624.557C-20.1177 625.12 -19.6988 627.398 -19.103 628.459C-18.121 628.714 -17.2897 628.943 -16.288 628.675H-14.3372C-14.8413 630.809 -16.5957 630.901 -17.1522 633.009ZM-14.3372 602.685C-14.5532 602.613 -14.7693 602.541 -14.9853 602.469C-16.1178 601.867 -17.4402 600.407 -17.5842 598.79C-16.6874 597.618 -15.856 596.807 -15.4174 595.111C-13.8528 595.523 -12.7464 596.296 -10.6515 596.846C-10.5795 598.221 -10.5075 599.589 -10.4355 600.964C-12.8315 600.898 -13.3356 601.461 -14.3372 602.698V602.685ZM-9.57135 572.794C-11.0836 573.455 -12.1965 572.355 -14.1211 572.794C-15.2013 573.298 -16.288 573.802 -17.3682 574.313C-17.2111 570.693 -17.8919 569.599 -20.1832 568.028V567.38C-19.031 566.948 -17.8723 566.516 -16.7201 566.077C-16.1571 565.194 -15.8625 564.146 -15.6399 562.83H-14.9918C-12.9559 564.67 -12.8053 565.776 -8.49119 565.645C-8.41917 565.789 -8.34716 565.933 -8.27515 566.077C-9.9576 568.604 -9.99688 569.2 -9.5779 572.794H-9.57135ZM32.4505 622.181C32.3065 622.253 32.1624 622.325 32.0184 622.397C29.5635 621.094 27.1086 619.798 24.6536 618.495C22.5064 620.001 19.8158 622.456 17.0728 623.045C17.6489 619.942 18.225 616.832 18.8076 613.729C16.7128 611.562 14.6179 609.395 12.523 607.229V607.013C15.266 606.94 18.009 606.868 20.7519 606.796C21.8321 603.693 22.9188 600.584 23.999 597.481C25.7927 598.482 27.0169 604.119 27.4621 606.364C29.6617 607.392 34.3752 606.751 36.9937 606.58C37.0658 606.724 37.1378 606.868 37.2098 607.013C35.1869 609.251 33.164 611.49 31.1477 613.729C30.7222 616.583 32.2803 619.045 32.4505 622.174V622.181ZM41.334 524.704C43.0558 524.435 43.7039 523.846 44.3651 522.537H45.0132C45.8053 523.329 46.604 524.128 47.3961 524.92C47.108 526 46.82 527.087 46.532 528.167C45.5631 528.756 43.7759 528.88 42.1982 528.383C41.9691 526.923 41.6025 526.19 41.334 524.704ZM42.8528 552.86C42.7808 552.5 42.7088 552.14 42.6368 551.78C42.9969 551.348 43.3569 550.916 43.717 550.477C45.3863 550.477 45.8315 550.804 46.0999 552.212C45.6678 552.716 45.2358 553.22 44.7971 553.731C43.6581 553.554 43.5598 553.338 42.8463 552.867L42.8528 552.86ZM51.2978 575.819C51.0818 576.035 50.8657 576.251 50.6497 576.467C49.1506 576.224 48.4893 576.179 46.748 576.251C46.3159 575.531 45.8839 574.804 45.4452 574.084C45.7922 572.493 46.748 572.48 47.6121 571.485C49.2946 571.72 49.9951 572.558 51.2978 573.22V575.819ZM59.0947 516.036C58.5906 515.964 58.0865 515.892 57.5759 515.82C57.4319 515.532 57.2878 515.244 57.1438 514.956V513.653C57.3598 513.365 57.5759 513.077 57.7919 512.789H59.3107C59.6707 513.221 60.0308 513.653 60.3909 514.092C60.4629 514.308 60.5349 514.524 60.6069 514.74C60.1028 515.172 59.5987 515.604 59.0881 516.043L59.0947 516.036ZM64.7246 579.72C64.4366 579.648 64.1485 579.576 63.8605 579.504C63.2124 578.856 62.5577 578.201 61.9096 577.553C62.2632 575.943 63.4219 575.602 64.2926 574.522C65.6411 574.922 66.2696 575.792 67.1075 576.689C66.9242 578.751 65.9684 578.817 64.7246 579.72ZM74.9044 551.125C74.8324 551.197 74.7604 551.269 74.6884 551.341C71.9258 550.641 70.7801 549.744 67.5396 550.477H67.3236C67.3956 549.102 67.4676 547.734 67.5396 546.359C67.173 545.214 65.8244 544.9 65.3727 543.544C68.9144 543.8 69.6279 543.453 71.2187 541.378C73.7653 542.484 72.6655 544.952 76.8487 545.057C75.9977 547.485 74.6033 547.466 74.8979 551.119L74.9044 551.125ZM287.619 319.57H288.922C289.426 320.074 289.93 320.578 290.441 321.089C290.277 322.948 289.576 323.066 288.49 323.904C287.226 323.753 286.971 323.563 286.539 322.601C286.467 322.025 286.395 321.449 286.323 320.866C286.755 320.434 287.187 320.002 287.626 319.563L287.619 319.57ZM218.521 378.056H218.953C219.529 378.992 220.105 379.935 220.688 380.871H225.022C225.166 381.087 225.31 381.303 225.454 381.519C223.948 384.105 223.555 384.517 224.374 387.804V388.02C221.578 388.53 220.151 388.046 217.873 389.539C217.585 389.467 217.297 389.395 217.009 389.323C216.341 385.689 214.881 385.787 213.33 383.476C216.937 380.95 216.649 382.756 218.528 378.063L218.521 378.056ZM181.265 397.119H181.913C182.705 397.839 183.504 398.566 184.296 399.286C184.152 400.222 184.008 401.165 183.864 402.101C183.236 403.024 181.036 402.972 179.962 402.749C179.458 401.957 178.954 401.159 178.443 400.366C179.38 399.286 180.322 398.2 181.258 397.119H181.265ZM136.212 430.042C137.999 430.663 138.104 431.744 140.762 431.776C140.926 433.341 140.572 434.559 141.194 436.11C140.428 436.712 139.531 436.922 139.027 437.845C138.811 437.989 138.595 438.133 138.379 438.277C137.194 436.568 135.125 436.051 134.045 434.375C134.89 432.935 135.564 431.875 136.212 430.042ZM85.7388 527.303C84.423 527.859 83.6832 526.969 83.5719 525.568C84.076 525.136 84.5801 524.704 85.0907 524.265C85.4508 524.337 85.8108 524.409 86.1709 524.481C86.5833 525.195 86.7732 525.424 86.819 526.648C86.4589 526.864 86.0989 527.08 85.7388 527.296V527.303ZM93.5357 439.789C96.1346 439.717 98.7336 439.645 101.333 439.573C103.041 438.709 104.056 434.637 104.796 432.857C106.223 433.603 106.832 437.603 107.179 439.357C109.097 440.47 111.905 439.868 114.975 439.789C115.047 439.861 115.119 439.933 115.191 440.005C114.439 442.814 111.401 443.645 110.21 446.067C109.653 447.645 110.949 450.427 111.512 451.913V452.994C109.345 451.913 107.179 450.827 105.012 449.746C102.387 450.152 100.809 452.706 98.511 452.561C98.799 450.395 99.0871 448.228 99.3751 446.061C97.4243 443.966 95.4734 441.871 93.5291 439.776L93.5357 439.789ZM105.018 552.428H104.37C102.838 551.079 102.655 550.687 99.8203 550.909C99.6043 550.549 99.3882 550.189 99.1722 549.829C99.6304 548.461 99.5191 547.381 98.9562 546.15C99.2377 545.364 101.405 544.193 102.419 542.687C102.851 543.479 103.283 544.278 103.722 545.07C104.586 545.358 105.457 545.646 106.321 545.934C106.537 546.078 106.753 546.222 106.969 546.366C106.393 548.716 104.972 548.86 105.018 552.428ZM135.341 488.312C134.359 490.957 138.438 505.647 139.459 508.671C139.315 508.815 139.171 508.959 139.027 509.103C136.52 507.5 125.024 498.747 122.131 499.356C116.933 502.387 111.735 505.424 106.537 508.455C108.2 501.955 109.856 495.461 111.519 488.96C110.033 486.106 101.156 477.32 98.3081 475.965C98.092 475.677 97.876 475.389 97.6599 475.101C103.65 475.029 109.647 474.957 115.637 474.885C118.124 473.648 122.595 457.903 124.082 454.309C127.224 456.509 128.769 470.82 131.23 474.885H148.775C148.847 474.957 148.919 475.029 148.991 475.101C144.441 479.507 139.891 483.913 135.341 488.312ZM149.639 415.096C148.192 415.312 146.752 415.528 145.305 415.744H145.089C144.801 414.225 144.513 412.713 144.225 411.194C144.873 410.402 145.528 409.603 146.176 408.811C147.623 409.603 149.063 410.402 150.51 411.194C150.156 412.648 149.646 413.132 149.646 415.096H149.639ZM171.517 457.118V457.334C169.062 457.91 166.607 458.486 164.153 459.069C162.869 456.849 161.835 455.324 159.819 453.871V453.007C162.909 451.095 163.472 450.224 165.233 446.945C166.332 447.318 166.503 447.959 166.751 449.111C168.211 449.976 169.547 449.904 171.733 449.76C171.805 449.832 171.877 449.904 171.949 449.976C171.413 452.922 170.588 453.93 171.517 457.124V457.118ZM177.579 428.961C177.435 428.457 177.291 427.953 177.147 427.443C178.155 426.579 179.17 425.708 180.178 424.844C180.754 425.132 181.33 425.42 181.913 425.708C182.823 427.207 182.28 428.444 181.913 430.258C180.669 430.84 178.437 430.055 177.579 428.955V428.961ZM181.913 478.132C182.921 477.34 183.936 476.541 184.944 475.749C186.037 476.181 188.028 477.851 188.407 478.996C186.731 482.132 182.856 481.274 181.907 478.132H181.913ZM234.985 423.764C232.674 426.507 230.364 429.249 228.053 431.992C228.262 435.888 230.043 439.226 231.3 442.388V443.036C227.902 442.63 222.449 437.629 219.817 438.271C216.93 440.221 214.043 442.172 211.15 444.117C211.006 444.261 210.862 444.405 210.718 444.549H210.502C210.855 441.033 212.93 436.47 212.02 433.066C211.045 431.004 206.96 427.921 204.872 427.004C204.44 426.5 204.007 425.996 203.569 425.485C207.471 425.341 211.366 425.197 215.267 425.053C216.596 424.294 218.436 415.142 219.385 413.139C222.004 415.554 221.244 422.14 224.367 423.966C227.902 423.822 231.444 423.678 234.979 423.534V423.75L234.985 423.764ZM252.314 399.286C251.666 398.566 251.011 397.839 250.363 397.119C250.71 395.548 251.908 394.979 252.746 393.872C254.35 394.455 255.456 395.915 256.209 397.335C255.423 398.337 253.924 399.155 252.307 399.286H252.314ZM270.291 415.319C270.147 415.391 270.003 415.463 269.858 415.535C268.654 414.913 267.96 414.598 266.611 415.103C264.032 412.687 267.122 410.494 268.562 409.473C271.921 410.278 270.52 412.281 270.297 415.319H270.291ZM285.668 365.932C286.532 368.963 287.403 372.001 288.267 375.032C287.979 375.176 287.691 375.32 287.403 375.464C284.588 373.945 281.773 372.433 278.958 370.914C275.2 371.392 272.765 374.737 269.642 376.112C269.354 376.256 269.066 376.4 268.778 376.544C269.512 372.93 271.371 369.827 271.377 365.716C269.59 363.765 265.924 361.408 265.093 358.783C267.836 358.829 272.687 359.418 274.624 358.351C276.824 357.009 278.048 350.541 278.958 347.955C281.171 349.35 281.492 355.883 282.86 358.135C285.819 357.991 288.778 357.847 291.743 357.703C291.959 357.775 292.175 357.847 292.391 357.919C291.449 360.813 287.606 363.667 285.675 365.932H285.668ZM311.664 368.099C310.637 368.897 309.373 369.493 308.633 367.883C308.201 366.744 308.83 366.344 309.497 365.716C309.929 365.788 310.362 365.86 310.8 365.932C311.317 366.665 311.533 366.632 311.664 367.883V368.099ZM312.744 344.924C312.123 345.991 311.599 346.207 310.362 346.659C308.509 346.535 307.782 345.762 307.115 344.492C307.717 343.504 308.411 343.229 309.281 342.541H310.362C311.154 343.117 311.952 343.694 312.744 344.276V344.924ZM328.338 387.81C328.266 387.882 328.194 387.954 328.122 388.026C326.675 387.666 325.235 387.306 323.788 386.946C322.551 387.247 322.145 388.367 320.541 388.681C319.893 387.201 320.908 385.454 320.325 383.915C319.867 382.717 318.145 382.534 317.51 381.316C317.582 381.172 317.654 381.028 317.726 380.884C319.029 380.668 320.325 380.452 321.628 380.236C322.865 379.621 323.18 378.167 323.795 376.989C325.026 377.519 325.268 378.58 325.53 380.02C326.675 380.557 328.089 380.301 329.863 380.236L330.08 380.452C329.641 382.102 328.58 382.35 327.913 383.699C327.337 385.12 328.129 386.422 328.345 387.817L328.338 387.81ZM327.258 302.248C327.618 303.911 327.978 305.567 328.338 307.23C327.035 306.798 325.739 306.366 324.436 305.927C322.139 305.521 320.869 307.308 319.239 307.878H319.023C318.584 306.195 319.239 304.578 319.455 302.896C318.486 301.58 316.803 300.205 315.121 299.649C315.049 299.505 314.977 299.361 314.905 299.217C316.496 298.929 318.08 298.641 319.671 298.353C321.399 297.515 321.091 295.806 321.837 294.019L322.054 293.371H322.702C323.278 294.746 323.854 296.114 324.436 297.489C326.106 298.451 327.618 298.032 330.282 297.921C329.811 299.721 328.253 300.834 327.251 302.254L327.258 302.248ZM293.249 669.839C293.465 670.847 293.681 671.862 293.897 672.87V673.95C292.673 673.302 291.442 672.648 290.218 671.999C287.776 671.325 286.696 673.387 284.804 673.734C284.876 672.359 284.948 670.991 285.02 669.616C284.614 667.816 282.598 667.698 282.853 665.715C284.156 665.427 285.452 665.139 286.755 664.851C287.894 664.065 288.182 661.859 288.706 660.517H289.138C290.067 661.446 290.552 663.607 290.873 665.067C292.431 665.787 295.828 665.296 296.503 667.018C295.213 667.751 293.74 668.248 293.256 669.832L293.249 669.839ZM351.303 664.857C351.159 665.073 351.015 665.289 350.871 665.505C347.624 664.713 344.37 663.914 341.123 663.122C339.127 665.008 336.24 668.981 333.543 669.839C333.327 666.736 333.111 663.626 332.895 660.523C332.05 659.031 328.724 657.44 327.049 656.844C326.977 656.484 326.904 656.124 326.832 655.764C333.49 653.322 334.158 655.417 335.716 647.535C336.05 645.84 336.639 643.614 336.364 641.905C338.904 642.848 341.235 648.38 342.426 650.789C344.966 651.136 349.097 649.905 351.526 649.054C351.598 649.198 351.67 649.342 351.742 649.486C350.223 651.725 348.711 653.964 347.192 656.203C347.578 659.483 349.994 662.14 351.31 664.87L351.303 664.857ZM360.403 630.416C360.115 630.488 359.827 630.56 359.539 630.632C358.891 630.2 358.236 629.768 357.588 629.329C357.496 627.961 358.236 627.058 359.107 626.082C360.71 626.24 361.411 626.829 362.354 627.601C362.098 628.963 361.522 629.906 360.403 630.416ZM364.082 571.282C361.627 573.665 359.172 576.048 356.717 578.431H355.853C353.732 574.987 351.074 570.509 347.185 568.899C347.041 568.683 346.897 568.467 346.753 568.251C348.678 567.537 350.871 567.963 352.383 566.948C355.375 564.945 356.043 558.267 357.797 555.033H358.229C360.612 561.187 359.231 569.698 368.409 568.46C366.962 569.396 365.522 570.339 364.075 571.275L364.082 571.282ZM374.694 640.38C374.334 640.308 373.974 640.236 373.614 640.164C373.398 639.588 373.182 639.012 372.966 638.429C373.254 638.141 373.542 637.853 373.83 637.565C374.19 637.637 374.55 637.709 374.91 637.781C375.63 638.213 375.558 638.121 375.774 639.084C375.414 639.516 375.054 639.948 374.694 640.386V640.38ZM387.04 615.687C386.824 615.615 386.608 615.543 386.392 615.471C386.078 614.849 385.842 614.331 386.176 613.52C386.392 613.232 386.608 612.944 386.824 612.656C387.256 612.728 387.689 612.8 388.127 612.872C388.559 613.559 388.71 613.611 388.775 614.822C388.199 615.11 387.623 615.399 387.04 615.687ZM392.886 657.06C392.454 656.484 392.022 655.908 391.584 655.326C391.512 655.109 391.44 654.893 391.368 654.677C391.728 654.245 392.088 653.813 392.448 653.375C394.026 653.316 394.543 653.427 395.047 654.455C395.852 656.124 394.634 657.093 392.88 657.054L392.886 657.06ZM444.656 583.196C446.018 583.877 447.491 585.461 448.774 586.443C446.62 590.391 447.196 590.136 442.057 590.777H441.841C441.357 589.069 440.813 587.596 440.538 586.227C442.712 585.213 443.32 584.957 444.656 583.196ZM410.863 602.692C409.56 602.476 408.264 602.26 406.961 602.044C406.693 601.121 406.758 599.661 407.177 598.797L408.912 597.062C410.064 597.494 411.223 597.926 412.375 598.365C413.135 600.073 411.766 601.389 410.857 602.698L410.863 602.692ZM461.768 624.138C457.579 628.112 453.396 632.079 449.206 636.053C449.291 641.584 451.288 651.057 453.324 655.332V655.548C450.266 655.849 441.501 647.843 437.946 646.232C431.026 646.992 427.524 654.042 421.265 655.548C422.856 649.27 424.44 642.985 426.031 636.701C421.698 632.727 417.364 628.76 413.036 624.786C412.964 624.57 412.892 624.354 412.82 624.138C418.594 624.066 424.375 623.994 430.149 623.922C432.329 622.58 436.381 607.608 437.73 604.211C439.078 605.107 443.648 620.754 444.014 623.49C447.327 625.303 457.572 624.027 461.775 623.922V624.138H461.768ZM471.516 588.178C471.66 586.876 471.804 585.579 471.948 584.277C471.156 583.34 470.357 582.398 469.565 581.462C470.94 581.03 472.308 580.597 473.683 580.159C474.187 579.079 474.691 577.992 475.202 576.912H475.85C476.498 578.136 477.153 579.367 477.801 580.591C479.117 580.925 481.257 581.259 482.783 580.807C482.855 580.951 482.927 581.095 482.999 581.239C480.734 583.354 480.288 583.799 480.616 587.74C480.544 587.812 480.472 587.884 480.4 587.956C475.857 587.164 476.203 586.66 471.732 588.172H471.516V588.178ZM483.647 630.632C483.575 630.704 483.503 630.776 483.431 630.848C480.072 630.39 480.374 629.434 476.282 629.984C475.928 627.588 475.935 626.397 474.979 624.354C474.691 624.066 474.403 623.778 474.115 623.49V623.274C478.233 623.955 479.719 622.92 481.264 620.459C481.964 621.022 482.161 622.711 482.344 623.706C483.437 624.387 484.537 624.884 486.246 625.009C486.658 626.796 483.352 627.091 483.647 630.639V630.632ZM501.623 616.983H500.543C500.327 616.695 500.111 616.407 499.895 616.119C500.085 614.606 500.524 614.22 501.198 613.304H501.846C502.278 613.736 502.71 614.168 503.149 614.606C503.221 614.966 503.293 615.327 503.365 615.687C502.789 616.119 502.213 616.551 501.63 616.989L501.623 616.983ZM535.632 594.456C533.321 595.393 531.011 596.335 528.7 597.271C527.515 596.322 524.981 593.631 524.582 592.073C526.363 590.483 527.089 589.396 528.261 587.092C528.909 587.524 529.564 587.956 530.212 588.394C531.515 588.25 532.811 588.106 534.114 587.962C534.258 588.106 534.402 588.25 534.546 588.394C533.734 590.627 534.074 592.728 535.626 593.808V594.456H535.632ZM544.732 562.614C541.485 560.807 538.231 559.001 534.984 557.2C530.723 557.704 528.726 561.397 525.237 562.83C525.093 562.686 524.948 562.542 524.804 562.398C525.525 558.791 526.251 555.177 526.971 551.57C524.516 549.62 522.062 547.669 519.607 545.724C519.175 545.22 518.742 544.716 518.304 544.206C521.767 544.134 525.237 544.062 528.7 543.99C530.925 541.803 532.922 535.571 533.466 532.075C534.925 532.867 536.915 541.279 537.799 543.341C540.673 543.904 547.023 544.134 549.498 543.125C549.57 543.197 549.642 543.269 549.714 543.341C547.043 546.228 544.372 549.115 541.701 552.009C542.709 555.544 543.724 559.086 544.732 562.621V562.614ZM554.48 576.696C554.048 576.624 553.616 576.552 553.177 576.48C552.332 575.059 552.529 574.11 553.609 573.017C553.897 573.089 554.185 573.161 554.473 573.233C555.311 573.684 555.56 574.09 555.776 575.184C555.344 575.688 554.912 576.192 554.473 576.702L554.48 576.696ZM615.349 454.309C615.997 453.517 616.652 452.719 617.3 451.926C618.792 452.221 619.264 453.223 619.899 454.309C619.748 455.874 619.139 456.437 618.164 457.124C617.228 456.404 616.285 455.678 615.349 454.957V454.309ZM577.877 207.586C577.805 207.73 577.733 207.874 577.661 208.018C574.905 207.494 573.432 207.907 571.376 208.882C570.381 207.841 571.474 206.8 570.728 205.419C570.132 204.319 569.118 204.692 568.777 203.036C570.505 201.471 571.828 202.015 572.24 198.918H573.104C573.818 201.249 575.33 201.484 578.518 201.301C578.59 201.373 578.662 201.445 578.734 201.517C578.047 203.946 576.934 204.659 577.87 207.579L577.877 207.586ZM586.76 183.108C586.04 183.253 585.314 183.397 584.594 183.541C583.513 182.172 583.219 181.367 584.594 180.077C585.17 180.221 585.746 180.365 586.328 180.51C586.878 181.367 587.029 181.845 586.76 183.108ZM591.958 172.929C591.598 172.857 591.238 172.785 590.878 172.713C590.662 172.641 590.446 172.569 590.23 172.497C590.158 171.849 590.086 171.194 590.014 170.546C590.446 170.114 590.878 169.682 591.317 169.243C591.605 169.315 591.893 169.387 592.181 169.459C593.143 169.891 593.457 170.232 593.7 171.41C593.195 172.248 592.862 172.484 591.965 172.929H591.958ZM619.034 141.735C619.611 141.879 620.187 142.023 620.769 142.167C621.666 143.45 621.489 143.777 621.201 145.63C620.913 145.774 620.625 145.918 620.337 146.062C619.473 146.134 618.602 146.206 617.738 146.278C617.45 145.63 617.162 144.975 616.874 144.327C617.647 143.129 617.928 142.573 619.041 141.728L619.034 141.735ZM599.971 54.8761C600.475 54.9481 600.979 55.0201 601.49 55.0921C602.465 55.5438 603.035 56.2508 603.441 57.259C603.637 57.9922 603.31 58.2148 603.009 58.9938C602.073 59.6877 601.143 60.1722 599.762 59.4259C599.402 59.1378 599.042 58.8498 598.681 58.5617C598.609 58.1297 598.537 57.6976 598.465 57.259C598.97 56.4669 599.474 55.6682 599.984 54.8761H599.971ZM600.403 83.4711C601.104 82.4629 601.549 80.9769 602.138 79.792H602.786C603.434 80.8721 604.089 81.9588 604.737 83.039H609.287C609.359 83.183 609.431 83.3271 609.503 83.4711C607.794 85.9522 607.028 86.1093 607.336 89.9717C607.264 90.0438 607.192 90.1158 607.12 90.1878C601.994 89.5789 603.67 89.9848 599.323 91.0519C599.395 89.6771 599.467 88.3089 599.539 86.9342C598.819 85.926 598.092 84.9113 597.372 83.9032C598.38 83.7591 599.395 83.6151 600.403 83.4711ZM565.53 89.1011C565.746 88.813 565.962 88.525 566.178 88.2369C566.466 88.3089 566.754 88.3809 567.042 88.4529C567.402 88.813 567.762 89.1731 568.123 89.5331C568.195 89.7492 568.267 89.9652 568.339 90.1812L567.036 91.484C566.532 91.34 566.028 91.1959 565.517 91.0519V89.1011H565.53ZM575.062 125.709C575.278 125.565 575.494 125.421 575.71 125.277C575.18 120.635 571.749 118.01 571.592 113.146C577.641 113.873 581.949 121.689 586.106 122.894C590.079 122.462 594.047 122.03 598.02 121.591C598.092 121.735 598.164 121.879 598.236 122.023C596.285 124.91 594.335 127.797 592.39 130.691C592.907 135.849 598.243 138.488 598.891 143.47C598.819 143.542 598.747 143.614 598.675 143.686C593.765 142.167 588.855 140.655 583.945 139.136C579.86 141.846 576.168 144.726 572.679 148.019C572.319 147.947 571.959 147.875 571.599 147.803C570.918 143.797 573.327 138.389 572.247 135.457C572.175 135.241 572.103 135.025 572.031 134.809C567.049 134.232 562.067 133.656 557.085 133.074C556.188 129.997 571.828 127.437 575.062 125.709ZM557.949 181.164C553.583 180.68 554.506 180.627 550.801 182.028C550.656 181.956 550.513 181.884 550.368 181.812C549.681 176.359 548.254 178.225 547.121 174.88C550.375 174.428 551.9 174.539 552.535 171.416C552.679 171.344 552.823 171.272 552.967 171.2C555.043 173.086 555.023 174.153 559.468 174.015C559.54 174.231 559.612 174.447 559.684 174.664C557.668 177.171 557.498 177.223 557.949 181.164ZM553.183 149.322C553.471 149.394 553.76 149.466 554.048 149.538C554.48 149.97 554.912 150.402 555.35 150.841C555.422 151.057 555.494 151.273 555.566 151.489C555.134 151.849 554.702 152.209 554.264 152.569C552.974 153.152 552.306 152.392 551.665 151.705C551.887 150.239 552.352 150.088 553.183 149.322ZM547.77 109.467C549.295 110.168 549.164 111.235 551.449 111.418C551.593 111.634 551.737 111.85 551.881 112.066C551.521 113.074 551.161 114.089 550.801 115.097C549.648 115.169 548.49 115.241 547.337 115.313C546.905 114.881 546.473 114.449 546.035 114.01C545.779 112.033 546.997 111.058 547.77 109.461V109.467ZM525.243 163.62H526.323C526.932 164.444 527.286 164.569 527.403 166.003V166.219C526.598 166.788 526.513 167.05 525.021 167.083H524.804C524.261 166.31 524.019 166.297 523.94 164.916C524.372 164.484 524.805 164.052 525.243 163.613V163.62ZM520.477 136.975C521.793 137.322 522.592 138.219 523.076 139.358C523.148 139.574 523.22 139.79 523.292 140.006C522.186 141.63 521.479 142.186 519.174 141.525C518.886 140.877 518.598 140.222 518.31 139.574C519.031 138.71 519.757 137.84 520.477 136.975ZM497.951 142.173C499.476 142.206 499.653 142.396 499.902 143.692V143.908C499.214 144.34 499.162 144.491 497.951 144.556C497.506 143.659 497.479 143.077 497.951 142.173ZM458.96 173.583C459.896 171.128 460.839 168.673 461.775 166.219C463.359 167.057 464.341 170.853 464.59 172.935C466.436 174.055 472.518 173.793 474.77 172.935C474.842 173.007 474.914 173.079 474.986 173.151C473.179 175.39 470.082 177.105 468.924 179.868C468.125 182.035 470.056 186.349 470.875 188.097C469.356 188.909 464.904 185.099 462.43 184.634C460.433 186.002 457.906 188.378 455.281 188.752C455.785 186.009 456.289 183.266 456.8 180.523C454.94 178.631 451.143 176.248 450.299 173.59H458.967L458.96 173.583ZM461.991 208.24C461.919 208.744 461.847 209.249 461.775 209.759C461.487 209.903 461.199 210.047 460.911 210.191H459.608C458.927 209.798 458.875 209.582 458.528 208.889C458.888 208.312 459.248 207.736 459.608 207.154C460.328 207.37 461.055 207.586 461.775 207.802C461.847 207.946 461.919 208.09 461.991 208.234V208.24ZM438.378 240.298C439.53 240.659 440.689 241.019 441.841 241.379C442.057 241.523 442.273 241.667 442.489 241.811C442.273 242.891 442.057 243.978 441.841 245.058C441.265 245.856 438.862 246.033 437.723 246.138C437.219 244.914 436.715 243.683 436.204 242.459C437.285 241.83 437.736 241.359 438.371 240.292L438.378 240.298ZM424.296 191.776C425.979 192.202 426.3 193.249 428.198 193.727C427.91 195.03 427.622 196.326 427.334 197.629C426.319 198.25 424.853 198.355 423 198.277C422.568 197.124 422.136 195.966 421.697 194.814C422.634 193.694 423.517 193.177 424.296 191.783V191.776ZM397.22 223.618C398.955 220.803 400.683 217.988 402.418 215.173C403.904 216.731 403.564 222.525 403.937 224.921C406.68 225.641 409.423 226.368 412.166 227.088L412.814 227.52C410.784 230.073 406.097 230.616 404.585 233.582V241.163H403.937C401.698 239.356 399.459 237.556 397.22 235.749C395.374 235.153 390.746 237.497 388.991 238.348C389.685 235.801 392.965 232.004 392.454 229.248C390.936 226.865 389.423 224.482 387.905 222.099C391.073 222.446 393.934 224.22 397.22 223.618ZM348.482 249.176C349.058 249.248 349.634 249.32 350.217 249.392C350.433 249.464 350.649 249.536 350.865 249.608C350.937 250.184 351.009 250.76 351.081 251.342C350.793 251.702 350.505 252.063 350.217 252.423C349.856 252.495 349.496 252.567 349.136 252.639C348.992 252.567 348.848 252.495 348.704 252.423C348.109 251.624 347.775 251.624 347.624 250.256C347.912 249.896 348.2 249.536 348.488 249.176H348.482ZM345.019 274.085C346.321 274.157 346.524 274.255 346.969 275.165C347.041 275.597 347.113 276.029 347.185 276.468C346.825 276.684 346.465 276.9 346.105 277.116C345.11 277.528 344.534 277.129 344.154 276.252C343.722 275.113 344.351 274.713 345.019 274.085ZM337.006 347.949C336.718 346.646 336.43 345.35 336.142 344.047C337.078 343.327 338.02 342.6 338.957 341.88C339.677 342.358 341.706 344.728 341.988 345.559C340.678 348.126 340.397 348.152 337.006 347.942V347.949ZM349.136 341.016C348.848 341.232 348.56 341.448 348.272 341.664C346.249 339.929 344.226 338.201 342.21 336.466C342.93 333.965 345.614 333.461 346.544 330.62C349.202 332.119 349.117 333.553 354.125 333.435C352.75 336.44 349.608 336.597 349.143 341.016H349.136ZM363.002 325.638C362.498 324.192 361.994 322.751 361.483 321.305C361.843 320.873 362.203 320.44 362.563 320.002C364.154 320.866 365.738 321.737 367.329 322.601C366.897 323.753 366.465 324.912 366.026 326.064C364.71 325.763 364.422 325.475 362.995 325.632L363.002 325.638ZM373.614 352.499V352.715C369.214 353.415 371.067 354.292 368.416 355.314C368.344 354.377 368.272 353.435 368.2 352.499C367.565 351.936 366.432 351.792 365.385 351.634C365.241 351.346 365.097 351.058 364.953 350.77C366.452 348.852 367.002 347.883 367.768 344.924C370.203 346.201 370.36 347.274 374.268 346.659C373.633 348.97 372.736 349.847 373.62 352.505L373.614 352.499ZM571.815 532.717C571.383 532.645 570.951 532.573 570.512 532.5C569.563 530.995 569.825 530.157 571.16 529.253C571.592 529.397 572.024 529.542 572.463 529.686C572.679 530.19 572.895 530.694 573.111 531.204C572.679 531.708 572.247 532.212 571.808 532.723L571.815 532.717ZM577.661 488.96C576.659 488.246 575.919 487.893 575.278 486.793C575.926 485.929 576.581 485.058 577.229 484.194C578.682 484.318 579.356 484.849 579.828 485.929C579.9 486.433 579.972 486.937 580.044 487.448C579.297 488.227 578.99 488.698 577.661 488.966V488.96ZM583.075 565.207H581.995C581.477 564.375 581.176 564.022 581.13 562.608C581.851 561.888 582.577 561.161 583.297 560.441H583.945C586.171 561.96 585.863 564.454 583.081 565.207H583.075ZM585.242 510.622C584.017 510.838 582.806 511.002 581.995 511.486C581.634 510.334 581.274 509.175 580.914 508.023C581.779 507.087 582.649 506.144 583.513 505.208C584.305 506.072 585.104 506.943 585.896 507.807C586.171 508.639 585.641 509.823 585.248 510.622H585.242ZM579.612 427.875C556.437 414.952 533.256 402.023 510.081 389.1C505.407 389.257 488.393 400.098 483.869 402.749C461.991 414.52 440.113 426.29 418.234 438.055H417.586C426.103 407.155 434.627 376.243 443.144 345.343C424.951 328.957 406.752 312.559 388.559 296.173C385.437 293.672 369.987 281.122 369.064 278.412C401.266 272.782 433.475 267.146 465.67 261.516C470.541 254.963 472.956 246.413 477.153 239.205C487.693 218.558 498.239 197.904 508.779 177.256C511.063 178.31 519.705 196.476 521.773 199.998C533.177 220.358 544.588 240.724 555.998 261.084C589.497 266.497 623.008 271.911 656.507 277.332C656.579 277.548 656.651 277.764 656.723 277.98C631.165 300.362 605.601 322.751 580.044 345.127C588.777 377.473 597.516 409.826 606.256 442.172V442.388C603.532 442.565 583.389 430.114 579.612 427.875ZM610.151 534.229C609.437 535.198 608.77 535.689 607.552 536.18C606.406 535.676 605.896 535.401 605.601 534.013C606.249 533.221 606.904 532.422 607.552 531.63C609.045 532.029 609.189 532.939 610.151 533.797V534.229ZM613.614 498.924C613.182 499.284 612.75 499.644 612.311 500.004H611.663C611.231 499.572 610.799 499.14 610.36 498.701C610.288 498.341 610.216 497.981 610.144 497.621C610.432 497.261 610.72 496.901 611.008 496.541H612.527C612.887 496.973 613.247 497.405 613.607 497.843V498.924H613.614ZM618.596 524.704H617.732C616.992 522.118 616.946 521.169 614.917 519.938V519.506C616.102 517.967 616.756 516.71 617.732 514.74C619.748 516.03 620.056 516.449 623.146 516.043L623.362 516.259C622.766 519.093 622.936 519.787 624.226 521.889C621.719 522.995 620.108 522.687 618.596 524.704ZM633.325 443.259C633.515 441.865 633.875 441.622 634.628 440.876C636.324 441.053 636.297 441.583 637.227 442.395V443.698C636.396 444.261 636.147 444.549 634.628 444.562L633.325 443.259ZM638.091 477.7C637.528 477.981 637.338 478.086 636.356 478.132C636.14 477.556 635.924 476.98 635.708 476.397C635.996 476.109 636.284 475.821 636.572 475.533C637.005 475.605 637.437 475.677 637.875 475.749C638.235 476.495 638.261 476.738 638.091 477.7ZM665.383 380.878H666.464C666.896 381.382 667.328 381.886 667.766 382.396C667.688 383.797 667.465 384.112 666.464 384.563C666.104 384.635 665.744 384.707 665.383 384.779C665.023 384.347 664.663 383.915 664.303 383.476C664.231 383.116 664.159 382.756 664.087 382.396C664.519 381.892 664.951 381.388 665.39 380.878H665.383ZM647.839 409.689C646.687 409.617 645.528 409.545 644.376 409.473C644.422 407.129 643.682 406.847 645.24 405.355C646.988 405.623 647.119 406.487 648.487 407.09C648.631 407.594 648.775 408.098 648.919 408.608C648.559 408.968 648.199 409.329 647.839 409.689ZM651.086 460.378H650.87C650.34 459.658 649.81 459.331 650.222 458.211C650.438 457.923 650.654 457.635 650.87 457.347H651.95C652.31 457.779 652.67 458.211 653.03 458.65C653.423 459.756 652.507 460.378 651.079 460.385L651.086 460.378ZM656.5 489.837C655.125 489.634 655.053 489.294 654.333 488.534C654.477 487.958 654.621 487.382 654.765 486.8C655.125 486.583 655.485 486.367 655.845 486.151C656.958 486.459 657.358 486.688 657.796 487.67C657.868 487.886 657.94 488.102 658.012 488.318L656.493 489.837H656.5ZM677.514 471.428V471.644C674.182 472.489 673.534 472.64 671.452 474.243H670.588C670.045 471.219 669.672 469.838 666.909 469.046C666.837 468.901 666.765 468.757 666.693 468.613C669.233 466.577 670.346 467.357 671.243 463.416C674.117 464.79 672.964 465.484 677.527 464.934C678.057 467.92 676.035 467.232 677.527 471.435L677.514 471.428ZM678.378 436.987C675.131 435.541 671.878 434.1 668.631 432.654C666.857 432.195 661.083 437.596 659.099 438.716C658.686 435.973 660.055 430.539 661.05 428.104C659.806 425.963 655.747 423.05 653.469 422.042C653.325 421.826 653.181 421.61 653.037 421.394C653.109 421.25 653.181 421.106 653.253 420.962C656.428 420.536 661.338 420.471 663.649 419.011C664.441 415.62 665.24 412.222 666.032 408.831C668.631 410.212 669.606 415.999 670.797 418.795C673.58 419.305 678.85 418.854 681.409 417.931H681.625C680.512 421.394 676.833 423.286 675.341 426.376C674.365 429.282 677.743 434.153 678.372 436.987H678.378ZM690.725 452.797C689.789 452.941 688.846 453.085 687.91 453.229C687.334 452.509 686.758 451.782 686.175 451.062C686.751 450.414 687.327 449.76 687.91 449.111C688.846 449.328 689.789 449.544 690.725 449.76C690.941 450.048 691.157 450.336 691.373 450.624C691.157 451.344 690.941 452.07 690.725 452.791V452.797ZM696.355 420.739C695.995 420.955 695.635 421.171 695.275 421.387C694.843 421.459 694.411 421.531 693.972 421.603C693.54 420.916 693.389 420.863 693.324 419.652C693.756 419.292 694.188 418.932 694.627 418.572C694.987 418.644 695.347 418.716 695.707 418.788C695.923 419.076 696.139 419.364 696.355 419.652V420.733V420.739ZM701.121 398.213C698.496 398.468 696.918 398.651 695.491 400.596H694.627C693.848 397.421 694.096 396.281 691.812 394.75V394.317C693.612 392.262 694.712 391.869 695.929 388.904C697.311 389.421 697.226 390.913 698.528 391.286H701.775C701.448 393.951 700.892 395.241 701.127 398.219L701.121 398.213ZM706.535 373.951C704.073 374.233 702.397 375.608 700.473 376.55H699.609C700.682 368.819 702.98 370.744 698.09 364.204V363.988C699.674 363.713 702.306 364.596 703.936 363.772C705.52 362.979 706.135 359.824 706.751 358.142H707.399C708.898 364.498 708.695 364.603 716.282 364.204C716.354 364.276 716.426 364.348 716.498 364.42C715.261 369.028 709.258 369.847 712.597 376.766C712.525 376.91 712.453 377.054 712.381 377.198C709.978 376.779 708.446 374.992 706.535 373.951ZM722.783 439.586V439.802C721.264 440.018 719.752 440.234 718.233 440.451C717.081 441.315 715.922 442.185 714.77 443.049C712.59 440.346 714.057 438.997 710.436 436.333C710.364 436.117 710.292 435.901 710.22 435.685C712.669 433.282 713.526 431.966 714.77 428.104C716.623 428.752 716.57 430.703 718.233 431.567C719.968 431.495 721.696 431.423 723.431 431.351C723.575 431.495 723.719 431.639 723.863 431.783C723.182 434.912 722.043 436.012 722.783 439.58V439.586ZM724.95 406.448C724.302 406.664 723.647 406.88 722.999 407.096C722.351 406.736 721.696 406.376 721.048 406.016V404.936C721.48 404.432 721.912 403.928 722.351 403.417H723.87C724.845 404.307 725.303 404.739 724.95 406.448ZM727.333 337.566C726.194 338.064 725.146 337.808 723.431 337.782C722.921 336.748 722.921 334.777 723.215 333.448C723.647 333.16 724.079 332.872 724.518 332.584C725.598 333.016 726.685 333.448 727.765 333.887C727.909 334.103 728.053 334.319 728.197 334.535C727.909 335.543 727.621 336.558 727.333 337.566ZM770.219 277.129C770.579 277.201 770.939 277.273 771.299 277.345C771.581 277.908 771.685 278.098 771.731 279.08C770.474 279.97 770.173 279.97 768.916 279.08C769.054 277.555 769.289 277.764 770.219 277.129ZM766.756 298.359C766.972 298.071 767.188 297.783 767.404 297.495C767.764 297.567 768.124 297.639 768.484 297.711C768.844 298.143 769.204 298.575 769.564 299.014C769.492 299.374 769.42 299.734 769.348 300.094C768.635 300.539 768.477 300.716 767.181 300.742C767.037 300.454 766.893 300.166 766.749 299.878V298.359H766.756ZM744.013 311.138C744.877 311.426 745.748 311.714 746.612 312.002C747.66 312.65 747.385 313.658 747.26 315.465C747.188 315.609 747.116 315.753 747.044 315.897C745.892 316.257 744.733 316.617 743.581 316.977C742.789 316.074 741.866 314.673 741.63 313.298C742.422 312.578 743.221 311.852 744.013 311.131V311.138ZM751.378 386.305C751.378 386.305 748.105 387.967 747.476 388.904H746.612C746.049 386.658 745.028 385.866 743.365 384.786C744.033 382.691 745.604 382.305 746.18 379.588C748.131 380.04 748.485 380.832 750.946 380.668C751.097 381.297 751.574 385.84 751.378 386.298V386.305ZM770.009 357.71V358.574C766.546 356.479 763.077 354.384 759.614 352.289C755.286 352.839 753.414 356.793 749.218 357.703C750.01 354.096 750.809 350.482 751.601 346.875C750.01 345.428 748.426 343.988 746.835 342.541C745.755 341.389 744.668 340.23 743.588 339.078H755.502C757.093 335.105 758.677 331.137 760.268 327.164C761.492 331.065 762.723 334.961 763.947 338.862C766.52 340.054 772.242 339.353 775.646 339.294C773.047 341.893 770.448 344.492 767.849 347.091C766.802 349.841 769.119 355.399 770.016 357.703L770.009 357.71ZM783.875 320.238C783.227 320.382 782.572 320.526 781.924 320.67C781.348 320.021 780.772 319.367 780.189 318.719V317.855C780.765 317.134 781.341 316.408 781.924 315.688C782.788 316.336 783.659 316.991 784.523 317.639C784.307 318.503 784.091 319.373 783.875 320.238ZM788.641 262.183C787.79 263.028 784.287 264.003 783.227 264.35C782.415 263.421 780.994 260.147 780.844 258.936C781.996 257.575 783.214 257.247 784.091 255.473C785.734 256.344 786.101 257.326 788.641 257.64V262.19V262.183ZM791.023 235.107C791.384 234.603 791.744 234.099 792.104 233.588H793.839C794.251 234.302 794.441 234.531 794.487 235.755C794.415 235.899 794.343 236.043 794.271 236.187C793.557 236.632 793.4 236.809 792.104 236.835C791.744 236.259 791.384 235.683 791.023 235.101V235.107ZM812.254 310.49C809.314 310.169 807.94 308.775 804.673 308.755C803.37 310.025 801.779 311.583 799.907 312.218C799.763 312.362 799.619 312.506 799.475 312.65C798.853 311.655 800.077 308.022 799.259 306.366C798.388 304.605 795.678 303.688 794.061 302.686V302.254C794.133 302.11 794.205 301.966 794.277 301.822C796.3 301.246 798.323 300.67 800.339 300.087C801.256 298.156 801.315 294.687 802.29 292.723C804.044 294.189 804.071 297.266 806.192 298.353C808.057 299.06 810.794 297.881 812.908 297.705C812.98 297.777 813.052 297.849 813.124 297.921C811.9 299.799 810.669 301.678 809.439 303.551C810.375 305.861 811.318 308.172 812.254 310.483V310.49ZM814.421 211.933C813.563 208.332 813.949 207.363 811.39 205.648V205C812.692 204.371 815.226 204.286 815.939 203.049C816.496 202.08 816.214 200.797 816.804 200.018C818.722 202.309 818.303 203.822 822.866 203.697C823.023 204.993 821.452 207.101 821.563 210.63C817.962 210.388 817.419 211.343 814.63 211.933H814.414H814.421ZM830.453 287.747C829.589 288.107 828.718 288.467 827.854 288.828C826.375 288.638 825.432 286.988 825.255 285.58C826.047 284.716 826.846 283.846 827.638 282.982H828.286C829.15 283.702 830.021 284.428 830.885 285.148C830.741 286.013 830.597 286.883 830.453 287.747ZM831.317 256.337C831.533 259.224 831.749 262.111 831.965 265.005H831.749C830.014 263.63 828.286 262.262 826.551 260.887C824.581 260.337 822.093 262.884 820.051 263.486H819.835C819.2 260.828 820.882 257.961 821.353 255.473C819.474 253.162 817.596 250.851 815.723 248.541C818.25 248.613 820.777 248.685 823.304 248.757C824.725 246.799 825.707 244.403 826.767 242.04C827.834 243.343 827.913 247.441 828.286 249.189C830.368 250.321 834.512 249.352 836.954 250.269H837.386C836.783 252.645 833.143 255.048 831.324 256.331L831.317 256.337ZM842.368 186.153C841.68 186.585 841.628 186.735 840.417 186.801H840.201C839.317 185.432 839.533 184.581 840.633 183.554C840.993 183.626 841.353 183.698 841.713 183.77C841.929 183.842 842.145 183.914 842.361 183.986C842.433 184.562 842.505 185.138 842.577 185.721C842.505 185.865 842.433 186.009 842.361 186.153H842.368ZM846.701 217.347C846.413 217.419 846.125 217.491 845.837 217.563H845.621C845.078 216.79 844.836 216.777 844.757 215.396C845.045 215.036 845.333 214.676 845.621 214.316C847.291 214.316 847.736 214.643 848.004 216.05C847.572 216.482 847.14 216.914 846.701 217.353V217.347ZM891.538 116.19C891.931 115.575 892.042 115.706 892.618 115.326C892.906 115.398 893.194 115.47 893.482 115.542C893.554 116.046 893.626 116.55 893.698 117.061C893.338 117.205 892.978 117.349 892.618 117.493C892.186 117.277 891.754 117.061 891.316 116.845C891.388 116.629 891.46 116.413 891.532 116.197L891.538 116.19ZM877.673 137.853C878.105 136.55 878.537 135.254 878.975 133.951C879.84 134.815 880.71 135.686 881.574 136.55C882.897 137.067 884.422 136.242 885.692 135.902C885.836 136.046 885.98 136.19 886.124 136.334C884.782 138.789 883.8 139.967 885.26 142.835V143.699C883.813 143.627 882.373 143.555 880.926 143.483C879.99 144.131 879.047 144.785 878.111 145.433H877.895C877.509 144.582 877.849 143.214 877.463 141.97C876.671 141.034 875.872 140.092 875.08 139.155C875.715 138.422 876.553 138.108 877.679 137.853H877.673ZM851.893 259.807C851.605 259.951 851.317 260.095 851.029 260.239H849.078C848.469 259.12 848.502 258.714 848.862 257.424C849.222 257.208 849.582 256.992 849.942 256.776C851.146 257.143 851.382 257.529 852.109 258.295C852.037 258.799 851.965 259.303 851.893 259.814V259.807ZM864.887 235.114H863.585C863.009 234.394 862.432 233.667 861.85 232.947V232.731C862.57 232.011 863.297 231.284 864.017 230.564C865.025 231.14 866.04 231.716 867.048 232.299C866.747 234.119 865.843 234.073 864.881 235.114H864.887ZM878.969 237.497C877.961 237.137 876.946 236.776 875.938 236.416C875.794 236.056 875.65 235.696 875.506 235.336C876.082 234.688 876.658 234.034 877.241 233.385C877.601 233.457 877.961 233.529 878.321 233.601C879.257 234.119 879.61 234.989 880.272 235.768C880.121 237.13 879.925 237.038 878.969 237.503V237.497ZM884.599 182.257C882.622 185.249 883.263 190.035 881.784 193.74V194.172H881.568C878.975 191.92 878.406 186.676 875.283 185.072C871.964 185.648 868.639 186.225 865.32 186.807H865.104V186.159C867.486 183.344 869.869 180.529 872.252 177.714C871.807 173.819 870.256 171.037 869.005 167.966C871.185 166.605 875.63 171.508 878.537 171.868C881.28 169.197 884.023 166.526 886.766 163.855H887.414C886.726 166.251 884.154 172.497 885.679 174.906C886.792 176.87 891.368 178.572 893.692 179.24C893.764 179.384 893.836 179.528 893.908 179.672V179.888C890.805 180.68 887.695 181.478 884.592 182.271L884.599 182.257ZM893.266 212.797C892.546 212.227 892.337 212.05 892.186 210.846C891.787 209.681 892.664 208.83 893.266 208.031H894.785C895.073 209.039 895.361 210.054 895.649 211.062C895.027 212.201 894.589 212.358 893.266 212.797ZM937.887 65.9331C938.319 66.0051 938.751 66.0771 939.19 66.1491C939.406 66.4371 939.622 66.7252 939.838 67.0132C939.759 68.4142 939.537 68.7284 938.535 69.1801H937.455C936.598 68.7219 936.46 68.4862 936.375 67.2293C936.879 66.7972 937.383 66.3651 937.894 65.9265L937.887 65.9331ZM901.063 107.955H899.544C899.256 107.739 898.968 107.523 898.68 107.307V106.443C899.04 106.155 899.4 105.867 899.76 105.579C900.193 105.651 900.625 105.723 901.063 105.795C901.495 106.685 901.469 107.025 901.063 107.961V107.955ZM915.793 201.53C915.577 201.674 915.361 201.818 915.145 201.962C914.497 201.098 913.842 200.228 913.194 199.363H911.459C911.315 198.139 911.171 196.908 911.027 195.684C912.153 194.46 913.102 194.408 913.626 192.437C913.842 192.293 914.058 192.149 914.274 192.005C915.832 193.616 916.546 193.963 918.824 195.036C918.228 197.354 916.775 199.573 915.793 201.537V201.53ZM922.077 164.058C922.005 164.202 921.933 164.346 921.861 164.49C916.742 163.456 917.953 164.451 914.065 166.009H913.849V161.027C912.546 159.724 911.25 158.428 909.947 157.126V156.909C911.322 156.765 912.69 156.621 914.065 156.477C914.942 155.247 915.374 153.695 915.583 151.712C919.38 153.571 916.506 156.432 923.812 155.175C922.699 159.247 919.753 158.337 922.077 164.058ZM920.343 96.0403V95.1762C923.236 93.6509 923.544 92.6492 924.676 89.3302C927.413 90.2729 927.007 91.6084 931.177 91.4971C931.288 92.0011 930.902 98.3643 930.745 99.0779C928.185 99.6147 926.385 100.688 924.244 101.029C923.145 99.2612 921.986 97.2907 920.343 96.0469V96.0403ZM942.653 161.891C942.581 161.531 942.509 161.171 942.437 160.811C942.941 160.235 943.445 159.659 943.956 159.076H945.036C945.396 159.508 945.756 159.94 946.116 160.379C946.188 160.595 946.26 160.811 946.332 161.027C945.442 162.814 944.27 163.096 942.653 161.891ZM955.432 118.567C953.101 121.611 949.121 123.673 947.419 127.234C948.355 130.409 949.298 133.591 950.234 136.766V136.982C946.987 135.175 943.733 133.375 940.486 131.568C937.062 132.079 934.496 134.913 931.603 136.334H930.954C931.511 133.323 933.625 129.257 932.905 126.37C932.224 124.904 930.038 122.92 928.572 122.252C927.419 121.028 926.261 119.797 925.108 118.573C928.86 118.645 932.617 118.717 936.375 118.789C937.671 115.254 938.974 111.713 940.277 108.177C943.078 110.115 941.822 115.981 944.178 118.357C945.402 119.595 953.311 118.632 955.445 118.357V118.573L955.432 118.567ZM964.315 66.3651C963.909 64.4012 963.909 63.9233 962.797 62.4634C963.589 61.6713 964.387 60.8727 965.179 60.0805C967.333 60.2966 967.674 61.1345 970.161 61.1607C969.998 62.8235 969.88 63.4192 969.945 65.2784C968.282 65.7105 966.626 66.1426 964.963 66.5812C964.747 66.5092 964.531 66.4371 964.315 66.3651ZM970.6 99.942H969.52C969.088 99.3659 968.656 98.7898 968.217 98.2072C968.741 97.127 969.009 97.1009 969.952 96.4724C970.384 96.5444 970.816 96.6164 971.255 96.6884C971.471 97.0485 971.687 97.4085 971.903 97.7686C971.778 99.163 971.477 99.3594 970.6 99.9355V99.942ZM971.032 35.6098C971.307 28.8473 974.646 31.5641 970.6 23.9112C970.672 23.7672 970.744 23.6232 970.816 23.4792C972.479 23.7672 974.135 24.0553 975.798 24.3433C976.518 23.0406 977.245 21.7444 977.965 20.4416C978.469 22.1764 978.973 23.9047 979.484 25.6395C980.943 26.5626 983.529 26.7917 985.984 26.7197C986.056 26.8637 986.128 27.0077 986.2 27.1517C984.747 29.1812 982.331 30.1435 980.786 32.1336C981.002 33.9404 981.218 35.7407 981.434 37.5476C981.29 37.6196 981.146 37.6916 981.002 37.7636C978.999 36.6769 977.755 35.1843 976.236 33.6459C974.083 33.9273 972.662 34.8046 971.039 35.5967L971.032 35.6098ZM980.996 123.771C979.549 123.915 978.109 124.059 976.662 124.203C976.518 124.059 976.374 123.915 976.23 123.771C976.649 122.527 976.505 121.925 976.014 120.74C976.806 119.876 977.605 119.005 978.397 118.141C979.477 118.861 980.564 119.588 981.644 120.308C981.428 121.46 981.212 122.619 980.996 123.771ZM1005.69 99.2939C1005.55 99.3659 1005.4 99.4379 1005.26 99.5099C996.053 93.7491 999.182 96.983 991.391 100.374C991.247 100.302 991.104 100.23 990.959 100.158C991.392 97.4151 991.824 94.6721 992.262 91.9291C990.959 90.7049 989.663 89.4742 988.36 88.2435C987.424 87.2353 986.482 86.2206 985.546 85.2124V84.9964C987.778 85.2452 992.072 85.4481 993.774 84.3483C995.45 83.3467 996.557 78.4368 997.022 76.3354C998.567 77.265 999.967 81.6512 1000.27 83.7002C1002.63 85.0619 1006.99 84.1388 1010.23 83.9163C1008.21 86.0831 1006.19 88.25 1004.17 90.4169C1003.76 93.389 1005.34 96.2825 1005.69 99.3005V99.2939ZM1017.6 -10.7458V-11.6099C1018.76 -11.682 1019.91 -11.754 1021.07 -11.826C1022.53 -12.5199 1022.66 -13.9863 1023.23 -15.5051C1024.65 -14.7457 1024.67 -12.8472 1025.83 -11.826C1027.35 -11.682 1028.86 -11.5379 1030.38 -11.3939C1030.53 -11.3219 1030.67 -11.2499 1030.81 -11.1779C1029.81 -10.1697 1028.79 -9.15502 1027.78 -8.14686C1027.86 -6.62808 1027.93 -5.11584 1028 -3.59706C1027.93 -3.52505 1027.86 -3.45304 1027.78 -3.38102C1022.87 -4.13387 1025.36 -4.6314 1020.42 -3.16499H1020.2C1019.24 -7.59041 1021.18 -7.63623 1017.6 -10.7458ZM1027.14 72.0017C1026.63 72.2897 1026.13 72.5778 1025.62 72.8658C1024.56 72.1326 1023.8 71.5172 1023.23 70.2668C1023.8 69.2129 1024.43 68.8986 1025.18 68.1H1025.83C1027.28 69.1016 1027.76 70.0312 1027.14 72.0017ZM1053.35 39.5115C1054.57 45.1415 1055.8 50.778 1057.03 56.408H1056.39C1051.84 53.593 1047.29 50.778 1042.74 47.963C1036.7 48.7289 1033.66 55.0528 1028.01 56.408C1029.45 50.778 1030.89 45.1415 1032.34 39.5115C1028.29 35.9764 1024.25 32.4348 1020.21 28.8997C1020.07 28.6836 1019.92 28.4676 1019.78 28.2516C1025.34 28.1075 1030.9 27.9635 1036.46 27.8195C1038.7 21.7574 1040.94 15.6889 1043.17 9.62683H1043.39C1045.34 15.6889 1047.29 21.7574 1049.24 27.8195C1054.58 27.7475 1059.92 27.6755 1065.27 27.6035C1064.76 29.8685 1055.49 37.9403 1053.35 39.518L1053.35 39.5115ZM1073.92 2.90359C1071.91 3.89211 1068.89 4.32418 1066.99 5.07048C1065.37 3.16545 1064.72 1.14914 1062.66 -0.34346V-1.20759C1065.4 -2.73292 1065.98 -3.32865 1067.42 -6.18946C1070.45 -5.10275 1069.17 -4.33681 1073.71 -4.67068C1074 -3.11262 1073.05 -2.56271 1072.84 -1.20759C1073.2 0.0951557 1073.56 1.39136 1073.92 2.69411V2.91014V2.90359ZM1094.5 11.5711C1093.25 10.9558 1092.54 10.4451 1092.33 8.75614C1093.2 7.96402 1094.07 7.16535 1094.93 6.37322H1095.58C1096.3 7.16535 1097.03 7.96402 1097.75 8.75614C1097.82 8.97218 1097.89 9.18821 1097.96 9.40425C1096.97 10.4844 1096.34 11.2765 1094.5 11.5711ZM1105.77 -14.641C1104.99 -14.0976 1104.98 -13.8554 1103.6 -13.7768H1103.38C1102.95 -14.4642 1102.8 -14.5166 1102.73 -15.7277C1103.02 -15.9437 1103.31 -16.1597 1103.6 -16.3758C1104.03 -16.3038 1104.46 -16.2318 1104.9 -16.1597C1105.12 -16.0877 1105.33 -16.0157 1105.55 -15.9437C1105.62 -15.5837 1105.69 -15.2236 1105.77 -14.8635V-14.6475V-14.641Z" fill="black"/>
        <path d="M-74.9903 141.741C-45.0598 128.635 -13.4796 117.578 11.8684 99.9348C40.1295 80.2626 61.5627 54.8819 81.3985 26.719C92.3704 10.4772 103.349 -5.77118 114.321 -22.0195H-16.9427C-19.7708 -17.5548 -34.5592 -9.19498 -39.6851 -5.77118C-55.9204 5.05015 -73.8381 13.829 -91.8868 23.0399C-100.548 27.2296 -109.215 31.4128 -117.883 35.6026V163.835C-113.117 161.092 -108.351 158.349 -103.585 155.606C-94.0536 150.984 -84.522 146.362 -74.9903 141.741ZM33.3212 8.30375C34.4406 6.7326 34.7876 3.79977 35.056 1.37103C36.5682 2.06496 37.4651 5.41675 38.303 6.78497C40.686 6.71296 43.0689 6.64094 45.4518 6.56893C45.5238 6.85698 45.5958 7.14503 45.6678 7.43307C44.5877 8.95185 43.5009 10.4641 42.4208 11.9829C43.1409 13.7897 43.8675 15.59 44.5876 17.3968C44.424 18.1693 44.4371 18.0187 44.1556 18.477C42.4208 17.9009 40.6925 17.3248 38.9577 16.7422C35.2524 16.9778 35.3375 19.8452 32.241 20.4213C32.313 18.1824 32.385 15.9435 32.457 13.7046C31.0495 12.2251 29.1511 10.5165 27.0431 9.80289C26.9711 9.65887 26.8991 9.51485 26.8271 9.37083C28.9939 9.01077 31.1608 8.65071 33.3277 8.29066L33.3212 8.30375ZM2.1272 28.2312C4.916 27.5569 5.97653 28.0741 7.3251 26.0643C8.89626 26.9678 9.72112 29.2983 11.8749 30.6141V31.2622C10.1663 33.0625 8.03867 32.6043 7.10907 35.38C6.96505 35.452 6.82102 35.524 6.677 35.596C5.57719 34.9348 3.64599 34.2867 2.55927 33.4291C3.65908 31.2426 2.95206 30.5487 2.1272 28.4473V28.2312ZM-19.7511 52.2764C-19.4631 52.3484 -19.175 52.4205 -18.887 52.4925C-18.5269 52.8525 -18.1669 53.2126 -17.8068 53.5726C-17.7348 53.7887 -17.6628 54.0047 -17.5908 54.2207C-18.0229 54.6528 -18.4549 55.0849 -18.8935 55.5235C-20.1636 55.3205 -20.2748 55.0063 -21.0604 54.4433C-21.1324 54.2273 -21.2044 54.0113 -21.2765 53.7952C-20.7724 53.2911 -20.2683 52.7871 -19.7577 52.2764H-19.7511ZM-32.5299 60.7214C-31.5937 61.1535 -30.651 61.5855 -29.7149 62.0241C-29.4988 62.3122 -29.2828 62.6002 -29.0668 62.8883C-29.2108 63.6084 -29.3548 64.335 -29.4988 65.0552C-30.4808 65.6574 -31.8097 65.7818 -33.6166 65.7033C-34.1075 64.898 -34.4087 64.4267 -34.4807 63.1043C-33.8326 62.3122 -33.178 61.5135 -32.5299 60.7214ZM-78.0213 63.5364C-75.5533 61.8147 -74.8463 55.0521 -73.4715 52.2699C-68.8039 56.656 -74.4731 63.5364 -64.5879 63.5364C-62.2967 63.5364 -59.521 63.7 -57.8713 63.1043C-57.7992 63.1763 -57.7272 63.2483 -57.6552 63.3203C-60.3262 66.0633 -62.9971 68.8063 -65.6681 71.5493C-66.2377 75.248 -63.6452 78.9271 -63.0692 82.8158C-66.3882 81.0809 -69.7138 79.3527 -73.0329 77.6179C-77.3994 77.8732 -80.2733 81.4672 -83.4287 83.2478C-82.6366 79.4967 -81.8379 75.739 -81.0458 71.9813C-83.8608 69.2384 -86.6758 66.4954 -89.4907 63.7524C-86.846 64.0405 -80.1293 64.8588 -78.0082 63.5364H-78.0213ZM-111.382 99.4962C-111.814 99.4242 -112.246 99.3521 -112.685 99.2801C-113.549 97.8857 -113.353 97.0609 -112.253 96.0331H-110.95C-110.315 96.8776 -109.962 96.8972 -109.87 98.416C-110.374 98.7761 -110.878 99.1361 -111.389 99.4962H-111.382Z" fill="black"/>
        <path d="M84.8723 107.949C85.7888 107.235 87.3076 104.996 86.8231 104.27C85.9786 105.376 85.0359 106.364 84.6562 107.949H84.8723Z" fill="black"/>
        <path d="M430.797 141.957C431.072 141.616 431.674 141.498 431.013 141.309C430.941 141.525 430.869 141.741 430.797 141.957Z" fill="black"/>
        <path d="M685.531 633.231C685.675 633.303 685.819 633.375 685.963 633.447C685.819 633.015 685.675 632.583 685.531 632.145V633.225V633.231Z" fill="black"/>
        <path d="M431.664 141.087C432.168 140.589 432.031 140.668 432.096 140.223C431.952 140.511 431.808 140.799 431.664 141.087Z" fill="black"/>
        <path d="M-31.4497 398.854C-23.9409 391.849 -16.4321 384.845 -8.92326 377.84C6.02235 364.845 20.968 351.844 35.9136 338.849C70.0404 311.982 104.069 284.972 138.589 258.485C157.907 243.663 176.191 227.029 195.556 212.345C211.32 200.391 224.727 186.094 239.961 173.786C245.015 168.948 250.069 164.111 255.122 159.273C260.248 154.507 265.374 149.741 270.5 144.975C273.282 142.73 277.335 139.83 278.945 136.53C285.786 131.542 293.504 122.462 301.471 116.171C323.35 95.9552 345.228 75.7332 367.106 55.5176C372.304 50.6798 377.502 45.8419 382.7 41.0041C383.564 39.8519 384.435 38.6932 385.299 37.541C396.402 28.7622 405.691 18.1438 416.709 9.38461C419.668 6.49761 422.627 3.61061 425.593 0.71707C433.75 -6.86375 441.913 -14.4446 450.07 -22.0254H287.613C285.734 -19.6425 283.855 -17.2596 281.983 -14.8766C276.065 -7.04705 269.21 -0.133972 263.135 7.43376C257.518 14.4319 250.514 20.2321 244.943 27.1452C240.57 32.5722 235.208 38.1498 229.781 42.5229C227.11 45.2658 224.439 48.0088 221.768 50.7518C214.547 57.3245 207.327 63.8906 200.106 70.4632C192.741 77.0359 185.376 83.602 178.011 90.1747C165.174 100.374 153.521 111.948 140.755 122.017C116.455 141.178 92.9661 160.235 65.5888 176.601C29.0201 198.46 -16.7528 211.023 -57.0137 228.803C-71.8022 235.336 -86.5383 242.799 -100.122 250.897C-106.04 254.576 -111.965 258.262 -117.883 261.948V453.216C-106.721 451.684 -90.3942 442.231 -81.923 436.968C-63.3638 425.446 -47.9664 412.124 -31.4497 398.841V398.854ZM405.024 -16.3889H405.672C406.817 -15.5116 407.767 -14.7457 409.135 -14.006C408.677 -12.2777 408.002 -11.5838 408.055 -9.02409C407.983 -8.95208 407.911 -8.88006 407.839 -8.80805C406.366 -9.15502 405.312 -9.50853 403.505 -9.24012C403.073 -10.6149 402.641 -11.9831 402.202 -13.3579C403.138 -14.366 404.081 -15.3807 405.017 -16.3889H405.024ZM244.517 132.858C242.592 132.007 242.939 131.188 244.301 130.043H245.381C246.317 131.391 246.082 132.255 244.517 132.858ZM311.232 105.133C303.075 113.074 294.912 121.022 286.755 128.963C297.367 118.423 307.985 107.876 318.597 97.3365C316.142 99.9355 313.687 102.534 311.232 105.133ZM330.512 85.638C327.841 88.3089 325.17 90.9799 322.499 93.6509C325.386 90.6918 328.273 87.7328 331.166 84.7673C330.95 85.0553 330.734 85.3434 330.518 85.6314L330.512 85.638ZM361.051 58.9938C356.213 62.9675 351.375 66.9347 346.537 70.9084C352.743 65.5665 358.956 60.2245 365.169 54.8761C363.794 56.2508 362.426 57.619 361.051 58.9938ZM378.595 15.6692C379.1 15.8132 379.604 15.9573 380.114 16.1013C381.064 17.3386 381.43 18.5824 380.762 20.6511C379.538 20.7231 378.307 20.7951 377.083 20.8671C376.939 20.6511 376.795 20.4351 376.651 20.219C375.434 17.7117 377.267 16.7756 378.602 15.6692H378.595ZM366.249 -17.253C367.093 -16.9715 370.026 -14.9094 371.015 -14.222C370 -12.4741 369.28 -11.8784 369.496 -9.24012C368.259 -8.7164 365.882 -9.19429 363.65 -9.24012C363.355 -10.7 363.015 -12.4544 362.786 -14.222C364.73 -15.0403 365.273 -15.5051 366.249 -17.253ZM315.559 15.8853C318.414 16.6119 324.967 16.9785 328.122 16.1013C329.844 15.2568 333.176 5.40435 333.752 2.8905C335.31 4.12124 337.353 12.8084 337.87 15.4532C340.207 16.6905 347.938 16.6119 350.649 15.6692C350.721 15.7412 350.793 15.8132 350.865 15.8853C347.762 18.9163 344.652 21.9538 341.549 24.9849C340.652 27.6427 343.323 34.1565 344.364 36.4674V37.1155C340.757 35.0926 337.143 33.0698 333.536 31.0534C328.895 31.6688 326.486 36.1728 322.27 37.3381C323.35 33.2923 324.436 29.2532 325.517 25.2074C322.198 22.1764 318.872 19.1389 315.553 16.1078V15.8918L315.559 15.8853ZM306.028 3.10653C306.316 2.8905 306.604 2.67447 306.892 2.45843C308.483 2.5108 308.817 2.76612 308.843 4.40928C308.483 4.62532 308.123 4.84135 307.763 5.05738C307.331 5.1294 306.898 5.20141 306.46 5.27342C306.244 4.98537 306.028 4.69733 305.812 4.40928C305.884 3.97721 305.956 3.54515 306.028 3.10653ZM306.46 50.9744C307.763 51.0464 307.966 51.1446 308.411 52.0546C308.659 52.8794 308.371 53.1871 307.547 53.5733C306.381 54.0316 305.844 53.3769 305.38 52.4932C305.74 51.9891 306.1 51.485 306.46 50.9744ZM306.676 63.7531H307.324C308.188 64.6892 309.059 65.6319 309.923 66.5681C309.707 67.1442 309.491 67.7203 309.275 68.3029C308.051 68.5189 306.82 68.735 305.596 68.951C305.164 68.0869 304.732 67.2162 304.293 66.3521C305.085 65.4879 305.884 64.6172 306.676 63.7531ZM287.397 20.4285C288.784 20.7689 289.504 21.5807 290.428 22.3794C290.139 23.3155 289.851 24.2582 289.563 25.1944C288.522 25.6788 287.488 25.4889 285.878 25.4104C285.374 24.6903 284.87 23.9636 284.359 23.2435C285.367 22.3074 286.382 21.3647 287.39 20.4285H287.397ZM275.914 53.7894C277.596 52.8729 278.952 52.2182 280.248 50.9744C282.107 51.6225 282.212 53.5799 283.927 54.4375C284.071 54.6535 284.215 54.8695 284.359 55.0856C283.037 56.4276 281.858 56.2574 281.76 58.9873C280.294 59.3146 278.696 59.0462 276.994 59.2033C277.132 56.912 276.169 56.4276 275.691 54.4375C275.763 54.2214 275.835 54.0054 275.907 53.7894H275.914ZM247.974 52.4866C249.564 52.539 249.898 52.7943 249.924 54.4375C249.564 54.7255 249.204 55.0135 248.844 55.3016C248.412 55.2296 247.98 55.1576 247.542 55.0856C247.398 54.5815 247.254 54.0774 247.109 53.5668C247.398 53.2067 247.686 52.8467 247.974 52.4866ZM247.326 82.8099C249.964 80.1717 254.428 70.3323 255.554 66.3455H255.77C258.579 70.0704 257.741 79.4319 260.32 83.674C265.662 84.1061 271.004 84.5382 276.353 84.9768C271.947 88.7279 267.541 92.4856 263.142 96.2433C264.006 101.729 264.877 107.222 265.741 112.708C260.183 111.071 257.302 104.551 251.659 103.176C249.25 102.75 240.144 108.249 237.146 109.461H236.93C238.737 104.119 240.543 98.7767 242.344 93.4283C239.169 89.8932 235.987 86.3515 232.812 82.8164C232.38 82.3844 231.948 81.9523 231.509 81.5137C236.779 81.9457 242.049 82.3778 247.319 82.8164L247.326 82.8099ZM223.712 143.895C224 143.679 224.288 143.463 224.577 143.247H225.657C225.801 143.319 225.945 143.391 226.089 143.463C226.658 144.268 226.92 144.353 226.953 145.846C226.377 146.134 225.801 146.422 225.218 146.71C224.328 146.232 224.099 145.898 223.483 145.191C223.555 144.759 223.627 144.327 223.699 143.889L223.712 143.895ZM214.181 87.1437C215.948 88.25 216.132 89.2123 218.73 89.9586C218.154 91.4054 217.578 92.8456 216.996 94.2924C215.294 94.6917 214.488 95.3922 213.094 95.8112C212.917 93.6836 212.263 92.8129 211.143 91.6935C212.335 89.9259 213.395 89.651 214.174 87.1437H214.181ZM192.518 122.887C195.137 121.572 195.883 121.329 197.068 118.554C199.517 119.529 198.508 121.414 202.698 121.369C202.77 121.441 202.842 121.513 202.914 121.585C202.076 125.46 201.062 123.405 201.611 128.733C201.539 128.805 201.467 128.877 201.395 128.949C198.031 128.131 197.435 128.229 194.463 129.814C193.022 127.509 195.713 125.925 192.512 123.529V122.881L192.518 122.887ZM194.901 151.044C196.689 152.163 196.675 153.086 200.099 152.995V153.211C199.543 154.284 198.063 155.378 198.364 157.112C198.58 157.544 198.796 157.977 199.013 158.415C198.868 158.703 198.724 158.991 198.58 159.279C198.567 159.286 194.495 159.305 193.815 159.495H193.599C193.029 157.479 192.44 156.68 191.864 155.162C193.245 153.473 194.325 153.872 194.895 151.044H194.901ZM-109.209 326.725C-108.561 326.221 -107.906 325.717 -107.258 325.206C-105.903 325.737 -105.019 326.018 -104.659 327.589C-105.412 328.578 -106.296 329.18 -107.906 329.324C-108.338 328.82 -108.77 328.316 -109.209 327.805V326.725ZM-103.579 364.852C-104.443 365.068 -105.314 365.284 -106.178 365.5C-107.264 364.871 -107.474 364.413 -107.913 363.117C-107.264 362.397 -106.61 361.67 -105.962 360.95C-104.574 361.153 -103.749 361.69 -103.147 362.685C-103.291 363.405 -103.435 364.132 -103.579 364.852ZM-75.6384 368.099C-75.8544 367.667 -76.0705 367.235 -76.2865 366.796C-75.6057 365.513 -74.8921 364.708 -73.9036 363.765C-72.7449 364.282 -72.0116 365.179 -71.7367 366.58C-72.5681 368.354 -73.5239 368.786 -75.6384 368.099ZM65.1567 263.912C64.6526 263.768 64.1485 263.624 63.6379 263.48C63.5659 263.047 63.4939 262.615 63.4219 262.177L64.286 261.313C65.8048 261.365 66.1256 261.548 66.2369 263.048C65.8768 263.336 65.5168 263.624 65.1567 263.912ZM132.304 206.728C131.577 207.265 131.106 207.854 129.921 207.376C128.075 206.407 129.05 204.614 130.137 203.697H131.217C131.721 204.273 132.225 204.849 132.736 205.432C132.592 205.864 132.448 206.296 132.304 206.735V206.728ZM164.146 121.382H164.794C166.431 122.907 166.431 123.673 169.992 123.549C170.064 123.621 170.136 123.693 170.208 123.765C169.213 127.765 169.193 126.861 170.208 130.913C166.287 131.372 166.732 130.802 163.707 132.648C163.504 132.439 160.559 126.933 160.244 126.364C161.868 124.55 163.341 124.21 164.146 121.382ZM128.841 159.941H144.873C146.484 159.129 152.172 143.797 152.454 140.877C156.081 143.234 155.943 157.544 159.171 159.724C162.49 159.796 165.815 159.868 169.134 159.941C171.229 159.868 173.324 159.796 175.419 159.724C175.563 159.796 175.707 159.868 175.851 159.941C173.259 164.294 164.683 168.477 163.288 172.719C164.591 178.565 165.887 184.418 167.19 190.264V190.912C162.136 187.737 157.082 184.555 152.028 181.38C145.842 182.14 142.241 188.241 136.651 190.048C136.507 189.904 136.363 189.76 136.219 189.616C137.81 183.77 139.394 177.917 140.985 172.071C136.939 168.32 132.9 164.562 128.854 160.805V159.941H128.841ZM102.413 217.124C103.205 216.62 104.003 216.116 104.796 215.605H105.876C106.02 215.677 106.164 215.749 106.308 215.821C106.74 216.325 107.172 216.829 107.611 217.34C107.355 218.538 106.111 220.201 105.228 220.803C105.084 220.875 104.94 220.947 104.796 221.019C103.833 220.286 102.753 219.592 102.413 218.204V217.124ZM96.7827 190.696C98.0658 191.213 99.4602 191.141 100.684 191.56C101.352 191.959 101.378 193.877 101.765 194.807C100.9 195.671 100.03 196.542 99.1656 197.406H98.5175C97.5094 196.542 96.4947 195.671 95.4865 194.807C95.6633 193.432 96.115 191.639 96.7893 190.689L96.7827 190.696ZM97.4308 245.712C97.9807 246.982 97.457 247.585 97.2148 249.176C96.2328 249.778 94.9039 249.902 93.097 249.824C92.737 248.887 92.3769 247.945 92.0169 247.009C92.953 246.073 93.8957 245.13 94.8319 244.194C95.696 244.698 96.5667 245.202 97.4308 245.712ZM89.634 226.217C90.9695 226.505 91.2575 226.944 92.0169 227.736C92.0038 230.276 90.4916 230.61 88.7698 229.687C88.3967 227.998 88.7306 227.16 89.634 226.224V226.217ZM48.0442 223.618C48.1162 223.546 48.1882 223.474 48.2602 223.402C51.0752 222.826 53.8902 222.25 56.7052 221.667C58.6691 220.653 59.1929 214.224 59.0881 211.271H59.7362C60.7444 214.302 61.7591 217.34 62.7672 220.371C65.9423 219.939 69.1239 219.507 72.2989 219.068C72.3709 219.212 72.4429 219.356 72.5149 219.5C70.7801 222.171 69.0518 224.842 67.317 227.513C68.2532 230.544 69.1959 233.582 70.132 236.613V237.477C67.9651 236.469 65.7982 235.454 63.6314 234.446C61.1175 234.086 58.08 239.605 55.4025 240.508C55.6185 237.189 55.8345 233.863 56.0505 230.544C53.3796 228.305 50.7086 226.066 48.0376 223.828V223.612L48.0442 223.618ZM31.1477 240.298C32.2214 240.835 34.3882 241.843 35.4815 242.681C35.0232 243.591 34.6763 244.475 35.0494 245.712C32.7189 247.559 33.164 247.487 31.3703 249.614C29.9366 248.377 28.0905 245.955 28.1233 243.329C29.138 242.151 30.2771 241.719 31.1543 240.298H31.1477ZM30.4996 281.672C32.0904 280.5 32.1624 276.723 32.8826 274.74H33.5307C34.8334 276.01 35.2589 278.006 36.9937 278.857C38.9446 278.713 40.8954 278.569 42.8397 278.425C42.9118 278.569 42.9838 278.713 43.0558 278.857C42.1655 283.852 40.7056 283.394 43.0558 288.605C41.7989 289.659 38.9708 288.278 36.7711 288.605C34.9381 288.88 33.3604 290.556 32.2214 291.636H32.0053C30.205 288.101 31.5798 285.797 27.4555 284.487C27.3115 284.199 27.1675 283.911 27.0235 283.623C28.1756 282.975 29.3344 282.32 30.4865 281.672H30.4996ZM12.739 262.177C13.0991 262.249 13.4592 262.321 13.8192 262.393C14.1793 262.753 14.5393 263.113 14.8994 263.473C14.8143 265.083 14.3495 265.378 12.7325 265.424C12.3724 265.136 12.0124 264.848 11.6523 264.56C11.5803 264.2 11.5083 263.84 11.4363 263.48C11.8684 263.047 12.3004 262.615 12.739 262.177ZM-11.0901 291.204C-9.53207 290.418 -9.27022 287.937 -8.49119 286.438C-7.11642 287.315 -6.71054 290.909 -5.89223 292.284C-4.0854 292.356 -2.28513 292.428 -0.478294 292.5C-0.406281 292.644 -0.334274 292.788 -0.26226 292.932C-3.58132 297.142 -5.23759 295.204 -4.59603 302.896C-4.66805 302.968 -4.74005 303.04 -4.81206 303.112C-6.73672 302.634 -7.48957 301.266 -8.9298 300.297C-10.9068 300.225 -12.6089 301.213 -14.3437 302.032C-14.9657 300.467 -13.3552 297.737 -13.041 295.531C-14.0491 294.012 -15.0639 292.5 -16.072 290.981C-14.4092 291.053 -12.7529 291.125 -11.0901 291.197V291.204ZM-30.3695 326.509C-28.5889 326.666 -28.3859 327.249 -26.9064 327.589C-26.7624 327.949 -26.6184 328.309 -26.4744 328.669C-27.1028 329.953 -27.6985 330.777 -28.6412 331.7C-30.2779 331.484 -31.1878 330.869 -32.1043 329.966C-31.8817 328.152 -31.2075 327.602 -30.3695 326.503V326.509ZM-51.3837 294.883C-50.8796 294.307 -50.3755 293.731 -49.8649 293.148H-49.2168C-48.1497 294.215 -47.7373 294.844 -46.1858 295.531C-46.6179 296.683 -47.0499 297.842 -47.4885 298.994C-47.6326 299.066 -47.7766 299.138 -47.9206 299.21C-49.0008 298.994 -50.0875 298.778 -51.1677 298.562C-51.6063 297.691 -51.7438 296.016 -51.3837 294.876V294.883ZM-85.6087 323.694C-83.8019 324.021 -74.3356 324.938 -72.6139 323.91C-71.0951 319.792 -69.5829 315.681 -68.0641 311.563C-66.5584 312.421 -64.4636 321.115 -63.9464 323.478C-61.1249 324.774 -54.8402 323.969 -51.1677 323.91C-52.4442 327.759 -58.0284 329.337 -59.8352 333.01C-60.8826 335.884 -58.0218 342.607 -57.0202 345.14V345.356C-60.6273 343.261 -64.241 341.167 -67.8481 339.072C-72.9085 339.425 -74.9707 344.067 -79.3306 345.134C-78.3945 341.016 -77.4518 336.905 -76.5156 332.787C-79.5466 329.828 -82.5842 326.869 -85.6152 323.904V323.688L-85.6087 323.694Z" fill="black"/>
    </g>
</svg>
